<?xml version="1.0" encoding="UTF-8"?>
<!DOCTYPE svg PUBLIC "-//W3C//DTD SVG 1.1//EN" "http://www.w3.org/Graphics/SVG/1.1/DTD/svg11.dtd">
<!-- Creator: CorelDRAW 2019 (64-Bit) -->
<svg xmlns="http://www.w3.org/2000/svg" xml:space="preserve" width="1748px" height="2480px" version="1.1" style="shape-rendering:geometricPrecision; text-rendering:geometricPrecision; image-rendering:optimizeQuality; fill-rule:evenodd; clip-rule:evenodd"
viewBox="0 0 1748 2480.27"
 xmlns:xlink="http://www.w3.org/1999/xlink"
 xmlns:xodm="http://www.corel.com/coreldraw/odm/2003">
 <defs>
  <style type="text/css">
   <![CDATA[
    .fil0 {fill:#FBDCC7}
    .fil6 {fill:#F08519}
    .fil2 {fill:#E83F44}
    .fil7 {fill:#E62129}
    .fil8 {fill:#009B4C}
    .fil5 {fill:#707070}
    .fil4 {fill:#F2F2EE}
    .fil9 {fill:#332C2B;fill-rule:nonzero}
    .fil1 {fill:#332C2B;fill-rule:nonzero}
    .fil10 {fill:#E83F44;fill-rule:nonzero}
    .fil3 {fill:white;fill-rule:nonzero}
   ]]>
  </style>
 </defs>
 <g id="Layer_x0020_1">
  <metadata id="CorelCorpID_0Corel-Layer"/>
  <g id="_2474423371584">
   <path class="fil0" d="M719.34 1253.61l0 232.81c0,7.3 -5.98,13.28 -13.28,13.28l-16.41 0c-7.3,0 -13.28,-5.97 -13.28,-13.28l0 -232.81 -230.46 0c-7.31,0 -13.28,-5.97 -13.28,-13.28l0 -10.54c0,-7.31 5.97,-13.29 13.28,-13.29l483.58 0 0 -359.76 -455.46 0c-7.3,0 -13.28,-5.97 -13.28,-13.28l0 -29.68c0,-7.31 5.98,-13.28 13.28,-13.28l455.46 0 0 -278.12c0,-7.31 5.98,-13.29 13.29,-13.29l29.68 0c7.31,0 13.28,5.98 13.28,13.29l0 278.12 108.59 0c7.31,0 13.28,5.97 13.28,13.28l0 29.68c0,7.31 -5.97,13.28 -13.28,13.28l-108.59 0 0 359.76 258.59 0c7.31,0 13.28,5.98 13.28,13.29l0 10.54c0,7.31 -5.97,13.28 -13.28,13.28l-258.59 0 0 232.81c0,7.31 -5.97,13.28 -13.28,13.28l-29.68 0c-7.31,0 -13.29,-5.97 -13.29,-13.28l0 -232.81 -210.15 0z"/>
   <path class="fil1" d="M643.5 1242.26c-0.78,0 -1.51,-0.16 -2.16,-0.48 -0.66,-0.32 -1.2,-0.76 -1.61,-1.34l1.7 -1.22c0.19,0.33 0.46,0.59 0.82,0.78 0.36,0.18 0.78,0.27 1.25,0.27 0.81,0 1.44,-0.25 1.88,-0.75 0.44,-0.51 0.67,-1.21 0.67,-2.12l0 -10.08 2.07 0 0 10.09c0,1.02 -0.18,1.9 -0.53,2.62 -0.37,0.73 -0.89,1.29 -1.58,1.66 -0.7,0.38 -1.53,0.57 -2.51,0.57z"/>
   <path id="1" class="fil1" d="M651.78 1227.32l2.08 0 0 14.79 -2.08 0 0 -14.79zm1.04 12.82l8.47 0 0 1.97 -8.47 0 0 -1.97z"/>
   <polygon id="2" class="fil1" points="663.22,1240.03 665.29,1240.03 665.29,1242.11 663.22,1242.11 "/>
   <path id="3" class="fil1" d="M673.07 1234.4l4.73 0c0.45,0 0.84,-0.11 1.18,-0.32 0.34,-0.21 0.6,-0.5 0.79,-0.89 0.19,-0.39 0.28,-0.83 0.28,-1.33l0 0c0,-0.51 -0.09,-0.96 -0.28,-1.35 -0.19,-0.38 -0.45,-0.68 -0.79,-0.9 -0.34,-0.21 -0.73,-0.32 -1.18,-0.32l-4.73 0 0 -1.97 4.66 0c0.88,0 1.66,0.19 2.33,0.56 0.67,0.38 1.19,0.91 1.56,1.59 0.37,0.69 0.55,1.48 0.55,2.39l0 0c0,0.9 -0.18,1.69 -0.55,2.37 -0.37,0.68 -0.89,1.21 -1.56,1.58 -0.67,0.38 -1.45,0.56 -2.33,0.56l-4.66 0 0 -1.97zm-1.07 -7.08l2.08 0 0 14.79 -2.08 0 0 -14.79z"/>
   <path id="4" class="fil1" d="M685.88 1233.88l5.04 0c0.4,0 0.74,-0.09 1.05,-0.28 0.31,-0.19 0.54,-0.46 0.71,-0.81 0.16,-0.35 0.24,-0.75 0.24,-1.21l0 0c0,-0.45 -0.08,-0.86 -0.24,-1.2 -0.17,-0.35 -0.4,-0.62 -0.71,-0.81 -0.3,-0.19 -0.65,-0.29 -1.05,-0.29l-5.04 0 0 -1.97 4.96 0c0.86,0 1.61,0.17 2.25,0.53 0.65,0.35 1.15,0.85 1.51,1.5 0.36,0.64 0.53,1.39 0.53,2.24l0 0c0,0.85 -0.18,1.6 -0.54,2.25 -0.36,0.64 -0.86,1.14 -1.51,1.5 -0.65,0.35 -1.39,0.52 -2.24,0.52l-4.96 0 0 -1.97zm-0.91 -6.57l2.08 0 0 14.8 -2.08 0 0 -14.8zm4.93 8.08l2.07 -0.46 3.78 7.18 -2.46 0 -3.39 -6.72z"/>
   <path id="5" class="fil1" d="M702.17 1227.32l1.77 0 5.46 14.79 -2.24 0 -4.1 -11.93 -4.1 11.93 -2.24 0 5.45 -14.79zm-2.94 9.57l7.79 0 0 1.97 -7.79 0 0 -1.97z"/>
   <polygon id="6" class="fil1" points="722.26,1227.32 724.2,1227.32 724.2,1242.11 722.18,1242.11 722.18,1231.03 722.29,1231.68 718.64,1240.05 717.2,1240.05 713.56,1231.89 713.66,1231.03 713.66,1242.11 711.63,1242.11 711.63,1227.32 713.58,1227.32 717.92,1237.09 "/>
   <path id="7" class="fil1" d="M732.85 1242.26c-1.09,0 -2.02,-0.21 -2.8,-0.64 -0.77,-0.43 -1.37,-1.06 -1.77,-1.89 -0.41,-0.82 -0.61,-1.81 -0.61,-2.97l0 -9.44 2.07 0 0 9.51c0,1.08 0.27,1.91 0.82,2.5 0.54,0.59 1.31,0.89 2.29,0.89 1,0 1.77,-0.3 2.32,-0.89 0.55,-0.59 0.82,-1.42 0.82,-2.5l0 -9.51 2.07 0 0 9.44c0,1.16 -0.2,2.15 -0.61,2.97 -0.4,0.83 -1,1.46 -1.78,1.89 -0.78,0.43 -1.72,0.64 -2.82,0.64z"/>
   <path id="8" class="fil1" d="M743.15 1235.62l6.53 -8.3 2.55 0 -9.39 11.41 0.31 -3.11zm-1.63 -8.3l2.08 0 0 14.79 -2.08 0 0 -14.79zm4.09 6.9l1.64 -1.52 5.6 9.41 -2.54 0 -4.7 -7.89z"/>
   <path id="9" class="fil1" d="M758.92 1227.32l1.77 0 5.45 14.79 -2.24 0 -4.1 -11.93 -4.1 11.93 -2.24 0 5.46 -14.79zm-2.94 9.57l7.78 0 0 1.97 -7.78 0 0 -1.97z"/>
   <path class="fil1" d="M705.39 1442.25c0,0.63 -0.13,1.21 -0.38,1.74 -0.26,0.52 -0.61,0.95 -1.07,1.28l-0.98 -1.36c0.27,-0.15 0.47,-0.37 0.62,-0.65 0.14,-0.29 0.22,-0.63 0.22,-1.01 0,-0.64 -0.2,-1.14 -0.6,-1.5 -0.41,-0.35 -0.97,-0.53 -1.7,-0.53l-8.06 0 0 -1.66 8.07 0c0.82,0 1.52,0.14 2.1,0.43 0.58,0.29 1.02,0.71 1.33,1.26 0.3,0.55 0.45,1.22 0.45,2z"/>
   <path id="1" class="fil1" d="M693.44 1435.63l0 -1.66 11.83 0 0 1.66 -11.83 0zm10.25 -0.83l0 -6.77 1.58 0 0 6.77 -1.58 0z"/>
   <polygon id="2" class="fil1" points="703.61,1426.48 703.61,1424.82 705.27,1424.82 705.27,1426.48 "/>
   <path id="3" class="fil1" d="M699.1 1418.6l0 -3.78c0,-0.36 -0.08,-0.68 -0.25,-0.95 -0.17,-0.27 -0.41,-0.48 -0.72,-0.63 -0.31,-0.15 -0.66,-0.22 -1.06,-0.22l0 0c-0.41,0 -0.77,0.07 -1.08,0.22 -0.3,0.15 -0.55,0.36 -0.72,0.63 -0.17,0.27 -0.25,0.59 -0.25,0.95l0 3.78 -1.58 0 0 -3.73c0,-0.7 0.15,-1.32 0.45,-1.86 0.3,-0.54 0.73,-0.96 1.27,-1.25 0.55,-0.3 1.19,-0.44 1.91,-0.44l0 0c0.72,0 1.35,0.14 1.9,0.44 0.54,0.29 0.96,0.71 1.26,1.25 0.3,0.54 0.45,1.16 0.45,1.86l0 3.73 -1.58 0zm-5.66 0.86l0 -1.67 11.83 0 0 1.67 -11.83 0z"/>
   <path id="4" class="fil1" d="M698.69 1408.36l0 -4.04c0,-0.32 -0.08,-0.6 -0.23,-0.84 -0.15,-0.24 -0.37,-0.43 -0.65,-0.57 -0.28,-0.13 -0.6,-0.19 -0.96,-0.19l0 0c-0.37,0 -0.69,0.06 -0.97,0.19 -0.28,0.14 -0.49,0.33 -0.64,0.57 -0.15,0.24 -0.23,0.52 -0.23,0.84l0 4.04 -1.58 0 0 -3.98c0,-0.68 0.14,-1.28 0.42,-1.8 0.29,-0.52 0.68,-0.92 1.2,-1.2 0.52,-0.29 1.12,-0.43 1.8,-0.43l0 0c0.68,0 1.27,0.14 1.79,0.43 0.52,0.29 0.92,0.69 1.2,1.21 0.28,0.52 0.43,1.12 0.43,1.79l0 3.98 -1.58 0zm-5.26 0.72l0 -1.66 11.84 0 0 1.66 -11.84 0zm6.47 -3.95l-0.37 -1.65 5.74 -3.03 0 1.97 -5.37 2.71z"/>
   <path id="5" class="fil1" d="M693.44 1395.32l0 -1.42 11.83 -4.36 0 1.79 -9.55 3.28 9.55 3.28 0 1.79 -11.83 -4.36zm7.66 2.35l0 -6.23 1.57 0 0 6.23 -1.57 0z"/>
   <polygon id="6" class="fil1" points="693.44,1379.24 693.44,1377.69 705.27,1377.69 705.27,1379.31 696.41,1379.31 696.93,1379.23 703.63,1382.14 703.63,1383.3 697.09,1386.21 696.41,1386.13 705.27,1386.13 705.27,1387.75 693.44,1387.75 693.44,1386.19 701.25,1382.72 "/>
   <path id="7" class="fil1" d="M705.39 1370.77c0,0.88 -0.17,1.62 -0.51,2.24 -0.35,0.63 -0.85,1.1 -1.51,1.42 -0.66,0.33 -1.45,0.49 -2.38,0.49l-7.55 0 0 -1.66 7.61 0c0.86,0 1.53,-0.22 2,-0.65 0.47,-0.43 0.71,-1.05 0.71,-1.84 0,-0.8 -0.24,-1.41 -0.71,-1.85 -0.47,-0.44 -1.14,-0.65 -2,-0.65l-7.61 0 0 -1.66 7.55 0c0.93,0 1.72,0.16 2.38,0.49 0.66,0.32 1.16,0.8 1.51,1.42 0.34,0.62 0.51,1.37 0.51,2.25z"/>
   <path id="8" class="fil1" d="M700.08 1362.54l-6.64 -5.23 0 -2.04 9.13 7.51 -2.49 -0.24zm-6.64 1.3l0 -1.66 11.83 0 0 1.66 -11.83 0zm5.52 -3.27l-1.22 -1.31 7.53 -4.49 0 2.04 -6.31 3.76z"/>
   <path id="9" class="fil1" d="M693.44 1349.92l0 -1.41 11.83 -4.37 0 1.79 -9.55 3.29 9.55 3.27 0 1.79 -11.83 -4.36zm7.66 2.35l0 -6.22 1.57 0 0 6.22 -1.57 0z"/>
   <path id="10" class="fil1" d="M698.9 1331.41l2.07 0c0.88,0 1.65,0.18 2.32,0.52 0.67,0.34 1.19,0.82 1.55,1.45 0.37,0.63 0.55,1.35 0.55,2.18 0,0.84 -0.17,1.57 -0.51,2.2 -0.35,0.63 -0.83,1.12 -1.46,1.47 -0.64,0.35 -1.36,0.52 -2.19,0.52l-3.5 0c-0.87,0 -1.65,-0.17 -2.31,-0.51 -0.67,-0.35 -1.19,-0.83 -1.55,-1.46 -0.37,-0.62 -0.55,-1.35 -0.55,-2.17 0,-0.68 0.14,-1.31 0.43,-1.88 0.29,-0.57 0.7,-1.05 1.23,-1.44 0.54,-0.38 1.15,-0.64 1.85,-0.78l0 0 0 1.8 0 0c-0.39,0.1 -0.73,0.27 -1.02,0.5 -0.28,0.23 -0.5,0.51 -0.65,0.82 -0.15,0.32 -0.22,0.64 -0.22,0.98 0,0.49 0.11,0.91 0.34,1.28 0.24,0.37 0.57,0.66 0.99,0.86 0.42,0.2 0.91,0.3 1.46,0.3l3.5 0c0.51,0 0.95,-0.1 1.33,-0.31 0.39,-0.21 0.68,-0.5 0.9,-0.88 0.21,-0.37 0.31,-0.81 0.31,-1.3 0,-0.49 -0.11,-0.92 -0.33,-1.29 -0.22,-0.37 -0.54,-0.65 -0.95,-0.85 -0.42,-0.2 -0.92,-0.3 -1.49,-0.3l-0.51 0 0 2.4 -1.59 0 0 -4.11z"/>
   <polygon id="11" class="fil1" points="703.61,1329.63 703.61,1327.97 705.27,1327.97 705.27,1329.63 "/>
   <polygon id="12" class="fil1" points="693.44,1323.82 693.44,1322.01 702.71,1319.17 693.44,1316.33 693.44,1314.52 705.27,1318.38 705.27,1319.96 "/>
   <path class="fil1" d="M967.23 1116.43c0,0.79 -0.16,1.51 -0.48,2.17 -0.32,0.66 -0.77,1.19 -1.34,1.61l-1.23 -1.7c0.34,-0.19 0.59,-0.47 0.78,-0.82 0.18,-0.36 0.27,-0.78 0.27,-1.26 0,-0.8 -0.25,-1.43 -0.75,-1.87 -0.5,-0.45 -1.21,-0.67 -2.12,-0.67l-10.08 0 0 -2.07 10.09 0c1.03,0 1.9,0.18 2.63,0.53 0.72,0.36 1.28,0.89 1.66,1.58 0.37,0.69 0.57,1.53 0.57,2.5z"/>
   <path id="1" class="fil1" d="M952.28 1108.16l0 -2.08 14.79 0 0 2.08 -14.79 0zm12.82 -1.04l0 -8.47 1.97 0 0 8.47 -1.97 0z"/>
   <polygon id="2" class="fil1" points="965,1096.72 965,1094.64 967.07,1094.64 967.07,1096.72 "/>
   <path id="3" class="fil1" d="M952.28 1087.94l0 -2.08 14.79 0 0 2.08 -14.79 0zm12.82 -1.04l0 -8.47 1.97 0 0 8.47 -1.97 0z"/>
   <path id="4" class="fil1" d="M952.28 1076l0 -2.08 14.79 0 0 2.08 -14.79 0zm12.82 -1.01l0 -8.5 1.97 0 0 8.5 -1.97 0zm-6.36 0l0 -7.38 1.97 0 0 7.38 -1.97 0zm-6.46 0l0 -8.5 1.98 0 0 8.5 -1.98 0z"/>
   <path id="5" class="fil1" d="M953.49 1061.4l0 -2.08 13.58 0 0 2.08 -13.58 0zm-1.21 4.18l0 -10.44 1.98 0 0 10.44 -1.98 0z"/>
   <polygon id="6" class="fil1" points="952.28,1053.51 952.28,1051.63 963.71,1044.4 963.98,1044.64 952.28,1044.64 952.28,1042.59 967.06,1042.59 967.06,1044.49 955.8,1051.7 955.54,1051.46 967.06,1051.46 967.06,1053.51 "/>
   <path id="7" class="fil1" d="M952.28 1034.9l0 -1.77 14.79 -5.45 0 2.23 -11.93 4.11 11.93 4.09 0 2.24 -14.79 -5.45zm9.57 2.94l0 -7.78 1.98 0 0 7.78 -1.98 0z"/>
   <polygon id="8" class="fil1" points="952.28,1025.44 952.28,1023.56 963.71,1016.32 963.98,1016.57 952.28,1016.57 952.28,1014.51 967.06,1014.51 967.06,1016.41 955.8,1023.63 955.54,1023.38 967.06,1023.38 967.06,1025.44 "/>
   <path id="9" class="fil1" d="M967.23 1002.85c0,0.71 -0.07,1.39 -0.21,2.02 -0.14,0.64 -0.34,1.23 -0.61,1.79 -0.27,0.55 -0.61,1.07 -1.01,1.55l0 0 -1.59 -1.29 0 0c0.48,-0.57 0.85,-1.19 1.1,-1.86 0.24,-0.68 0.36,-1.42 0.36,-2.21 0,-1.07 -0.2,-1.9 -0.59,-2.49 -0.4,-0.59 -0.96,-0.89 -1.69,-0.89l-0.01 0c-0.51,0 -0.92,0.13 -1.22,0.4 -0.31,0.27 -0.53,0.62 -0.67,1.04 -0.15,0.42 -0.28,0.97 -0.41,1.64 0,0.02 -0.01,0.05 -0.01,0.07 0,0.02 0,0.05 -0.01,0.07l-0.02 0.15c-0.18,0.99 -0.37,1.79 -0.58,2.41 -0.22,0.62 -0.61,1.16 -1.17,1.6 -0.57,0.44 -1.37,0.66 -2.42,0.66l-0.01 0c-0.91,0 -1.69,-0.21 -2.34,-0.62 -0.65,-0.41 -1.14,-1.01 -1.48,-1.79 -0.34,-0.79 -0.51,-1.74 -0.51,-2.84 0,-0.53 0.06,-1.05 0.17,-1.56 0.12,-0.52 0.29,-1.02 0.52,-1.52 0.22,-0.5 0.51,-0.99 0.86,-1.47l0 0 1.64 1.18 0 0c-0.41,0.56 -0.72,1.12 -0.93,1.69 -0.2,0.55 -0.31,1.11 -0.31,1.68 0,1.01 0.21,1.79 0.61,2.35 0.4,0.56 0.97,0.84 1.71,0.84l0.01 0c0.51,0 0.91,-0.14 1.2,-0.43 0.29,-0.29 0.51,-0.65 0.65,-1.08 0.14,-0.43 0.28,-1.03 0.43,-1.8 0.01,-0.02 0.01,-0.05 0.01,-0.07 0.01,-0.03 0.02,-0.05 0.02,-0.08 0.01,-0.03 0.02,-0.07 0.02,-0.11 0.01,-0.04 0.01,-0.08 0.02,-0.11 0.18,-0.9 0.4,-1.64 0.65,-2.24 0.25,-0.6 0.66,-1.11 1.22,-1.51 0.56,-0.4 1.32,-0.6 2.29,-0.6l0.02 0c0.9,0 1.68,0.21 2.32,0.63 0.64,0.43 1.13,1.05 1.46,1.86 0.34,0.82 0.51,1.79 0.51,2.94z"/>
   <path id="10" class="fil1" d="M967.23 989.48c0,1.1 -0.22,2.03 -0.65,2.8 -0.43,0.78 -1.06,1.37 -1.88,1.78 -0.83,0.41 -1.82,0.61 -2.98,0.61l-9.44 0 0 -2.07 9.51 0c1.08,0 1.91,-0.28 2.5,-0.82 0.6,-0.54 0.89,-1.31 0.89,-2.3 0,-1 -0.29,-1.77 -0.89,-2.31 -0.59,-0.55 -1.42,-0.82 -2.5,-0.82l-9.51 0 0 -2.08 9.44 0c1.16,0 2.15,0.21 2.98,0.61 0.82,0.41 1.45,1 1.88,1.79 0.43,0.77 0.65,1.71 0.65,2.81z"/>
   <path id="11" class="fil1" d="M959.36 979.75l0 -4.73c0,-0.45 -0.1,-0.84 -0.32,-1.18 -0.2,-0.34 -0.5,-0.6 -0.89,-0.79 -0.39,-0.19 -0.83,-0.28 -1.33,-0.28l0 0c-0.51,0 -0.96,0.09 -1.34,0.28 -0.39,0.19 -0.69,0.45 -0.9,0.79 -0.22,0.34 -0.32,0.73 -0.32,1.18l0 4.73 -1.98 0 0 -4.66c0,-0.89 0.19,-1.66 0.57,-2.33 0.37,-0.67 0.9,-1.19 1.59,-1.56 0.68,-0.37 1.48,-0.56 2.38,-0.56l0 0c0.9,0 1.69,0.19 2.37,0.56 0.69,0.37 1.21,0.89 1.59,1.56 0.37,0.67 0.56,1.44 0.56,2.33l0 4.66 -1.98 0zm-7.08 1.07l0 -2.08 14.79 0 0 2.08 -14.79 0z"/>
   <path id="12" class="fil1" d="M958.84 966.94l0 -5.04c0,-0.4 -0.09,-0.75 -0.28,-1.05 -0.19,-0.31 -0.46,-0.54 -0.81,-0.71 -0.35,-0.16 -0.75,-0.25 -1.21,-0.25l0 0c-0.45,0 -0.85,0.09 -1.2,0.25 -0.35,0.17 -0.62,0.4 -0.81,0.7 -0.19,0.3 -0.28,0.66 -0.28,1.06l0 5.04 -1.98 0 0 -4.96c0,-0.86 0.18,-1.61 0.53,-2.26 0.35,-0.64 0.85,-1.15 1.5,-1.5 0.65,-0.36 1.4,-0.54 2.24,-0.54l0 0c0.85,0 1.6,0.19 2.25,0.54 0.64,0.36 1.14,0.87 1.5,1.51 0.35,0.65 0.53,1.4 0.53,2.25l0 4.96 -1.98 0zm-6.57 0.91l0 -2.08 14.8 0 0 2.08 -14.8 0zm8.09 -4.94l-0.47 -2.06 7.18 -3.79 0 2.46 -6.71 3.39z"/>
   <path id="13" class="fil1" d="M952.28 950.64l0 -1.77 14.79 -5.45 0 2.24 -11.93 4.1 11.93 4.1 0 2.24 -14.79 -5.46zm9.57 2.94l0 -7.78 1.98 0 0 7.78 -1.98 0z"/>
   <path id="14" class="fil1" d="M959.36 940.11l0 -4.72c0,-0.45 -0.1,-0.84 -0.32,-1.18 -0.2,-0.34 -0.5,-0.61 -0.89,-0.79 -0.39,-0.19 -0.83,-0.28 -1.33,-0.28l0 0c-0.51,0 -0.96,0.09 -1.34,0.28 -0.39,0.18 -0.69,0.45 -0.9,0.79 -0.22,0.34 -0.32,0.73 -0.32,1.18l0 4.72 -1.98 0 0 -4.65c0,-0.89 0.19,-1.66 0.57,-2.34 0.37,-0.66 0.9,-1.19 1.59,-1.55 0.68,-0.37 1.48,-0.56 2.38,-0.56l0 0c0.9,0 1.69,0.19 2.37,0.56 0.69,0.36 1.21,0.89 1.59,1.55 0.37,0.68 0.56,1.45 0.56,2.34l0 4.65 -1.98 0zm-7.08 1.07l0 -2.07 14.79 0 0 2.07 -14.79 0z"/>
   <path id="15" class="fil1" d="M953.49 926.07l0 -2.08 13.58 0 0 2.08 -13.58 0zm-1.21 4.18l0 -10.44 1.98 0 0 10.44 -1.98 0z"/>
   <path id="16" class="fil1" d="M967.23 913.29c0,1.03 -0.23,1.94 -0.68,2.73 -0.45,0.78 -1.09,1.39 -1.92,1.82 -0.82,0.43 -1.77,0.65 -2.86,0.65l-4.19 0c-1.08,0 -2.04,-0.22 -2.86,-0.65 -0.82,-0.43 -1.46,-1.04 -1.91,-1.82 -0.46,-0.79 -0.68,-1.7 -0.68,-2.73 0,-1.03 0.22,-1.94 0.68,-2.73 0.45,-0.78 1.09,-1.39 1.91,-1.82 0.82,-0.43 1.78,-0.65 2.86,-0.65l4.19 0c1.09,0 2.04,0.22 2.86,0.65 0.83,0.43 1.47,1.04 1.92,1.82 0.45,0.79 0.68,1.7 0.68,2.73zm-2.05 0c0,-0.61 -0.14,-1.15 -0.41,-1.61 -0.28,-0.47 -0.67,-0.82 -1.17,-1.08 -0.51,-0.25 -1.09,-0.38 -1.76,-0.38l-4.33 0c-0.66,0 -1.25,0.13 -1.75,0.38 -0.51,0.26 -0.9,0.61 -1.17,1.08 -0.28,0.46 -0.42,1 -0.42,1.61 0,0.61 0.14,1.15 0.42,1.61 0.27,0.47 0.66,0.83 1.17,1.08 0.5,0.26 1.09,0.38 1.75,0.38l4.33 0c0.67,0 1.25,-0.12 1.76,-0.38 0.5,-0.25 0.89,-0.61 1.17,-1.08 0.27,-0.46 0.41,-1 0.41,-1.61z"/>
   <path class="fil1" d="M965.01 754.59l0 -3.35c0,-1.09 -0.28,-1.93 -0.85,-2.53 -0.56,-0.6 -1.36,-0.9 -2.39,-0.9l-4.36 0c-1.03,0 -1.83,0.3 -2.39,0.9 -0.57,0.6 -0.85,1.44 -0.85,2.53l0 3.35 -1.98 0 0 -3.28c0,-1.19 0.21,-2.21 0.63,-3.05 0.41,-0.84 1.01,-1.48 1.81,-1.92 0.79,-0.44 1.75,-0.66 2.87,-0.66l4.19 0c1.12,0 2.07,0.22 2.87,0.66 0.79,0.44 1.39,1.08 1.81,1.93 0.41,0.84 0.62,1.86 0.62,3.05l0 3.27 -1.98 0zm-12.82 1.41l0 -2.08 14.8 0 0 2.08 -14.8 0z"/>
   <path id="1" class="fil1" d="M952.19 738.6l0 -1.77 14.8 -5.45 0 2.24 -11.94 4.1 11.94 4.09 0 2.24 -14.8 -5.45zm9.58 2.94l0 -7.78 1.97 0 0 7.78 -1.97 0z"/>
   <path id="2" class="fil1" d="M958.76 728.23l0 -5.04c0,-0.4 -0.1,-0.74 -0.29,-1.05 -0.19,-0.31 -0.46,-0.54 -0.81,-0.71 -0.35,-0.16 -0.75,-0.24 -1.2,-0.24l0 0c-0.46,0 -0.86,0.08 -1.21,0.24 -0.35,0.17 -0.62,0.4 -0.81,0.71 -0.19,0.3 -0.28,0.65 -0.28,1.05l0 5.04 -1.98 0 0 -4.96c0,-0.86 0.18,-1.61 0.54,-2.26 0.35,-0.64 0.85,-1.14 1.5,-1.5 0.64,-0.36 1.39,-0.53 2.24,-0.53l0 0c0.85,0 1.59,0.18 2.24,0.53 0.65,0.37 1.15,0.87 1.5,1.52 0.35,0.64 0.53,1.39 0.53,2.24l0 4.96 -1.97 0zm-6.58 0.91l0 -2.08 14.81 0 0 2.08 -14.81 0zm8.09 -4.93l-0.46 -2.07 7.18 -3.78 0 2.46 -6.72 3.39z"/>
   <polygon id="3" class="fil1" points="966.99,713.48 966.99,715.56 952.19,715.56 952.19,713.48 "/>
   <path id="4" class="fil1" d="M952.19 702.23l0 -1.76 14.8 -5.46 0 2.24 -11.94 4.1 11.94 4.1 0 2.24 -14.8 -5.46zm9.58 2.95l0 -7.79 1.97 0 0 7.79 -1.97 0z"/>
   <path id="5" class="fil1" d="M958.76 691.87l0 -5.05c0,-0.39 -0.1,-0.74 -0.29,-1.04 -0.19,-0.31 -0.46,-0.55 -0.81,-0.71 -0.35,-0.17 -0.75,-0.25 -1.2,-0.25l0 0c-0.46,0 -0.86,0.08 -1.21,0.25 -0.35,0.16 -0.62,0.4 -0.81,0.7 -0.19,0.3 -0.28,0.66 -0.28,1.05l0 5.05 -1.98 0 0 -4.97c0,-0.85 0.18,-1.6 0.54,-2.25 0.35,-0.64 0.85,-1.15 1.5,-1.5 0.64,-0.36 1.39,-0.54 2.24,-0.54l0 0c0.85,0 1.59,0.18 2.24,0.54 0.65,0.36 1.15,0.87 1.5,1.51 0.35,0.65 0.53,1.4 0.53,2.24l0 4.97 -1.97 0zm-6.58 0.91l0 -2.08 14.81 0 0 2.08 -14.81 0zm8.09 -4.94l-0.46 -2.06 7.18 -3.79 0 2.46 -6.72 3.39z"/>
   <path id="6" class="fil1" d="M952.19 675.57l0 -1.77 14.8 -5.45 0 2.24 -11.94 4.1 11.94 4.1 0 2.24 -14.8 -5.46zm9.58 2.94l0 -7.78 1.97 0 0 7.78 -1.97 0z"/>
   <path id="7" class="fil1" d="M952.19 657.71l0 -2.08 14.8 0 0 2.08 -14.8 0zm0 8.4l0 -2.07 14.8 0 0 2.07 -14.8 0zm6.53 -1.29l0 -8.21 1.97 0 0 8.21 -1.97 0z"/>
   <polygon id="8" class="fil1" points="952.19,637.78 952.19,635.84 966.99,635.84 966.99,637.87 955.91,637.87 956.56,637.76 964.93,641.4 964.93,642.85 956.76,646.49 955.91,646.39 966.99,646.39 966.99,648.42 952.19,648.42 952.19,646.47 961.96,642.13 "/>
   <path id="9" class="fil1" d="M952.19 628.15l0 -1.77 14.8 -5.45 0 2.24 -11.94 4.1 11.94 4.09 0 2.24 -14.8 -5.45zm9.58 2.94l0 -7.78 1.97 0 0 7.78 -1.97 0z"/>
   <path id="10" class="fil1" d="M965.01 617.28l0 -3.34c0,-1.09 -0.28,-1.94 -0.85,-2.54 -0.56,-0.6 -1.36,-0.9 -2.39,-0.9l-4.36 0c-1.03,0 -1.83,0.3 -2.39,0.9 -0.57,0.6 -0.85,1.45 -0.85,2.54l0 3.34 -1.98 0 0 -3.28c0,-1.19 0.21,-2.2 0.63,-3.04 0.41,-0.84 1.01,-1.49 1.81,-1.93 0.79,-0.44 1.75,-0.66 2.87,-0.66l4.19 0c1.12,0 2.07,0.22 2.87,0.66 0.79,0.44 1.39,1.09 1.81,1.93 0.41,0.85 0.62,1.86 0.62,3.05l0 3.27 -1.98 0zm-12.82 1.41l0 -2.08 14.8 0 0 2.08 -14.8 0z"/>
   <polygon id="11" class="fil1" points="966.99,602.94 966.99,605.02 952.19,605.02 952.19,602.94 "/>
   <path id="12" class="fil1" d="M967.14 594.29c0,1.1 -0.22,2.03 -0.65,2.81 -0.43,0.77 -1.06,1.36 -1.88,1.77 -0.82,0.41 -1.81,0.61 -2.97,0.61l-9.45 0 0 -2.07 9.52 0c1.08,0 1.91,-0.28 2.5,-0.82 0.59,-0.54 0.88,-1.31 0.88,-2.3 0,-0.99 -0.29,-1.76 -0.88,-2.31 -0.59,-0.55 -1.42,-0.82 -2.5,-0.82l-9.52 0 0 -2.07 9.45 0c1.16,0 2.15,0.2 2.97,0.61 0.82,0.4 1.45,1 1.88,1.78 0.43,0.78 0.65,1.72 0.65,2.81z"/>
   <polygon id="13" class="fil1" points="952.19,585.63 952.19,583.75 963.63,576.51 963.89,576.76 952.19,576.76 952.19,574.7 966.98,574.7 966.98,576.6 955.72,583.82 955.45,583.57 966.98,583.57 966.98,585.63 "/>
   <polygon class="fil1" points="502.49,1190.24 500.83,1190.24 500.83,1178.41 502.49,1178.41 "/>
   <path id="1" class="fil1" d="M508.64 1178.41l1.42 0 4.36 11.83 -1.79 0 -3.28 -9.55 -3.28 9.55 -1.79 0 4.36 -11.83zm-2.35 7.66l6.22 0 0 1.57 -6.22 0 0 -1.57z"/>
   <polygon id="2" class="fil1" points="517.87,1190.24 516.21,1190.24 516.21,1178.41 517.87,1178.41 "/>
   <polygon id="3" class="fil1" points="520.8,1178.41 522.3,1178.41 528.09,1187.56 527.89,1187.77 527.89,1178.41 529.54,1178.41 529.54,1190.23 528.02,1190.23 522.25,1181.23 522.44,1181.01 522.44,1190.23 520.8,1190.23 "/>
   <path id="4" class="fil1" d="M536.17 1184.07l3.78 0c0.36,0 0.67,-0.08 0.95,-0.25 0.27,-0.17 0.48,-0.41 0.63,-0.71 0.15,-0.32 0.22,-0.67 0.22,-1.07l0 0c0,-0.41 -0.07,-0.77 -0.22,-1.08 -0.15,-0.3 -0.36,-0.55 -0.63,-0.72 -0.28,-0.17 -0.59,-0.25 -0.95,-0.25l-3.78 0 0 -1.58 3.73 0c0.7,0 1.32,0.15 1.86,0.45 0.54,0.3 0.95,0.73 1.25,1.27 0.3,0.55 0.44,1.19 0.44,1.91l0 0c0,0.72 -0.14,1.35 -0.44,1.9 -0.3,0.54 -0.71,0.97 -1.25,1.26 -0.54,0.3 -1.16,0.45 -1.86,0.45l-3.73 0 0 -1.58zm-0.86 -5.66l1.66 0 0 11.83 -1.66 0 0 -11.83z"/>
   <path id="5" class="fil1" d="M549.44 1190.36c-0.82,0 -1.55,-0.18 -2.18,-0.54 -0.63,-0.36 -1.11,-0.87 -1.46,-1.53 -0.34,-0.66 -0.51,-1.42 -0.51,-2.29l0 -3.35c0,-0.87 0.17,-1.63 0.51,-2.29 0.35,-0.66 0.83,-1.17 1.46,-1.53 0.63,-0.36 1.36,-0.54 2.18,-0.54 0.83,0 1.55,0.18 2.19,0.54 0.62,0.36 1.11,0.87 1.46,1.53 0.34,0.66 0.51,1.42 0.51,2.29l0 3.35c0,0.87 -0.17,1.63 -0.51,2.29 -0.35,0.66 -0.84,1.17 -1.46,1.53 -0.64,0.36 -1.36,0.54 -2.19,0.54zm0 -1.63c0.49,0 0.92,-0.11 1.29,-0.33 0.38,-0.22 0.66,-0.53 0.86,-0.94 0.21,-0.4 0.31,-0.87 0.31,-1.4l0 -3.47c0,-0.53 -0.1,-1 -0.31,-1.4 -0.2,-0.41 -0.48,-0.72 -0.86,-0.94 -0.37,-0.22 -0.8,-0.33 -1.29,-0.33 -0.48,0 -0.92,0.11 -1.29,0.33 -0.37,0.22 -0.66,0.53 -0.86,0.94 -0.2,0.4 -0.3,0.87 -0.3,1.4l0 3.47c0,0.53 0.1,1 0.3,1.4 0.2,0.41 0.49,0.72 0.86,0.94 0.37,0.22 0.81,0.33 1.29,0.33z"/>
   <polygon id="6" class="fil1" points="556.29,1178.41 557.79,1178.41 563.58,1187.56 563.38,1187.77 563.38,1178.41 565.03,1178.41 565.03,1190.23 563.51,1190.23 557.74,1181.23 557.93,1181.01 557.93,1190.23 556.29,1190.23 "/>
   <path id="7" class="fil1" d="M571.87 1190.36c-0.82,0 -1.55,-0.18 -2.18,-0.54 -0.63,-0.36 -1.12,-0.87 -1.46,-1.53 -0.34,-0.66 -0.52,-1.42 -0.52,-2.29l0 -3.35c0,-0.87 0.18,-1.63 0.52,-2.29 0.34,-0.66 0.83,-1.17 1.46,-1.53 0.63,-0.36 1.36,-0.54 2.18,-0.54 0.82,0 1.55,0.18 2.18,0.54 0.63,0.36 1.12,0.87 1.46,1.53 0.35,0.66 0.52,1.42 0.52,2.29l0 3.35c0,0.87 -0.17,1.63 -0.52,2.29 -0.34,0.66 -0.83,1.17 -1.46,1.53 -0.63,0.36 -1.36,0.54 -2.18,0.54zm0 -1.63c0.49,0 0.92,-0.11 1.29,-0.33 0.37,-0.22 0.66,-0.53 0.86,-0.94 0.21,-0.4 0.31,-0.87 0.31,-1.4l0 -3.47c0,-0.53 -0.1,-1 -0.31,-1.4 -0.2,-0.41 -0.49,-0.72 -0.86,-0.94 -0.37,-0.22 -0.8,-0.33 -1.29,-0.33 -0.49,0 -0.92,0.11 -1.29,0.33 -0.37,0.22 -0.66,0.53 -0.86,0.94 -0.21,0.4 -0.31,0.87 -0.31,1.4l0 3.47c0,0.53 0.1,1 0.31,1.4 0.2,0.41 0.49,0.72 0.86,0.94 0.37,0.22 0.8,0.33 1.29,0.33z"/>
   <path id="8" class="fil1" d="M579.44 1183.66l4.03 0c0.32,0 0.6,-0.08 0.84,-0.23 0.25,-0.15 0.44,-0.37 0.57,-0.65 0.13,-0.28 0.2,-0.6 0.2,-0.96l0 0c0,-0.36 -0.07,-0.69 -0.2,-0.96 -0.13,-0.28 -0.32,-0.5 -0.56,-0.65 -0.24,-0.15 -0.53,-0.23 -0.85,-0.23l-4.03 0 0 -1.58 3.97 0c0.68,0 1.28,0.14 1.8,0.43 0.52,0.28 0.92,0.68 1.21,1.2 0.28,0.51 0.42,1.11 0.42,1.79l0 0c0,0.68 -0.14,1.27 -0.43,1.79 -0.29,0.52 -0.69,0.92 -1.2,1.2 -0.52,0.28 -1.12,0.43 -1.8,0.43l-3.97 0 0 -1.58zm-0.73 -5.26l1.66 0 0 11.84 -1.66 0 0 -11.84zm3.95 6.47l1.65 -0.37 3.03 5.74 -1.97 0 -2.71 -5.37z"/>
   <path id="9" class="fil1" d="M593.49 1190.36c-0.82,0 -1.55,-0.18 -2.18,-0.54 -0.63,-0.36 -1.11,-0.87 -1.46,-1.53 -0.34,-0.66 -0.51,-1.42 -0.51,-2.29l0 -3.35c0,-0.87 0.17,-1.63 0.51,-2.29 0.35,-0.66 0.83,-1.17 1.46,-1.53 0.63,-0.36 1.36,-0.54 2.18,-0.54 0.83,0 1.55,0.18 2.18,0.54 0.63,0.36 1.12,0.87 1.47,1.53 0.34,0.66 0.51,1.42 0.51,2.29l0 3.35c0,0.87 -0.17,1.63 -0.51,2.29 -0.35,0.66 -0.84,1.17 -1.47,1.53 -0.63,0.36 -1.35,0.54 -2.18,0.54zm0 -1.63c0.49,0 0.92,-0.11 1.29,-0.33 0.38,-0.22 0.66,-0.53 0.86,-0.94 0.21,-0.4 0.31,-0.87 0.31,-1.4l0 -3.47c0,-0.53 -0.1,-1 -0.31,-1.4 -0.2,-0.41 -0.48,-0.72 -0.86,-0.94 -0.37,-0.22 -0.8,-0.33 -1.29,-0.33 -0.48,0 -0.92,0.11 -1.29,0.33 -0.37,0.22 -0.66,0.53 -0.86,0.94 -0.2,0.4 -0.3,0.87 -0.3,1.4l0 3.47c0,0.53 0.1,1 0.3,1.4 0.2,0.41 0.49,0.72 0.86,0.94 0.37,0.22 0.81,0.33 1.29,0.33z"/>
   <path id="10" class="fil1" d="M608.43 1183.87l0 2.07c0,0.88 -0.18,1.65 -0.52,2.32 -0.34,0.67 -0.82,1.19 -1.45,1.55 -0.63,0.37 -1.35,0.55 -2.18,0.55 -0.83,0 -1.57,-0.17 -2.2,-0.51 -0.63,-0.35 -1.12,-0.83 -1.47,-1.46 -0.34,-0.63 -0.52,-1.36 -0.52,-2.19l0 -3.49c0,-0.88 0.17,-1.66 0.52,-2.32 0.34,-0.67 0.82,-1.19 1.45,-1.55 0.63,-0.37 1.35,-0.55 2.18,-0.55 0.67,0 1.3,0.14 1.87,0.43 0.57,0.29 1.05,0.7 1.44,1.24 0.38,0.53 0.64,1.14 0.78,1.84l0 0 -1.8 0 0 0c-0.1,-0.39 -0.26,-0.73 -0.5,-1.02 -0.23,-0.28 -0.51,-0.5 -0.82,-0.65 -0.31,-0.15 -0.64,-0.22 -0.97,-0.22 -0.49,0 -0.92,0.11 -1.29,0.35 -0.37,0.23 -0.66,0.56 -0.86,0.98 -0.2,0.42 -0.3,0.91 -0.3,1.47l0 3.49c0,0.51 0.11,0.95 0.31,1.34 0.21,0.38 0.5,0.67 0.88,0.89 0.38,0.21 0.81,0.31 1.3,0.31 0.49,0 0.92,-0.11 1.29,-0.33 0.37,-0.22 0.65,-0.54 0.85,-0.95 0.2,-0.42 0.3,-0.92 0.3,-1.49l0 -0.51 -2.4 0 0 -1.59 4.11 0z"/>
   <path id="11" class="fil1" d="M615.03 1190.36c-0.83,0 -1.56,-0.18 -2.19,-0.54 -0.62,-0.36 -1.11,-0.87 -1.45,-1.53 -0.35,-0.66 -0.52,-1.42 -0.52,-2.29l0 -3.35c0,-0.87 0.17,-1.63 0.52,-2.29 0.34,-0.66 0.83,-1.17 1.45,-1.53 0.63,-0.36 1.36,-0.54 2.19,-0.54 0.82,0 1.55,0.18 2.18,0.54 0.63,0.36 1.11,0.87 1.46,1.53 0.34,0.66 0.52,1.42 0.52,2.29l0 3.35c0,0.87 -0.18,1.63 -0.52,2.29 -0.35,0.66 -0.83,1.17 -1.46,1.53 -0.63,0.36 -1.36,0.54 -2.18,0.54zm0 -1.63c0.48,0 0.91,-0.11 1.29,-0.33 0.37,-0.22 0.65,-0.53 0.86,-0.94 0.2,-0.4 0.3,-0.87 0.3,-1.4l0 -3.47c0,-0.53 -0.1,-1 -0.3,-1.4 -0.21,-0.41 -0.49,-0.72 -0.86,-0.94 -0.38,-0.22 -0.81,-0.33 -1.29,-0.33 -0.49,0 -0.92,0.11 -1.29,0.33 -0.38,0.22 -0.66,0.53 -0.87,0.94 -0.2,0.4 -0.3,0.87 -0.3,1.4l0 3.47c0,0.53 0.1,1 0.3,1.4 0.21,0.41 0.49,0.72 0.87,0.94 0.37,0.22 0.8,0.33 1.29,0.33z"/>
   <path class="fil1" d="M1081.85 1144.14c-0.57,0 -1.11,-0.05 -1.62,-0.16 -0.51,-0.11 -0.98,-0.27 -1.43,-0.49 -0.44,-0.22 -0.85,-0.48 -1.24,-0.81l0 0 1.04 -1.27 0 0c0.45,0.39 0.94,0.68 1.48,0.88 0.55,0.19 1.14,0.29 1.77,0.29 0.86,0 1.52,-0.16 1.99,-0.47 0.48,-0.32 0.71,-0.77 0.71,-1.35l0 -0.01c0,-0.41 -0.1,-0.74 -0.32,-0.98 -0.21,-0.24 -0.49,-0.42 -0.83,-0.54 -0.34,-0.11 -0.78,-0.22 -1.31,-0.32 -0.02,0 -0.04,-0.01 -0.06,-0.01 -0.01,0 -0.03,0 -0.05,0l-0.12 -0.03c-0.79,-0.13 -1.44,-0.29 -1.93,-0.46 -0.5,-0.17 -0.93,-0.48 -1.28,-0.93 -0.35,-0.46 -0.53,-1.1 -0.53,-1.94l0 -0.01c0,-0.73 0.17,-1.35 0.5,-1.87 0.32,-0.52 0.8,-0.91 1.43,-1.19 0.63,-0.27 1.39,-0.4 2.27,-0.4 0.43,0 0.84,0.04 1.25,0.14 0.41,0.09 0.81,0.23 1.22,0.41 0.39,0.18 0.78,0.41 1.17,0.69l0 0 -0.94 1.31 0 0c-0.45,-0.33 -0.9,-0.58 -1.35,-0.74 -0.45,-0.17 -0.9,-0.25 -1.35,-0.25 -0.8,0 -1.43,0.16 -1.88,0.48 -0.45,0.33 -0.67,0.78 -0.67,1.38l0 0c0,0.41 0.11,0.73 0.34,0.96 0.23,0.24 0.52,0.41 0.87,0.52 0.34,0.11 0.82,0.23 1.43,0.35 0.02,0 0.04,0.01 0.06,0.01 0.02,0 0.04,0.01 0.07,0.01 0.02,0.01 0.05,0.01 0.08,0.02 0.04,0 0.07,0.01 0.09,0.01 0.72,0.15 1.32,0.33 1.8,0.52 0.48,0.2 0.88,0.53 1.2,0.98 0.32,0.44 0.49,1.06 0.49,1.83l0 0.02c0,0.72 -0.17,1.34 -0.51,1.85 -0.35,0.51 -0.84,0.9 -1.49,1.17 -0.65,0.27 -1.43,0.4 -2.35,0.4z"/>
   <polygon id="1" class="fil1" points="1097.06,1132.19 1098.61,1132.19 1098.61,1144.02 1096.99,1144.02 1096.99,1135.16 1097.08,1135.68 1094.16,1142.38 1093.01,1142.38 1090.09,1135.84 1090.17,1135.16 1090.17,1144.02 1088.55,1144.02 1088.55,1132.19 1090.11,1132.19 1093.59,1140 "/>
   <path id="2" class="fil1" d="M1104.77 1132.19l1.41 0 4.37 11.83 -1.8 0 -3.28 -9.54 -3.27 9.54 -1.8 0 4.37 -11.83zm-2.35 7.66l6.22 0 0 1.58 -6.22 0 0 -1.58z"/>
   <polygon id="3" class="fil1" points="1112.33,1132.19 1113.84,1132.19 1119.63,1141.34 1119.43,1141.55 1119.43,1132.19 1121.08,1132.19 1121.08,1144.01 1119.55,1144.01 1113.78,1135.01 1113.98,1134.79 1113.98,1144.01 1112.33,1144.01 "/>
   <polygon id="4" class="fil1" points="1129.46,1144.02 1127.8,1144.02 1127.8,1134 1126.12,1135.03 1126.12,1133.31 1127.8,1132.19 1129.46,1132.19 "/>
   <path id="5" class="fil1" d="M1136.1 1137.85l3.78 0c0.36,0 0.67,-0.08 0.94,-0.25 0.28,-0.17 0.48,-0.41 0.63,-0.71 0.15,-0.31 0.23,-0.67 0.23,-1.07l0 0c0,-0.41 -0.08,-0.77 -0.23,-1.08 -0.15,-0.3 -0.35,-0.55 -0.63,-0.71 -0.27,-0.18 -0.58,-0.26 -0.94,-0.26l-3.78 0 0 -1.58 3.72 0c0.71,0 1.33,0.15 1.87,0.45 0.53,0.3 0.95,0.73 1.24,1.27 0.3,0.55 0.45,1.19 0.45,1.91l0 0c0,0.72 -0.15,1.36 -0.45,1.9 -0.29,0.54 -0.71,0.97 -1.24,1.26 -0.54,0.3 -1.16,0.45 -1.87,0.45l-3.72 0 0 -1.58zm-0.86 -5.66l1.66 0 0 11.83 -1.66 0 0 -11.83z"/>
   <path id="6" class="fil1" d="M1149.37 1144.14c-0.82,0 -1.55,-0.18 -2.18,-0.54 -0.63,-0.36 -1.12,-0.87 -1.46,-1.53 -0.34,-0.66 -0.52,-1.42 -0.52,-2.29l0 -3.35c0,-0.87 0.18,-1.63 0.52,-2.29 0.34,-0.66 0.83,-1.17 1.46,-1.53 0.63,-0.36 1.36,-0.54 2.18,-0.54 0.82,0 1.55,0.18 2.18,0.54 0.63,0.36 1.12,0.87 1.46,1.53 0.35,0.66 0.52,1.42 0.52,2.29l0 3.35c0,0.87 -0.17,1.63 -0.52,2.29 -0.34,0.66 -0.83,1.17 -1.46,1.53 -0.63,0.36 -1.36,0.54 -2.18,0.54zm0 -1.63c0.49,0 0.92,-0.11 1.29,-0.33 0.37,-0.22 0.66,-0.53 0.86,-0.94 0.21,-0.4 0.31,-0.87 0.31,-1.4l0 -3.47c0,-0.53 -0.1,-1 -0.31,-1.4 -0.2,-0.41 -0.49,-0.72 -0.86,-0.94 -0.37,-0.22 -0.8,-0.33 -1.29,-0.33 -0.49,0 -0.92,0.11 -1.29,0.33 -0.37,0.22 -0.66,0.53 -0.86,0.94 -0.21,0.4 -0.31,0.87 -0.31,1.4l0 3.47c0,0.53 0.1,1 0.31,1.4 0.2,0.41 0.49,0.72 0.86,0.94 0.37,0.22 0.8,0.33 1.29,0.33z"/>
   <polygon id="7" class="fil1" points="1156.21,1132.19 1157.72,1132.19 1163.5,1141.34 1163.31,1141.55 1163.31,1132.19 1164.95,1132.19 1164.95,1144.01 1163.43,1144.01 1157.66,1135.01 1157.86,1134.79 1157.86,1144.01 1156.21,1144.01 "/>
   <path id="8" class="fil1" d="M1171.8 1144.14c-0.83,0 -1.55,-0.18 -2.18,-0.54 -0.63,-0.36 -1.12,-0.87 -1.46,-1.53 -0.35,-0.66 -0.52,-1.42 -0.52,-2.29l0 -3.35c0,-0.87 0.17,-1.63 0.52,-2.29 0.34,-0.66 0.83,-1.17 1.46,-1.53 0.63,-0.36 1.35,-0.54 2.18,-0.54 0.82,0 1.55,0.18 2.18,0.54 0.63,0.36 1.12,0.87 1.46,1.53 0.34,0.66 0.52,1.42 0.52,2.29l0 3.35c0,0.87 -0.18,1.63 -0.52,2.29 -0.34,0.66 -0.83,1.17 -1.46,1.53 -0.63,0.36 -1.36,0.54 -2.18,0.54zm0 -1.63c0.48,0 0.92,-0.11 1.29,-0.33 0.37,-0.22 0.66,-0.53 0.86,-0.94 0.2,-0.4 0.3,-0.87 0.3,-1.4l0 -3.47c0,-0.53 -0.1,-1 -0.3,-1.4 -0.2,-0.41 -0.49,-0.72 -0.86,-0.94 -0.37,-0.22 -0.81,-0.33 -1.29,-0.33 -0.49,0 -0.92,0.11 -1.29,0.33 -0.38,0.22 -0.66,0.53 -0.86,0.94 -0.21,0.4 -0.31,0.87 -0.31,1.4l0 3.47c0,0.53 0.1,1 0.31,1.4 0.2,0.41 0.48,0.72 0.86,0.94 0.37,0.22 0.8,0.33 1.29,0.33z"/>
   <path id="9" class="fil1" d="M1179.36 1137.44l4.04 0c0.32,0 0.6,-0.08 0.84,-0.23 0.24,-0.15 0.43,-0.37 0.57,-0.65 0.13,-0.28 0.19,-0.6 0.19,-0.96l0 0c0,-0.36 -0.06,-0.69 -0.19,-0.96 -0.14,-0.28 -0.33,-0.5 -0.57,-0.65 -0.24,-0.15 -0.52,-0.23 -0.84,-0.23l-4.04 0 0 -1.58 3.98 0c0.68,0 1.28,0.14 1.8,0.43 0.52,0.28 0.92,0.68 1.2,1.2 0.29,0.51 0.43,1.11 0.43,1.79l0 0c0,0.68 -0.14,1.28 -0.43,1.8 -0.29,0.51 -0.69,0.91 -1.21,1.2 -0.52,0.28 -1.12,0.42 -1.79,0.42l-3.98 0 0 -1.58zm-0.72 -5.26l1.66 0 0 11.84 -1.66 0 0 -11.84zm3.95 6.47l1.65 -0.37 3.03 5.74 -1.97 0 -2.71 -5.37z"/>
   <path id="10" class="fil1" d="M1193.42 1144.14c-0.82,0 -1.55,-0.18 -2.18,-0.54 -0.63,-0.36 -1.12,-0.87 -1.46,-1.53 -0.35,-0.66 -0.52,-1.42 -0.52,-2.29l0 -3.35c0,-0.87 0.17,-1.63 0.52,-2.29 0.34,-0.66 0.83,-1.17 1.46,-1.53 0.63,-0.36 1.36,-0.54 2.18,-0.54 0.82,0 1.55,0.18 2.18,0.54 0.63,0.36 1.12,0.87 1.46,1.53 0.35,0.66 0.52,1.42 0.52,2.29l0 3.35c0,0.87 -0.17,1.63 -0.52,2.29 -0.34,0.66 -0.83,1.17 -1.46,1.53 -0.63,0.36 -1.36,0.54 -2.18,0.54zm0 -1.63c0.49,0 0.92,-0.11 1.29,-0.33 0.37,-0.22 0.66,-0.53 0.86,-0.94 0.21,-0.4 0.31,-0.87 0.31,-1.4l0 -3.47c0,-0.53 -0.1,-1 -0.31,-1.4 -0.2,-0.41 -0.49,-0.72 -0.86,-0.94 -0.37,-0.22 -0.8,-0.33 -1.29,-0.33 -0.49,0 -0.92,0.11 -1.29,0.33 -0.37,0.22 -0.66,0.53 -0.86,0.94 -0.21,0.4 -0.31,0.87 -0.31,1.4l0 3.47c0,0.53 0.1,1 0.31,1.4 0.2,0.41 0.49,0.72 0.86,0.94 0.37,0.22 0.8,0.33 1.29,0.33z"/>
   <path id="11" class="fil1" d="M1208.35 1137.65l0 2.07c0,0.88 -0.17,1.65 -0.51,2.32 -0.34,0.67 -0.82,1.19 -1.45,1.55 -0.63,0.37 -1.36,0.55 -2.18,0.55 -0.84,0 -1.57,-0.17 -2.2,-0.51 -0.63,-0.35 -1.12,-0.83 -1.47,-1.46 -0.35,-0.63 -0.52,-1.36 -0.52,-2.19l0 -3.49c0,-0.88 0.17,-1.66 0.51,-2.32 0.34,-0.67 0.83,-1.19 1.46,-1.55 0.62,-0.37 1.35,-0.55 2.17,-0.55 0.68,0 1.3,0.14 1.88,0.43 0.57,0.29 1.05,0.7 1.43,1.24 0.39,0.53 0.65,1.14 0.78,1.84l0 0 -1.79 0 0 0c-0.1,-0.39 -0.27,-0.73 -0.5,-1.02 -0.23,-0.28 -0.51,-0.5 -0.82,-0.65 -0.32,-0.15 -0.64,-0.22 -0.98,-0.22 -0.49,0 -0.91,0.11 -1.28,0.35 -0.37,0.23 -0.66,0.56 -0.86,0.98 -0.2,0.42 -0.3,0.91 -0.3,1.47l0 3.49c0,0.51 0.1,0.95 0.31,1.34 0.2,0.38 0.5,0.67 0.87,0.89 0.38,0.21 0.82,0.31 1.31,0.31 0.49,0 0.92,-0.11 1.29,-0.33 0.36,-0.21 0.65,-0.53 0.85,-0.95 0.2,-0.42 0.3,-0.91 0.3,-1.49l0 -0.51 -2.4 0 0 -1.59 4.1 0z"/>
   <path id="12" class="fil1" d="M1214.95 1144.14c-0.82,0 -1.55,-0.18 -2.18,-0.54 -0.63,-0.36 -1.11,-0.87 -1.46,-1.53 -0.34,-0.66 -0.51,-1.42 -0.51,-2.29l0 -3.35c0,-0.87 0.17,-1.63 0.51,-2.29 0.35,-0.66 0.83,-1.17 1.46,-1.53 0.63,-0.36 1.36,-0.54 2.18,-0.54 0.83,0 1.55,0.18 2.18,0.54 0.63,0.36 1.12,0.87 1.47,1.53 0.34,0.66 0.51,1.42 0.51,2.29l0 3.35c0,0.87 -0.17,1.63 -0.51,2.29 -0.35,0.66 -0.84,1.17 -1.47,1.53 -0.63,0.36 -1.35,0.54 -2.18,0.54zm0 -1.63c0.49,0 0.92,-0.11 1.29,-0.33 0.38,-0.22 0.66,-0.53 0.86,-0.94 0.21,-0.4 0.31,-0.87 0.31,-1.4l0 -3.47c0,-0.53 -0.1,-1 -0.31,-1.4 -0.2,-0.41 -0.48,-0.72 -0.86,-0.94 -0.37,-0.22 -0.8,-0.33 -1.29,-0.33 -0.48,0 -0.92,0.11 -1.29,0.33 -0.37,0.22 -0.66,0.53 -0.86,0.94 -0.2,0.4 -0.3,0.87 -0.3,1.4l0 3.47c0,0.53 0.1,1 0.3,1.4 0.2,0.41 0.49,0.72 0.86,0.94 0.37,0.22 0.81,0.33 1.29,0.33z"/>
   <path class="fil1" d="M1009.46 1351.19l3.2 0c0.85,0 1.46,-0.16 1.84,-0.49 0.39,-0.31 0.58,-0.76 0.58,-1.35l0 -0.02c0,-0.4 -0.07,-0.74 -0.2,-1.03 -0.14,-0.29 -0.36,-0.51 -0.66,-0.67 -0.3,-0.15 -0.68,-0.23 -1.15,-0.23l-3.61 0 0 -1.5 3.61 0c0.61,0 1.08,-0.14 1.39,-0.43 0.31,-0.28 0.47,-0.71 0.47,-1.27l0 0c0,-0.6 -0.18,-1.04 -0.52,-1.33 -0.35,-0.29 -0.87,-0.44 -1.56,-0.44l-3.39 0 0 -1.54 3.69 0c0.76,0 1.4,0.13 1.91,0.39 0.52,0.26 0.91,0.63 1.16,1.11 0.26,0.48 0.38,1.04 0.38,1.71l0 0c0,0.4 -0.07,0.79 -0.23,1.14 -0.16,0.36 -0.4,0.66 -0.72,0.91 -0.32,0.26 -0.72,0.42 -1.2,0.51 0.48,0.07 0.89,0.24 1.23,0.51 0.35,0.27 0.62,0.6 0.8,1 0.19,0.41 0.28,0.84 0.28,1.31l0 0.02c0,0.64 -0.14,1.2 -0.43,1.69 -0.28,0.49 -0.68,0.87 -1.21,1.13 -0.52,0.27 -1.14,0.4 -1.84,0.4l-3.82 0 0 -1.53zm-0.98 -10.3l1.65 0 0 11.83 -1.65 0 0 -11.83z"/>
   <path id="1" class="fil1" d="M1022.47 1340.89l1.41 0 4.36 11.83 -1.79 0 -3.28 -9.54 -3.28 9.54 -1.79 0 4.37 -11.83zm-2.36 7.66l6.23 0 0 1.58 -6.23 0 0 -1.58z"/>
   <path id="2" class="fil1" d="M1031.16 1351.15l2.67 0c0.88,0 1.55,-0.23 2.03,-0.68 0.48,-0.46 0.72,-1.1 0.72,-1.92l0 -3.48c0,-0.83 -0.24,-1.47 -0.72,-1.92 -0.48,-0.45 -1.15,-0.68 -2.03,-0.68l-2.67 0 0 -1.58 2.62 0c0.95,0 1.77,0.17 2.44,0.5 0.67,0.33 1.18,0.81 1.54,1.44 0.35,0.64 0.52,1.41 0.52,2.3l0 3.36c0,0.89 -0.17,1.65 -0.52,2.29 -0.36,0.63 -0.87,1.12 -1.55,1.45 -0.67,0.33 -1.48,0.49 -2.43,0.49l-2.62 0 0 -1.57zm-1.13 -10.26l1.66 0 0 11.83 -1.66 0 0 -11.83z"/>
   <path id="3" class="fil1" d="M1043.95 1340.89l1.42 0 4.36 11.83 -1.79 0 -3.28 -9.54 -3.28 9.54 -1.79 0 4.36 -11.83zm-2.35 7.66l6.22 0 0 1.58 -6.22 0 0 -1.58z"/>
   <polygon id="4" class="fil1" points="1051.52,1340.89 1053.02,1340.89 1058.81,1350.04 1058.61,1350.25 1058.61,1340.89 1060.26,1340.89 1060.26,1352.72 1058.74,1352.72 1052.97,1343.71 1053.16,1343.5 1053.16,1352.72 1051.52,1352.72 "/>
   <path id="5" class="fil1" d="M1066.89 1346.56l3.78 0c0.36,0 0.68,-0.09 0.95,-0.26 0.27,-0.17 0.48,-0.4 0.63,-0.71 0.15,-0.31 0.22,-0.67 0.22,-1.07l0 0c0,-0.41 -0.07,-0.77 -0.22,-1.07 -0.15,-0.31 -0.36,-0.55 -0.63,-0.72 -0.27,-0.18 -0.59,-0.26 -0.95,-0.26l-3.78 0 0 -1.58 3.73 0c0.7,0 1.32,0.15 1.86,0.45 0.54,0.3 0.95,0.73 1.25,1.28 0.3,0.55 0.44,1.18 0.44,1.9l0 0c0,0.72 -0.14,1.36 -0.44,1.9 -0.3,0.55 -0.71,0.97 -1.25,1.27 -0.54,0.3 -1.16,0.45 -1.86,0.45l-3.73 0 0 -1.58zm-0.86 -5.67l1.67 0 0 11.83 -1.67 0 0 -11.83z"/>
   <path id="6" class="fil1" d="M1080.24 1352.85c-0.88,0 -1.62,-0.18 -2.24,-0.52 -0.63,-0.35 -1.1,-0.85 -1.42,-1.51 -0.33,-0.65 -0.49,-1.45 -0.49,-2.38l0 -7.55 1.66 0 0 7.61c0,0.86 0.22,1.53 0.65,2 0.43,0.47 1.05,0.71 1.84,0.71 0.8,0 1.41,-0.24 1.85,-0.71 0.44,-0.47 0.65,-1.14 0.65,-2l0 -7.61 1.66 0 0 7.55c0,0.93 -0.16,1.73 -0.49,2.38 -0.32,0.66 -0.79,1.16 -1.42,1.51 -0.62,0.34 -1.37,0.52 -2.25,0.52z"/>
   <path id="7" class="fil1" d="M1090.73 1352.85c-0.57,0 -1.11,-0.06 -1.62,-0.17 -0.51,-0.11 -0.99,-0.27 -1.43,-0.48 -0.44,-0.22 -0.86,-0.49 -1.24,-0.82l0 0 1.03 -1.27 0 0c0.45,0.39 0.95,0.69 1.49,0.88 0.54,0.2 1.13,0.29 1.77,0.29 0.85,0 1.52,-0.16 1.99,-0.47 0.47,-0.32 0.71,-0.77 0.71,-1.35l0 -0.01c0,-0.41 -0.11,-0.74 -0.32,-0.98 -0.22,-0.24 -0.49,-0.42 -0.83,-0.54 -0.34,-0.11 -0.78,-0.22 -1.32,-0.32 -0.01,0 -0.03,0 -0.05,0 -0.02,0 -0.04,-0.01 -0.05,-0.01l-0.12 -0.03c-0.8,-0.13 -1.44,-0.29 -1.94,-0.46 -0.49,-0.17 -0.92,-0.48 -1.27,-0.93 -0.35,-0.46 -0.53,-1.1 -0.53,-1.94l0 0c0,-0.74 0.17,-1.36 0.49,-1.88 0.33,-0.52 0.81,-0.91 1.44,-1.18 0.63,-0.28 1.39,-0.41 2.27,-0.41 0.42,0 0.84,0.05 1.25,0.14 0.41,0.09 0.81,0.23 1.21,0.41 0.4,0.18 0.79,0.41 1.18,0.69l0 0 -0.95 1.31 0 0c-0.45,-0.33 -0.9,-0.57 -1.35,-0.74 -0.44,-0.16 -0.89,-0.25 -1.34,-0.25 -0.81,0 -1.44,0.16 -1.89,0.49 -0.44,0.32 -0.67,0.78 -0.67,1.37l0 0.01c0,0.4 0.12,0.72 0.35,0.95 0.23,0.24 0.52,0.41 0.86,0.52 0.35,0.11 0.83,0.23 1.44,0.35 0.02,0 0.04,0.01 0.06,0.01 0.02,0 0.04,0.01 0.06,0.01 0.03,0.01 0.06,0.01 0.09,0.02 0.03,0 0.06,0.01 0.09,0.01 0.72,0.15 1.31,0.33 1.79,0.53 0.48,0.2 0.89,0.52 1.21,0.97 0.32,0.45 0.48,1.06 0.48,1.84l0 0.01c0,0.72 -0.17,1.34 -0.51,1.85 -0.34,0.52 -0.84,0.9 -1.48,1.17 -0.65,0.27 -1.44,0.41 -2.35,0.41z"/>
   <path id="8" class="fil1" d="M1100.33 1340.89l1.42 0 4.36 11.83 -1.79 0 -3.28 -9.54 -3.28 9.54 -1.79 0 4.36 -11.83zm-2.35 7.66l6.22 0 0 1.58 -6.22 0 0 -1.58z"/>
   <path id="9" class="fil1" d="M1109.29 1341.86l1.66 0 0 10.86 -1.66 0 0 -10.86zm-3.34 -0.97l8.35 0 0 1.58 -8.35 0 0 -1.58z"/>
   <path id="10" class="fil1" d="M1012.04 1379.28c-0.57,0 -1.11,-0.05 -1.62,-0.16 -0.51,-0.11 -0.99,-0.27 -1.43,-0.49 -0.44,-0.22 -0.86,-0.49 -1.24,-0.81l0 0 1.03 -1.27 0 0c0.45,0.39 0.95,0.68 1.49,0.88 0.55,0.19 1.13,0.29 1.77,0.29 0.86,0 1.52,-0.16 1.99,-0.48 0.47,-0.31 0.71,-0.76 0.71,-1.34l0 -0.01c0,-0.41 -0.11,-0.74 -0.32,-0.98 -0.22,-0.24 -0.49,-0.42 -0.83,-0.54 -0.34,-0.11 -0.78,-0.22 -1.31,-0.32 -0.02,-0.01 -0.04,-0.01 -0.06,-0.01 -0.02,0 -0.04,0 -0.05,-0.01l-0.12 -0.02c-0.8,-0.14 -1.44,-0.29 -1.94,-0.46 -0.49,-0.17 -0.92,-0.48 -1.27,-0.94 -0.35,-0.45 -0.53,-1.09 -0.53,-1.93l0 -0.01c0,-0.73 0.17,-1.35 0.49,-1.87 0.33,-0.52 0.81,-0.92 1.44,-1.19 0.63,-0.27 1.39,-0.4 2.27,-0.4 0.42,0 0.84,0.04 1.25,0.13 0.41,0.1 0.81,0.23 1.21,0.41 0.4,0.19 0.79,0.42 1.18,0.69l0 0 -0.95 1.32 0 0c-0.45,-0.33 -0.89,-0.58 -1.34,-0.74 -0.45,-0.17 -0.9,-0.25 -1.35,-0.25 -0.81,0 -1.44,0.16 -1.88,0.48 -0.45,0.32 -0.67,0.78 -0.67,1.37l0 0.01c0,0.41 0.11,0.73 0.34,0.96 0.23,0.23 0.52,0.41 0.86,0.52 0.35,0.11 0.83,0.23 1.44,0.35 0.02,0 0.04,0 0.06,0.01 0.02,0 0.04,0 0.06,0.01 0.03,0.01 0.06,0.01 0.09,0.02 0.04,0 0.06,0 0.09,0.01 0.72,0.15 1.32,0.32 1.8,0.52 0.48,0.2 0.88,0.53 1.2,0.97 0.32,0.45 0.48,1.06 0.48,1.84l0 0.01c0,0.73 -0.16,1.34 -0.51,1.86 -0.34,0.51 -0.84,0.9 -1.48,1.17 -0.65,0.27 -1.43,0.4 -2.35,0.4z"/>
   <path id="11" class="fil1" d="M1020.46 1368.3l1.66 0 0 10.86 -1.66 0 0 -10.86zm-3.34 -0.97l8.35 0 0 1.58 -8.35 0 0 -1.58z"/>
   <path id="12" class="fil1" d="M1029.83 1367.33l1.41 0 4.37 11.83 -1.79 0 -3.29 -9.55 -3.27 9.55 -1.79 0 4.36 -11.83zm-2.35 7.66l6.22 0 0 1.57 -6.22 0 0 -1.57z"/>
   <path id="13" class="fil1" d="M1038.79 1368.3l1.66 0 0 10.86 -1.66 0 0 -10.86zm-3.35 -0.97l8.35 0 0 1.58 -8.35 0 0 -1.58z"/>
   <polygon id="14" class="fil1" points="1046.76,1379.16 1045.09,1379.16 1045.09,1367.33 1046.76,1367.33 "/>
   <path id="15" class="fil1" d="M1053.24 1379.28c-0.57,0 -1.11,-0.05 -1.62,-0.16 -0.51,-0.11 -0.98,-0.27 -1.43,-0.49 -0.44,-0.22 -0.85,-0.49 -1.24,-0.81l0 0 1.04 -1.27 0 0c0.45,0.39 0.94,0.68 1.49,0.88 0.54,0.19 1.13,0.29 1.76,0.29 0.86,0 1.52,-0.16 1.99,-0.48 0.48,-0.31 0.71,-0.76 0.71,-1.34l0 -0.01c0,-0.41 -0.1,-0.74 -0.32,-0.98 -0.21,-0.24 -0.49,-0.42 -0.83,-0.54 -0.34,-0.11 -0.78,-0.22 -1.31,-0.32 -0.02,-0.01 -0.04,-0.01 -0.05,-0.01 -0.02,0 -0.04,0 -0.06,-0.01l-0.12 -0.02c-0.79,-0.14 -1.44,-0.29 -1.93,-0.46 -0.5,-0.17 -0.93,-0.48 -1.28,-0.94 -0.35,-0.45 -0.53,-1.09 -0.53,-1.93l0 -0.01c0,-0.73 0.17,-1.35 0.5,-1.87 0.32,-0.52 0.8,-0.92 1.43,-1.19 0.63,-0.27 1.39,-0.4 2.27,-0.4 0.43,0 0.84,0.04 1.25,0.13 0.41,0.1 0.82,0.23 1.22,0.41 0.39,0.19 0.78,0.42 1.17,0.69l0 0 -0.94 1.32 0 0c-0.45,-0.33 -0.9,-0.58 -1.35,-0.74 -0.45,-0.17 -0.9,-0.25 -1.35,-0.25 -0.8,0 -1.43,0.16 -1.88,0.48 -0.45,0.32 -0.67,0.78 -0.67,1.37l0 0.01c0,0.41 0.11,0.73 0.34,0.96 0.23,0.23 0.52,0.41 0.87,0.52 0.34,0.11 0.82,0.23 1.43,0.35 0.03,0 0.04,0 0.06,0.01 0.02,0 0.04,0 0.07,0.01 0.02,0.01 0.05,0.01 0.08,0.02 0.04,0 0.07,0 0.09,0.01 0.72,0.15 1.32,0.32 1.8,0.52 0.48,0.2 0.88,0.53 1.2,0.97 0.33,0.45 0.49,1.06 0.49,1.84l0 0.01c0,0.73 -0.17,1.34 -0.51,1.86 -0.35,0.51 -0.84,0.9 -1.49,1.17 -0.65,0.27 -1.43,0.4 -2.35,0.4z"/>
   <path id="16" class="fil1" d="M1061.66 1368.3l1.66 0 0 10.86 -1.66 0 0 -10.86zm-3.34 -0.97l8.35 0 0 1.58 -8.35 0 0 -1.58z"/>
   <polygon id="17" class="fil1" points="1069.63,1379.16 1067.97,1379.16 1067.97,1367.33 1069.63,1367.33 "/>
   <path id="18" class="fil1" d="M1073.86 1373.97l5.23 -6.64 2.04 0 -7.51 9.13 0.24 -2.49zm-1.3 -6.64l1.66 0 0 11.83 -1.66 0 0 -11.83zm3.27 5.52l1.31 -1.22 4.48 7.53 -2.03 0 -3.76 -6.31z"/>
   <rect class="fil2" x="602.86" y="1023.69" width="111.28" height="116.16" rx="2.29" ry="13.92"/>
   <path class="fil3" d="M620.78 1088.44c1.74,-0.18 3.83,-0.12 5.59,-0.12 1.61,0 2.66,0.06 3.73,0.12 1.21,0 2.03,-1.94 2.03,-2.91 0,-0.33 -0.52,-0.42 -0.65,-0.21 -0.46,0.72 -1.61,2.04 -4.5,2.04 -1.59,0 -2.05,-0.4 -2.05,-1.49l0 -8.5c0,-1.34 0.77,-1.63 1.57,-1.73 0.14,-0.01 0.04,-0.65 -0.09,-0.65l-5.29 0c-0.13,0 -0.25,0.64 -0.1,0.65 0.83,0.12 1.61,0.39 1.61,1.73l0 8.5c0,1.42 -0.86,1.59 -1.97,1.88 -0.15,0.04 -0.08,0.71 0.12,0.69z"/>
   <path id="1" class="fil3" d="M640.67 1088.71c4.22,0 6.95,-3.22 6.95,-7.11 0,-3.98 -2.91,-6.91 -6.91,-6.91 -4.19,0 -6.95,3.21 -6.95,7.08 0,3.99 2.93,6.94 6.91,6.94zm0.75 -1.31c-2.74,0 -5.36,-2.79 -5.36,-6.7 0,-3.6 2.22,-4.71 3.9,-4.71 2.76,0 5.39,2.81 5.39,6.68 0,3.62 -2.24,4.73 -3.93,4.73z"/>
   <path id="2" class="fil3" d="M655 1087.75c-0.83,-0.12 -1.59,-0.39 -1.59,-1.73l0 -8.65c0,-1.34 0.76,-1.61 1.59,-1.73 0.15,-0.01 0.04,-0.65 -0.12,-0.65l-5.24 0c-0.16,0 -0.27,0.64 -0.12,0.65 0.98,0.14 1.59,0.52 1.59,1.73l0 8.65c0,1.21 -0.61,1.59 -1.59,1.73 -0.15,0.02 -0.04,0.65 0.12,0.65l5.24 0c0.16,0 0.27,-0.63 0.12,-0.65zm8.14 0.17c-0.4,0 -1.07,-0.42 -2.32,-1.74l-4.94 -5.31 3.39 -3.48c1.21,-1.25 2.2,-1.63 3.05,-1.75 0.19,-0.01 0.07,-0.65 -0.08,-0.65l-4.41 0c-0.15,0 -0.24,0.62 -0.01,0.65 1.01,0.18 1.07,0.6 0.15,1.54l-4.33 4.44 5.42 5.86c1.17,1.26 2.87,1.4 4.08,0.99 0.11,-0.04 0.15,-0.55 0,-0.55z"/>
   <path id="3" class="fil3" d="M678.6 1087.75c-0.77,-0.12 -1.23,-0.42 -1.92,-2.05l-4.67 -10.9c-0.06,-0.13 -1.4,0.17 -1.4,0.29 0,0.73 -0.24,1.51 -0.98,3.2l-3.25 7.43c-0.7,1.63 -1.16,1.89 -1.95,2.03 -0.23,0.04 -0.17,0.65 0.06,0.65l4.14 0c0.25,0 0.3,-0.61 0.05,-0.65 -0.92,-0.14 -1.65,-0.39 -0.97,-2.03l0.19 -0.48c0.19,-0.46 0.52,-0.5 1.09,-0.5l3.92 0c0.58,0 0.9,0.04 1.1,0.5l0.21 0.48c0.71,1.64 -0.06,1.89 -0.77,2.03 -0.21,0.04 -0.19,0.65 0.05,0.65l5.06 0c0.23,0 0.3,-0.61 0.04,-0.65zm-5.82 -4.08l-3.63 0c-0.27,0 -0.56,-0.04 -0.45,-0.31l2.27 -5.36 2.25 5.36c0.11,0.27 -0.18,0.31 -0.44,0.31z"/>
   <path id="4" class="fil3" d="M684.15 1088.71c2.56,0 4.92,-1.75 4.92,-4.14 0,-1.38 -0.83,-2.24 -2.86,-3.51l-2.01 -1.24c-1.28,-0.79 -1.8,-1.27 -1.8,-2.13 0,-1.01 0.71,-1.7 2.07,-1.7 2.63,0 3.1,2.56 3.7,0.71l0.23 -0.73c0.21,-0.65 -1.65,-1.28 -3.1,-1.28 -2.38,0 -4.68,1.62 -4.68,3.98 0,1.44 0.84,2.24 2.91,3.54l1.86 1.17c1.36,0.84 1.94,1.23 1.94,2.13 0,1.11 -0.79,1.89 -2.4,1.89 -3.16,0 -3.79,-2.95 -4.33,-0.94l-0.19 0.71c-0.23,0.85 2.17,1.54 3.74,1.54z"/>
   <path id="5" class="fil3" d="M690.98 1088.4l5.25 0c0.15,0 0.27,-0.63 0.12,-0.65 -0.83,-0.12 -1.59,-0.39 -1.59,-1.73l0 -8.65c0,-1.34 0.76,-1.61 1.59,-1.73 0.15,-0.01 0.03,-0.65 -0.12,-0.65l-5.25 0c-0.15,0 -0.26,0.64 -0.11,0.65 0.97,0.14 1.59,0.52 1.59,1.73l0 8.65c0,1.21 -0.62,1.59 -1.59,1.73 -0.15,0.02 -0.04,0.65 0.11,0.65z"/>
   <g>
    <path class="fil1" d="M545.19 981.29c1.55,0 4.38,-2.7 4.38,-5.22l0 -14.68c0,-1.75 1,-2.1 2.1,-2.25 0.19,-0.02 0.04,-0.72 -0.15,-0.72l-6.33 0c-0.2,0 -0.35,0.7 -0.15,0.72 1.08,0.15 2.13,0.5 2.13,2.25l0 14.68c0,2.95 -1.25,4.35 -2.33,4.47 -0.2,0.03 0.1,0.75 0.35,0.75z"/>
    <path id="1" class="fil1" d="M571.92 975.14c-1,-0.15 -1.6,-0.55 -2.55,-2.75l-6.1 -14.22c-0.07,-0.18 -1.82,0.22 -1.82,0.37 0,0.95 -0.3,2.08 -1.27,4.28l-4.23 9.6c-0.95,2.17 -1.55,2.57 -2.6,2.72 -0.33,0.05 -0.25,0.78 0.07,0.78l5.21 0c0.32,0 0.37,-0.73 0.07,-0.78 -1.25,-0.2 -2.2,-0.47 -1.27,-2.72l0.4 -0.98c0.25,-0.57 0.82,-0.57 1.57,-0.57l5.25 0c0.85,0 1.42,0 1.65,0.57l0.42 0.98c0.93,2.2 -0.03,2.57 -0.97,2.72 -0.3,0.05 -0.25,0.78 0.07,0.78l6.05 0c0.3,0 0.4,-0.73 0.05,-0.78zm-7.17 -5.5l-5.32 0c-0.4,0 -0.8,-0.05 -0.65,-0.37l3.32 -7.88 3.3 7.88c0.15,0.32 -0.28,0.37 -0.65,0.37z"/>
    <path id="2" class="fil1" d="M573.64 975.97c2.32,-0.23 4.7,-0.15 7.03,-0.15 2.15,0 3.84,0.07 4.97,0.15 1.5,-0.05 2.53,-2.33 2.53,-3.78 0,-0.47 -0.58,-0.52 -0.78,-0.2 -0.62,1.1 -1.82,2.68 -6,2.68 -2.17,0 -2.88,-0.45 -2.88,-1.9l0 -11.38c0,-1.75 1.01,-2.1 2.08,-2.25 0.17,-0.02 0.05,-0.72 -0.15,-0.72l-6.35 0c-0.17,0 -0.32,0.7 -0.12,0.72 1.09,0.15 2.14,0.5 2.14,2.25l0 11.38c0,1.85 -1.14,2.07 -2.62,2.45 -0.2,0.05 -0.1,0.77 0.15,0.75z"/>
    <path id="3" class="fil1" d="M608.07 975.14c-1,-0.15 -1.6,-0.55 -2.55,-2.75l-6.1 -14.22c-0.07,-0.18 -1.82,0.22 -1.82,0.37 0,0.95 -0.3,2.08 -1.27,4.28l-4.23 9.6c-0.95,2.17 -1.55,2.57 -2.6,2.72 -0.33,0.05 -0.25,0.78 0.07,0.78l5.21 0c0.32,0 0.37,-0.73 0.07,-0.78 -1.25,-0.2 -2.2,-0.47 -1.27,-2.72l0.4 -0.98c0.25,-0.57 0.82,-0.57 1.57,-0.57l5.25 0c0.85,0 1.42,0 1.64,0.57l0.43 0.98c0.92,2.2 -0.03,2.57 -0.97,2.72 -0.3,0.05 -0.25,0.78 0.07,0.78l6.05 0c0.3,0 0.4,-0.73 0.05,-0.78zm-7.17 -5.5l-5.32 0c-0.4,0 -0.8,-0.05 -0.65,-0.37l3.32 -7.88 3.3 7.88c0.15,0.32 -0.28,0.37 -0.65,0.37z"/>
    <path id="4" class="fil1" d="M626.34 976.17c0.27,0 0.72,-0.1 0.6,-0.5 -0.25,-0.9 -0.3,-2.7 -0.3,-4.23l0 -10.02c0,-1.75 0.97,-1.98 2.1,-2.28 0.22,-0.05 0.07,-0.72 -0.15,-0.72l-5.45 0c-0.25,0 -0.35,0.67 -0.15,0.72 1.1,0.3 2.2,0.53 2.2,2.28l0 10.3 -11.83 -13.08c-0.17,-0.2 -0.35,-0.22 -0.62,-0.22l-1.73 0c-0.25,0 -0.4,0.27 -0.4,0.5 0,0.07 0.2,0.22 0.35,0.37 0.88,0.95 1.03,2.08 1.03,3.6l0 10c0,1.63 -0.88,1.98 -2.1,2.3 -0.2,0.05 -0.08,0.73 0.15,0.73l5.45 0c0.25,0 0.35,-0.68 0.15,-0.73 -1.23,-0.32 -2.2,-0.62 -2.2,-2.3l0 -10.4 12.07 13.2c0.26,0.28 0.43,0.48 0.83,0.48z"/>
    <path id="5" class="fil1" d="M649.99 963.72c0,-3.95 -3.15,-5.35 -6.83,-5.35 -1.27,0 -2.74,0.15 -4.37,0.15 -0.7,0 -1.82,-0.03 -2.83,-0.15 -0.22,-0.03 -0.34,0.67 -0.15,0.72 1.23,0.33 2.13,0.8 2.13,2.45l0 11.41c0,1.62 -0.9,2.07 -2.13,2.24 -0.19,0.03 -0.04,0.73 0.15,0.73l7.05 0c0.21,0 0.33,-0.7 0.15,-0.73 -1.69,-0.22 -2.82,-0.52 -2.82,-2.24l0 -3.8c5.48,0.82 9.65,-0.9 9.65,-5.43zm-7.3 -4.2c2.48,0 4.73,1.35 4.73,4.75 0,3.58 -2.55,4.43 -7.08,3.78l0 -6.51c0,-1.42 0.53,-2.02 2.35,-2.02z"/>
    <path id="6" class="fil1" d="M669.79 975.34c-0.68,0 -1.3,-0.25 -1.97,-1.1l-3.9 -4.87c-1.05,-1.33 -1.63,-1.68 -2.51,-1.68l0 -0.15c1.83,-0.12 4.33,-1.52 4.33,-4.55 0,-3.15 -2.68,-4.62 -6.15,-4.62 -1.13,0 -2.65,0.15 -4.28,0.15 -0.69,0 -1.82,-0.03 -2.82,-0.15 -0.22,-0.03 -0.35,0.67 -0.15,0.72 1.23,0.33 2.13,0.8 2.13,2.45l0 11.4c0,1.63 -0.9,2.08 -2.13,2.25 -0.2,0.03 -0.05,0.73 0.15,0.73l7.05 0c0.2,0 0.33,-0.7 0.15,-0.73 -1.7,-0.22 -2.82,-0.52 -2.82,-2.25l0 -4.92c1.87,0.02 3.3,0.3 4.29,1.6l3.96 5.02c1.29,1.7 3.34,1.95 4.67,1.4 0.17,-0.07 0.2,-0.7 0,-0.7zm-12.1 -8.37l-0.82 0 0 -5.43c0,-1.42 0.57,-2.02 2.12,-2.02 2.35,0 4.2,1.37 4.2,4.1 0,2.7 -1.75,3.35 -5.5,3.35z"/>
    <path id="7" class="fil1" d="M689.72 975.14c-1,-0.15 -1.6,-0.55 -2.55,-2.75l-6.1 -14.22c-0.07,-0.18 -1.82,0.22 -1.82,0.37 0,0.95 -0.3,2.08 -1.27,4.28l-4.23 9.6c-0.95,2.17 -1.55,2.57 -2.6,2.72 -0.33,0.05 -0.25,0.78 0.07,0.78l5.21 0c0.32,0 0.37,-0.73 0.07,-0.78 -1.25,-0.2 -2.2,-0.47 -1.27,-2.72l0.4 -0.98c0.25,-0.57 0.82,-0.57 1.57,-0.57l5.25 0c0.85,0 1.42,0 1.64,0.57l0.43 0.98c0.92,2.2 -0.03,2.57 -0.97,2.72 -0.3,0.05 -0.25,0.78 0.07,0.78l6.05 0c0.3,0 0.4,-0.73 0.05,-0.78zm-7.17 -5.5l-5.32 0c-0.4,0 -0.8,-0.05 -0.65,-0.37l3.32 -7.88 3.3 7.88c0.15,0.32 -0.28,0.37 -0.65,0.37z"/>
    <path id="8" class="fil1" d="M713.45 975.19c-1.1,-0.15 -2,-0.5 -2.1,-2.25l-0.73 -14.51c-0.02,-0.38 -0.8,-0.38 -1,-0.03l-6.83 13.87 -7.28 -13.87c-0.2,-0.35 -0.98,-0.35 -1,0l-0.73 14.54c-0.1,1.75 -1.05,2.13 -2.12,2.25 -0.2,0.03 -0.05,0.73 0.15,0.73l4.87 0c0.21,0 0.36,-0.7 0.15,-0.73 -0.95,-0.12 -1.74,-0.62 -1.67,-2.25l0.4 -9.16 6 11.46c0.15,0.3 0.35,0.45 0.68,0.45 0.35,0 0.72,-0.17 0.77,-0.45 0.08,-0.45 0.53,-1.62 0.95,-2.47l4.53 -9.16 0.45 9.33c0.08,1.7 -0.77,2.1 -1.65,2.25 -0.17,0.03 -0.02,0.73 0.15,0.73l5.86 0c0.2,0 0.35,-0.7 0.15,-0.73z"/>
    <path id="9" class="fil1" d="M723.89 976.32c3.9,0 6.85,-2.35 6.85,-6.93l0 -8c0,-1.75 1,-2.1 2.05,-2.25 0.2,-0.02 0.05,-0.72 -0.15,-0.72l-5.38 0c-0.2,0 -0.32,0.7 -0.15,0.72 1.23,0.18 2.18,0.6 2.18,2.25l0 8.15c0,3.58 -2.28,5.33 -5.2,5.33 -2.88,0 -4.98,-1.75 -4.98,-5.33l0 -8.15c0,-1.75 1,-2.1 2,-2.25 0.2,-0.02 0.05,-0.72 -0.15,-0.72l-6.27 0c-0.2,0 -0.35,0.7 -0.15,0.72 1.17,0.15 2.07,0.63 2.07,2.25l0 8.03c0,5.05 3.85,6.9 7.28,6.9z"/>
    <path id="10" class="fil1" d="M741.46 975.19c-1.07,-0.15 -2.07,-0.5 -2.07,-2.25l0 -11.55c0,-1.75 1,-2.1 2.07,-2.25 0.2,-0.02 0.05,-0.72 -0.15,-0.72l-6.3 0c-0.2,0 -0.35,0.7 -0.15,0.72 1.23,0.18 2.13,0.63 2.13,2.25l0 11.55c0,1.63 -0.9,2.08 -2.13,2.25 -0.2,0.03 -0.05,0.73 0.15,0.73l6.3 0c0.2,0 0.35,-0.7 0.15,-0.73zm10.26 0.15c-0.55,0 -1.42,-0.55 -2.94,-2.15l-6.61 -6.9 4.74 -4.75c1.69,-1.67 2.84,-2.27 3.98,-2.4 0.25,-0.02 0.1,-0.72 -0.1,-0.72l-5.41 0c-0.2,0 -0.33,0.67 -0.03,0.72 1.33,0.2 1.41,0.8 0.11,2.13l-5.77 5.77 7.24 7.68c1.42,1.48 3.47,1.86 4.79,1.31 0.17,-0.07 0.2,-0.69 0,-0.69z"/>
    <path id="11" class="fil1" d="M772.02 975.14c-1,-0.15 -1.6,-0.55 -2.55,-2.75l-6.1 -14.22c-0.07,-0.18 -1.82,0.22 -1.82,0.37 0,0.95 -0.3,2.08 -1.27,4.28l-4.23 9.6c-0.95,2.17 -1.55,2.57 -2.6,2.72 -0.33,0.05 -0.25,0.78 0.07,0.78l5.21 0c0.32,0 0.37,-0.73 0.07,-0.78 -1.25,-0.2 -2.2,-0.47 -1.27,-2.72l0.4 -0.98c0.25,-0.57 0.82,-0.57 1.57,-0.57l5.25 0c0.85,0 1.42,0 1.64,0.57l0.43 0.98c0.92,2.2 -0.03,2.57 -0.97,2.72 -0.3,0.05 -0.25,0.78 0.07,0.78l6.05 0c0.3,0 0.4,-0.73 0.05,-0.78zm-7.17 -5.5l-5.32 0c-0.4,0 -0.8,-0.05 -0.65,-0.37l3.32 -7.88 3.3 7.88c0.15,0.32 -0.28,0.37 -0.65,0.37z"/>
    <path class="fil1" d="M558.15 997.02c0,-2.63 -2.1,-3.56 -4.54,-3.56 -0.85,0 -1.83,0.1 -2.91,0.1 -0.47,0 -1.22,-0.02 -1.88,-0.1 -0.15,-0.02 -0.24,0.45 -0.1,0.48 0.81,0.22 1.41,0.53 1.41,1.63l0 7.59c0,1.08 -0.6,1.38 -1.41,1.49 -0.14,0.02 -0.04,0.48 0.1,0.48l4.69 0c0.13,0 0.21,-0.46 0.1,-0.48 -1.13,-0.15 -1.88,-0.35 -1.88,-1.49l0 -2.53c3.64,0.55 6.42,-0.6 6.42,-3.61zm-4.86 -2.79c1.65,0 3.14,0.89 3.14,3.16 0,2.38 -1.69,2.94 -4.7,2.51l0 -4.33c0,-0.95 0.35,-1.34 1.56,-1.34z"/>
    <path id="1" class="fil1" d="M565.86 1005.4c3.65,0 5.97,-2.79 5.97,-6.15 0,-3.45 -2.46,-6.02 -5.93,-6.02 -3.65,0 -6.01,2.79 -6.01,6.13 0,3.45 2.5,6.04 5.97,6.04zm0.59 -0.96c-2.57,0 -4.94,-2.42 -4.94,-5.91 0,-3.36 2.21,-4.34 3.79,-4.34 2.54,0 4.95,2.41 4.95,5.89 0,3.37 -2.24,4.36 -3.8,4.36z"/>
    <path id="2" class="fil1" d="M584.34 1005.3c0.18,0 0.48,-0.07 0.4,-0.33 -0.17,-0.6 -0.2,-1.8 -0.2,-2.81l0 -6.67c0,-1.17 0.65,-1.31 1.39,-1.51 0.15,-0.04 0.06,-0.49 -0.09,-0.49l-3.63 0c-0.17,0 -0.23,0.45 -0.1,0.49 0.73,0.2 1.46,0.34 1.46,1.51l0 6.85 -7.86 -8.7c-0.12,-0.13 -0.24,-0.15 -0.42,-0.15l-1.15 0c-0.16,0 -0.26,0.19 -0.26,0.34 0,0.05 0.13,0.15 0.23,0.25 0.58,0.63 0.68,1.38 0.68,2.39l0 6.65c0,1.08 -0.58,1.32 -1.39,1.53 -0.14,0.04 -0.05,0.48 0.1,0.48l3.62 0c0.17,0 0.23,-0.44 0.1,-0.48 -0.81,-0.21 -1.46,-0.41 -1.46,-1.53l0 -6.92 8.03 8.78c0.17,0.19 0.28,0.32 0.55,0.32z"/>
    <path id="3" class="fil1" d="M593.55 1005.4c3.64,0 5.97,-2.79 5.97,-6.15 0,-3.45 -2.46,-6.02 -5.94,-6.02 -3.64,0 -6,2.79 -6,6.13 0,3.45 2.5,6.04 5.97,6.04zm0.58 -0.96c-2.56,0 -4.94,-2.42 -4.94,-5.91 0,-3.36 2.22,-4.34 3.8,-4.34 2.54,0 4.95,2.41 4.95,5.89 0,3.37 -2.24,4.36 -3.81,4.36z"/>
    <path id="4" class="fil1" d="M612.77 1004.75c-0.44,0 -0.86,-0.16 -1.31,-0.73l-2.59 -3.24c-0.7,-0.88 -1.08,-1.12 -1.67,-1.12l0 -0.1c1.22,-0.08 2.88,-1.01 2.88,-3.02 0,-2.1 -1.78,-3.08 -4.09,-3.08 -0.75,0 -1.76,0.1 -2.84,0.1 -0.47,0 -1.22,-0.02 -1.88,-0.1 -0.15,-0.02 -0.24,0.45 -0.1,0.48 0.81,0.22 1.41,0.53 1.41,1.63l0 7.58c0,1.09 -0.6,1.39 -1.41,1.5 -0.14,0.02 -0.04,0.48 0.1,0.48l4.69 0c0.13,0 0.21,-0.46 0.1,-0.48 -1.13,-0.15 -1.88,-0.35 -1.88,-1.5l0 -3.27c1.24,0.02 2.19,0.2 2.86,1.06l2.62 3.35c0.87,1.12 2.23,1.29 3.11,0.92 0.12,-0.04 0.14,-0.46 0,-0.46zm-8.04 -5.57l-0.55 0 0 -3.61c0,-0.95 0.38,-1.34 1.41,-1.34 1.56,0 2.79,0.91 2.79,2.72 0,1.8 -1.16,2.23 -3.65,2.23z"/>
    <path id="5" class="fil1" d="M619.18 1005.4c3.64,0 5.97,-2.79 5.97,-6.15 0,-3.45 -2.46,-6.02 -5.94,-6.02 -3.64,0 -6,2.79 -6,6.13 0,3.45 2.49,6.04 5.97,6.04zm0.58 -0.96c-2.56,0 -4.94,-2.42 -4.94,-5.91 0,-3.36 2.21,-4.34 3.79,-4.34 2.55,0 4.96,2.41 4.96,5.89 0,3.37 -2.25,4.36 -3.81,4.36z"/>
    <path id="6" class="fil1" d="M634.19 1005.4c0.44,0 2.18,-0.76 3.18,-1.28 -0.32,-0.57 -0.32,-0.86 -0.32,-1.33l0 -0.6c0,-1.08 0.39,-1.43 0.93,-1.6 0.19,-0.05 0.42,-0.56 -0.03,-0.56l-3.96 0c-0.38,0 -0.51,0.53 -0.3,0.56 1.37,0.22 1.87,0.62 1.87,1.9l0 0.32c0,1.06 -0.67,1.66 -1.87,1.66 -2.22,0 -5.1,-1.8 -5.1,-5.79 0,-2.68 1.45,-4.27 4.02,-4.27 2.91,0 3.78,1.96 4.24,0.55l0.22 -0.64c0.17,-0.51 -1.36,-1.09 -3.33,-1.09 -4.55,0 -6.76,3.11 -6.76,6.35 0,3.94 3.22,5.82 7.21,5.82z"/>
    <path id="7" class="fil1" d="M645.93 1005.4c3.65,0 5.97,-2.79 5.97,-6.15 0,-3.45 -2.46,-6.02 -5.93,-6.02 -3.64,0 -6.01,2.79 -6.01,6.13 0,3.45 2.5,6.04 5.97,6.04zm0.59 -0.96c-2.57,0 -4.94,-2.42 -4.94,-5.91 0,-3.36 2.21,-4.34 3.79,-4.34 2.54,0 4.95,2.41 4.95,5.89 0,3.37 -2.24,4.36 -3.8,4.36z"/>
    <path id="8" class="fil1" d="M653.03 1007.58c1.27,-0.86 2.27,-2.33 2.27,-3.37 0,-0.42 -0.84,-1.17 -1.12,-1.17 -0.27,0 -1.16,0.73 -1.16,1.15 0,0.38 0.85,0.57 0.85,0.95 0,0.6 -0.67,1.71 -1.28,2.16 -0.12,0.1 0.28,0.4 0.44,0.28z"/>
    <path id="9" class="fil1" d="M660.23 1008.71c1.04,0 2.92,-1.8 2.92,-3.48l0 -9.76c0,-1.16 0.66,-1.39 1.39,-1.49 0.13,-0.02 0.04,-0.49 -0.1,-0.49l-4.21 0c-0.13,0 -0.23,0.47 -0.1,0.49 0.72,0.1 1.42,0.33 1.42,1.49l0 9.76c0,1.97 -0.83,2.9 -1.55,2.98 -0.13,0.02 0.07,0.5 0.23,0.5z"/>
    <path id="10" class="fil1" d="M678.01 1004.62c-0.66,-0.1 -1.06,-0.37 -1.69,-1.83l-4.06 -9.46c-0.05,-0.12 -1.21,0.15 -1.21,0.25 0,0.63 -0.2,1.38 -0.85,2.84l-2.81 6.39c-0.63,1.44 -1.03,1.71 -1.73,1.81 -0.22,0.03 -0.16,0.51 0.05,0.51l3.46 0c0.22,0 0.25,-0.48 0.05,-0.51 -0.83,-0.13 -1.46,-0.32 -0.85,-1.81l0.27 -0.65c0.17,-0.38 0.55,-0.38 1.05,-0.38l3.49 0c0.56,0 0.94,0 1.09,0.38l0.29 0.65c0.61,1.46 -0.02,1.71 -0.65,1.81 -0.2,0.03 -0.17,0.51 0.05,0.51l4.02 0c0.2,0 0.27,-0.48 0.03,-0.51zm-4.77 -3.66l-3.54 0c-0.26,0 -0.53,-0.03 -0.43,-0.25l2.21 -5.24 2.2 5.24c0.1,0.22 -0.19,0.25 -0.44,0.25z"/>
    <path id="11" class="fil1" d="M694.15 993.49l-3.45 0c-0.19,0 -0.24,0.49 -0.05,0.52 0.9,0.17 1.39,0.38 0.83,1.81l-2.84 7.27 -2.79 -7.27c-0.61,-1.56 0.04,-2.01 0.04,-2.21 0,-0.07 -0.04,-0.12 -0.2,-0.12l-2.8 0c-0.22,0 -0.25,0.47 -0.05,0.52 0.43,0.1 0.86,0.51 1.44,1.99 0.5,1.3 0.45,1.85 0.08,2.73l-1.79 4.41 -2.79 -7.32c-0.55,-1.45 0,-1.66 0.65,-1.79 0.21,-0.05 0.16,-0.54 -0.05,-0.54l-3.94 0c-0.22,0 -0.27,0.49 -0.05,0.52 0.65,0.1 1.16,0.33 1.74,1.83l3.73 9.54c0.05,0.12 1.23,-0.15 1.23,-0.25 0,-0.63 0.25,-1.58 0.76,-2.87l1.44 -3.63 2.63 6.75c0.05,0.12 1.21,-0.15 1.21,-0.25 0,-0.66 0.29,-1.58 0.8,-2.87l2.51 -6.44c0.6,-1.48 1.08,-1.73 1.76,-1.83 0.22,-0.03 0.17,-0.5 -0.05,-0.5z"/>
    <path id="12" class="fil1" d="M704.92 1004.62c-0.66,-0.1 -1.06,-0.37 -1.7,-1.83l-4.05 -9.46c-0.05,-0.12 -1.21,0.15 -1.21,0.25 0,0.63 -0.2,1.38 -0.85,2.84l-2.81 6.39c-0.63,1.44 -1.03,1.71 -1.73,1.81 -0.22,0.03 -0.17,0.51 0.05,0.51l3.46 0c0.22,0 0.25,-0.48 0.05,-0.51 -0.83,-0.13 -1.46,-0.32 -0.85,-1.81l0.27 -0.65c0.16,-0.38 0.55,-0.38 1.04,-0.38l3.49 0c0.57,0 0.95,0 1.1,0.38l0.28 0.65c0.62,1.46 -0.01,1.71 -0.64,1.81 -0.2,0.03 -0.17,0.51 0.05,0.51l4.02 0c0.2,0 0.26,-0.48 0.03,-0.51zm-4.77 -3.66l-3.54 0c-0.26,0 -0.53,-0.03 -0.43,-0.25l2.21 -5.24 2.19 5.24c0.1,0.22 -0.18,0.25 -0.43,0.25z"/>
    <path id="13" class="fil1" d="M711.94 1005.13l5.22 0c0.15,0 0.25,-0.44 0.11,-0.46 -1.09,-0.13 -1.89,-0.38 -1.89,-1.28l0 -8.4c0,-0.4 0.23,-0.53 0.63,-0.53l0.63 0c1.52,0 2.18,0.25 2.33,1.08 0.05,0.26 0.47,0.28 0.52,0 0.1,-0.65 0.25,-1.15 0.48,-1.91 0.08,-0.27 -0.2,-0.27 -0.48,-0.24 -0.57,0.07 -1.85,0.1 -4.89,0.1 -3.05,0 -3.93,-0.03 -4.49,-0.1 -0.29,-0.03 -0.49,-0.03 -0.52,0.24 -0.1,0.83 -0.23,1.24 -0.36,1.91 -0.05,0.25 0.43,0.28 0.56,0 0.42,-0.83 1.1,-1.08 2.83,-1.08l0.56 0c0.4,0 0.54,0.13 0.54,0.53l0 8.4c0,0.9 -0.79,1.15 -1.9,1.28 -0.13,0.02 -0.03,0.46 0.12,0.46z"/>
    <path id="14" class="fil1" d="M721.32 1005.13l4.19 0c0.13,0 0.23,-0.46 0.1,-0.48 -0.72,-0.1 -1.38,-0.33 -1.38,-1.5l0 -7.68c0,-1.16 0.66,-1.39 1.38,-1.49 0.13,-0.02 0.03,-0.49 -0.1,-0.49l-4.19 0c-0.14,0 -0.24,0.47 -0.1,0.49 0.81,0.11 1.41,0.41 1.41,1.49l0 7.68c0,1.09 -0.6,1.39 -1.41,1.5 -0.14,0.02 -0.04,0.48 0.1,0.48z"/>
    <path id="15" class="fil1" d="M741.56 1004.65c-0.73,-0.1 -1.33,-0.33 -1.4,-1.5l-0.48 -9.65c-0.02,-0.25 -0.53,-0.25 -0.67,-0.01l-4.54 9.22 -4.84 -9.22c-0.14,-0.24 -0.65,-0.24 -0.67,0l-0.48 9.66c-0.07,1.17 -0.7,1.42 -1.42,1.5 -0.13,0.02 -0.03,0.48 0.1,0.48l3.25 0c0.13,0 0.23,-0.46 0.1,-0.48 -0.63,-0.08 -1.17,-0.41 -1.12,-1.5l0.27 -6.09 3.99 7.63c0.1,0.2 0.24,0.29 0.45,0.29 0.24,0 0.49,-0.11 0.52,-0.29 0.05,-0.3 0.35,-1.09 0.63,-1.65l3.01 -6.09 0.3 6.2c0.05,1.14 -0.51,1.4 -1.09,1.5 -0.12,0.02 -0.02,0.48 0.1,0.48l3.89 0c0.13,0 0.23,-0.46 0.1,-0.48z"/>
    <path id="16" class="fil1" d="M748.51 1005.4c2.59,0 4.55,-1.56 4.55,-4.61l0 -5.32c0,-1.16 0.67,-1.39 1.37,-1.49 0.13,-0.02 0.03,-0.49 -0.1,-0.49l-3.58 0c-0.13,0 -0.22,0.47 -0.1,0.49 0.82,0.11 1.45,0.39 1.45,1.49l0 5.42c0,2.38 -1.52,3.55 -3.46,3.55 -1.91,0 -3.31,-1.17 -3.31,-3.55l0 -5.42c0,-1.16 0.66,-1.39 1.33,-1.49 0.13,-0.02 0.03,-0.49 -0.1,-0.49l-4.17 0c-0.14,0 -0.24,0.47 -0.1,0.49 0.78,0.1 1.38,0.41 1.38,1.49l0 5.34c0,3.36 2.56,4.59 4.84,4.59z"/>
    <path id="17" class="fil1" d="M767.41 1004.75c-0.45,0 -0.86,-0.16 -1.31,-0.73l-2.59 -3.24c-0.7,-0.88 -1.09,-1.12 -1.67,-1.12l0 -0.1c1.22,-0.08 2.88,-1.01 2.88,-3.02 0,-2.1 -1.78,-3.08 -4.09,-3.08 -0.75,0 -1.76,0.1 -2.84,0.1 -0.47,0 -1.22,-0.02 -1.88,-0.1 -0.15,-0.02 -0.24,0.45 -0.1,0.48 0.81,0.22 1.41,0.53 1.41,1.63l0 7.58c0,1.09 -0.6,1.39 -1.41,1.5 -0.14,0.02 -0.04,0.48 0.1,0.48l4.69 0c0.13,0 0.21,-0.46 0.1,-0.48 -1.13,-0.15 -1.88,-0.35 -1.88,-1.5l0 -3.27c1.24,0.02 2.19,0.2 2.86,1.06l2.62 3.35c0.87,1.12 2.23,1.29 3.11,0.92 0.12,-0.04 0.14,-0.46 0,-0.46zm-8.04 -5.57l-0.55 0 0 -3.61c0,-0.95 0.38,-1.34 1.41,-1.34 1.56,0 2.79,0.91 2.79,2.72 0,1.8 -1.16,2.23 -3.65,2.23z"/>
   </g>
   <rect class="fil4" x="634.29" y="1153.91" width="48.44" height="48.44" rx="10.16" ry="10.16"/>
   <g>
    <rect class="fil5" x="948.2" y="807.77" width="19.99" height="44.26" rx="9.99" ry="9.99"/>
    <g>
     <circle class="fil6" cx="958.2" cy="829.9" r="4.4"/>
     <circle class="fil7" cx="958.2" cy="816.95" r="4.4"/>
     <circle class="fil8" cx="958.2" cy="842.85" r="4.4"/>
    </g>
   </g>
   <g>
    <rect class="fil5" x="948.2" y="1213.91" width="19.99" height="44.26" rx="9.99" ry="9.99"/>
    <g>
     <circle class="fil6" cx="958.2" cy="1236.04" r="4.4"/>
     <circle class="fil7" cx="958.2" cy="1223.09" r="4.4"/>
     <circle class="fil8" cx="958.2" cy="1248.99" r="4.4"/>
    </g>
   </g>
   <path class="fil1" d="M651.96 835.8c-0.79,0 -1.51,-0.16 -2.16,-0.48 -0.66,-0.32 -1.2,-0.76 -1.61,-1.34l1.7 -1.22c0.19,0.33 0.46,0.59 0.82,0.78 0.36,0.18 0.78,0.27 1.25,0.27 0.81,0 1.43,-0.25 1.88,-0.75 0.44,-0.51 0.66,-1.21 0.66,-2.12l0 -10.08 2.08 0 0 10.09c0,1.02 -0.18,1.9 -0.54,2.62 -0.36,0.73 -0.88,1.29 -1.58,1.66 -0.69,0.38 -1.52,0.57 -2.5,0.57z"/>
   <path id="1" class="fil1" d="M660.24 820.86l2.08 0 0 14.79 -2.08 0 0 -14.79zm1.04 12.82l8.46 0 0 1.97 -8.46 0 0 -1.97z"/>
   <polygon id="2" class="fil1" points="671.67,833.57 673.75,833.57 673.75,835.65 671.67,835.65 "/>
   <path id="3" class="fil1" d="M681.68 833.73l4.01 0c1.05,0 1.82,-0.2 2.3,-0.6 0.48,-0.4 0.72,-0.97 0.72,-1.69l0 -0.03c0,-0.5 -0.09,-0.93 -0.26,-1.29 -0.17,-0.36 -0.45,-0.64 -0.82,-0.83 -0.37,-0.19 -0.85,-0.29 -1.43,-0.29l-4.52 0 0 -1.87 4.52 0c0.76,0 1.34,-0.18 1.73,-0.54 0.39,-0.36 0.59,-0.9 0.59,-1.6l0 0c0,-0.74 -0.22,-1.29 -0.66,-1.66 -0.43,-0.36 -1.08,-0.55 -1.95,-0.55l-4.23 0 0 -1.92 4.61 0c0.95,0 1.75,0.16 2.4,0.49 0.64,0.32 1.13,0.78 1.45,1.38 0.31,0.6 0.47,1.31 0.47,2.14l0 0c0,0.51 -0.1,0.98 -0.3,1.43 -0.19,0.44 -0.49,0.82 -0.89,1.13 -0.41,0.32 -0.91,0.53 -1.5,0.64 0.59,0.09 1.11,0.3 1.54,0.64 0.44,0.33 0.77,0.75 1,1.25 0.23,0.51 0.34,1.05 0.34,1.63l0 0.03c0,0.8 -0.17,1.51 -0.53,2.12 -0.35,0.61 -0.85,1.08 -1.51,1.41 -0.66,0.33 -1.42,0.5 -2.3,0.5l-4.78 0 0 -1.92zm-1.22 -12.87l2.06 0 0 14.79 -2.06 0 0 -14.79z"/>
   <path id="4" class="fil1" d="M697.94 820.86l1.76 0 5.46 14.79 -2.24 0 -4.1 -11.93 -4.1 11.93 -2.24 0 5.46 -14.79zm-2.94 9.57l7.78 0 0 1.97 -7.78 0 0 -1.97z"/>
   <path id="5" class="fil1" d="M709.14 822.07l2.07 0 0 13.58 -2.07 0 0 -13.58zm-4.19 -1.21l10.44 0 0 1.97 -10.44 0 0 -1.97z"/>
   <path id="6" class="fil1" d="M721.91 835.8c-1.03,0 -1.94,-0.22 -2.72,-0.67 -0.79,-0.46 -1.4,-1.09 -1.83,-1.92 -0.43,-0.82 -0.64,-1.77 -0.64,-2.86l0 -4.19c0,-1.09 0.21,-2.04 0.64,-2.86 0.43,-0.83 1.04,-1.47 1.83,-1.92 0.78,-0.45 1.69,-0.67 2.72,-0.67 1.03,0 1.94,0.22 2.73,0.67 0.79,0.45 1.4,1.09 1.83,1.92 0.43,0.82 0.64,1.77 0.64,2.86l0 4.19c0,1.09 -0.21,2.04 -0.64,2.86 -0.43,0.83 -1.04,1.46 -1.83,1.92 -0.79,0.45 -1.7,0.67 -2.73,0.67zm0 -2.04c0.61,0 1.15,-0.14 1.62,-0.42 0.46,-0.27 0.82,-0.66 1.07,-1.17 0.26,-0.5 0.38,-1.08 0.38,-1.75l0 -4.33c0,-0.67 -0.12,-1.25 -0.38,-1.76 -0.25,-0.5 -0.61,-0.89 -1.07,-1.17 -0.47,-0.27 -1.01,-0.41 -1.62,-0.41 -0.61,0 -1.14,0.14 -1.61,0.41 -0.47,0.28 -0.82,0.67 -1.08,1.17 -0.25,0.51 -0.38,1.09 -0.38,1.76l0 4.33c0,0.67 0.13,1.25 0.38,1.75 0.26,0.51 0.61,0.9 1.08,1.17 0.47,0.28 1,0.42 1.61,0.42z"/>
   <path id="7" class="fil1" d="M731.37 827.42l5.05 0c0.39,0 0.74,-0.09 1.05,-0.28 0.3,-0.19 0.54,-0.46 0.71,-0.81 0.16,-0.35 0.24,-0.75 0.24,-1.21l0 0c0,-0.45 -0.08,-0.86 -0.24,-1.2 -0.17,-0.35 -0.41,-0.62 -0.71,-0.81 -0.3,-0.19 -0.65,-0.29 -1.05,-0.29l-5.05 0 0 -1.97 4.97 0c0.85,0 1.6,0.17 2.25,0.53 0.65,0.35 1.15,0.85 1.5,1.5 0.36,0.65 0.54,1.4 0.54,2.24l0 0c0,0.85 -0.18,1.6 -0.54,2.25 -0.36,0.64 -0.86,1.14 -1.51,1.5 -0.65,0.35 -1.39,0.52 -2.24,0.52l-4.97 0 0 -1.97zm-0.9 -6.57l2.07 0 0 14.8 -2.07 0 0 -14.8zm4.93 8.08l2.07 -0.46 3.78 7.18 -2.46 0 -3.39 -6.72z"/>
   <path id="8" class="fil1" d="M748.94 835.8c-1.03,0 -1.94,-0.22 -2.73,-0.67 -0.78,-0.46 -1.39,-1.09 -1.82,-1.92 -0.43,-0.82 -0.64,-1.77 -0.64,-2.86l0 -4.19c0,-1.09 0.21,-2.04 0.64,-2.86 0.43,-0.83 1.04,-1.47 1.82,-1.92 0.79,-0.45 1.7,-0.67 2.73,-0.67 1.03,0 1.94,0.22 2.73,0.67 0.78,0.45 1.39,1.09 1.83,1.92 0.43,0.82 0.64,1.77 0.64,2.86l0 4.19c0,1.09 -0.21,2.04 -0.64,2.86 -0.44,0.83 -1.05,1.46 -1.83,1.92 -0.79,0.45 -1.7,0.67 -2.73,0.67zm0 -2.04c0.61,0 1.15,-0.14 1.61,-0.42 0.47,-0.27 0.83,-0.66 1.08,-1.17 0.26,-0.5 0.38,-1.08 0.38,-1.75l0 -4.33c0,-0.67 -0.12,-1.25 -0.38,-1.76 -0.25,-0.5 -0.61,-0.89 -1.08,-1.17 -0.46,-0.27 -1,-0.41 -1.61,-0.41 -0.61,0 -1.15,0.14 -1.61,0.41 -0.47,0.28 -0.82,0.67 -1.08,1.17 -0.25,0.51 -0.38,1.09 -0.38,1.76l0 4.33c0,0.67 0.13,1.25 0.38,1.75 0.26,0.51 0.61,0.9 1.08,1.17 0.46,0.28 1,0.42 1.61,0.42z"/>
   <path id="9" class="fil1" d="M762.68 829.16l6.53 -8.3 2.56 0 -9.39 11.41 0.3 -3.11zm-1.63 -8.3l2.08 0 0 14.79 -2.08 0 0 -14.79zm4.09 6.9l1.64 -1.52 5.61 9.41 -2.54 0 -4.71 -7.89z"/>
   <path id="10" class="fil1" d="M778.45 820.86l1.77 0 5.45 14.79 -2.24 0 -4.1 -11.93 -4.09 11.93 -2.24 0 5.45 -14.79zm-2.94 9.57l7.78 0 0 1.97 -7.78 0 0 -1.97z"/>
   <path id="11" class="fil1" d="M789.65 822.07l2.08 0 0 13.58 -2.08 0 0 -13.58zm-4.18 -1.21l10.44 0 0 1.97 -10.44 0 0 -1.97z"/>
   <path id="12" class="fil1" d="M802.43 835.8c-1.03,0 -1.94,-0.22 -2.73,-0.67 -0.78,-0.46 -1.39,-1.09 -1.82,-1.92 -0.43,-0.82 -0.65,-1.77 -0.65,-2.86l0 -4.19c0,-1.09 0.22,-2.04 0.65,-2.86 0.43,-0.83 1.04,-1.47 1.82,-1.92 0.79,-0.45 1.7,-0.67 2.73,-0.67 1.03,0 1.94,0.22 2.73,0.67 0.78,0.45 1.39,1.09 1.82,1.92 0.43,0.82 0.65,1.77 0.65,2.86l0 4.19c0,1.09 -0.22,2.04 -0.65,2.86 -0.43,0.83 -1.04,1.46 -1.82,1.92 -0.79,0.45 -1.7,0.67 -2.73,0.67zm0 -2.04c0.61,0 1.15,-0.14 1.61,-0.42 0.47,-0.27 0.82,-0.66 1.08,-1.17 0.25,-0.5 0.38,-1.08 0.38,-1.75l0 -4.33c0,-0.67 -0.13,-1.25 -0.38,-1.76 -0.26,-0.5 -0.61,-0.89 -1.08,-1.17 -0.46,-0.27 -1,-0.41 -1.61,-0.41 -0.61,0 -1.15,0.14 -1.61,0.41 -0.47,0.28 -0.83,0.67 -1.08,1.17 -0.26,0.51 -0.38,1.09 -0.38,1.76l0 4.33c0,0.67 0.12,1.25 0.38,1.75 0.25,0.51 0.61,0.9 1.08,1.17 0.46,0.28 1,0.42 1.61,0.42z"/>
   <polygon id="13" class="fil1" points="810.98,820.86 812.86,820.86 820.1,832.29 819.85,832.56 819.85,820.86 821.91,820.86 821.91,835.64 820.01,835.64 812.8,824.38 813.04,824.12 813.04,835.64 810.98,835.64 "/>
   <path id="14" class="fil1" d="M835.68 827.69l0 2.58c0,1.1 -0.21,2.06 -0.64,2.9 -0.43,0.84 -1.03,1.49 -1.81,1.95 -0.79,0.45 -1.7,0.68 -2.73,0.68 -1.04,0 -1.96,-0.21 -2.75,-0.64 -0.79,-0.43 -1.4,-1.04 -1.83,-1.83 -0.44,-0.79 -0.65,-1.7 -0.65,-2.73l0 -4.37c0,-1.1 0.21,-2.07 0.64,-2.9 0.42,-0.83 1.03,-1.48 1.81,-1.94 0.79,-0.45 1.69,-0.68 2.72,-0.68 0.85,0 1.63,0.18 2.35,0.54 0.71,0.36 1.31,0.88 1.79,1.54 0.49,0.67 0.81,1.44 0.98,2.31l0 0 -2.25 0 0 0c-0.12,-0.5 -0.33,-0.92 -0.62,-1.28 -0.29,-0.35 -0.63,-0.62 -1.03,-0.81 -0.39,-0.19 -0.8,-0.28 -1.22,-0.28 -0.61,0 -1.14,0.15 -1.6,0.44 -0.47,0.29 -0.82,0.7 -1.07,1.22 -0.25,0.53 -0.38,1.14 -0.38,1.84l0 4.37c0,0.63 0.13,1.19 0.39,1.67 0.25,0.48 0.62,0.85 1.09,1.11 0.47,0.27 1.02,0.4 1.63,0.4 0.61,0 1.15,-0.14 1.61,-0.41 0.46,-0.28 0.82,-0.68 1.07,-1.2 0.25,-0.52 0.38,-1.14 0.38,-1.86l0 -0.64 -3 0 0 -1.98 5.12 0z"/>
   <rect class="fil4" x="1003.03" y="1271.3" width="48.44" height="48.44" rx="10.16" ry="10.16"/>
   <rect class="fil4" x="1124.12" y="1155.68" width="48.44" height="48.44" rx="10.16" ry="10.16"/>
   <path class="fil1" d="M1057.73 1242.33c-0.79,0 -1.51,-0.16 -2.16,-0.48 -0.66,-0.32 -1.2,-0.76 -1.61,-1.34l1.7 -1.22c0.19,0.33 0.46,0.59 0.82,0.78 0.36,0.18 0.78,0.27 1.25,0.27 0.81,0 1.43,-0.25 1.88,-0.75 0.44,-0.51 0.66,-1.21 0.66,-2.12l0 -10.08 2.08 0 0 10.09c0,1.02 -0.18,1.9 -0.54,2.62 -0.36,0.73 -0.88,1.29 -1.58,1.66 -0.69,0.38 -1.52,0.57 -2.5,0.57z"/>
   <path id="1" class="fil1" d="M1066.01 1227.39l2.08 0 0 14.79 -2.08 0 0 -14.79zm1.04 12.82l8.46 0 0 1.97 -8.46 0 0 -1.97z"/>
   <polygon id="2" class="fil1" points="1077.44,1240.1 1079.52,1240.1 1079.52,1242.18 1077.44,1242.18 "/>
   <path id="3" class="fil1" d="M1087.45 1240.26l4.01 0c1.05,0 1.82,-0.2 2.3,-0.6 0.48,-0.4 0.72,-0.97 0.72,-1.69l0 -0.03c0,-0.5 -0.09,-0.93 -0.26,-1.29 -0.17,-0.36 -0.45,-0.64 -0.82,-0.83 -0.37,-0.19 -0.85,-0.29 -1.43,-0.29l-4.52 0 0 -1.87 4.52 0c0.76,0 1.34,-0.18 1.73,-0.54 0.39,-0.36 0.59,-0.89 0.59,-1.6l0 0c0,-0.74 -0.22,-1.29 -0.65,-1.66 -0.44,-0.36 -1.09,-0.55 -1.96,-0.55l-4.23 0 0 -1.92 4.61 0c0.95,0 1.76,0.16 2.4,0.49 0.64,0.33 1.13,0.78 1.45,1.38 0.31,0.6 0.47,1.31 0.47,2.14l0 0c0,0.51 -0.1,0.98 -0.29,1.43 -0.2,0.44 -0.5,0.82 -0.9,1.14 -0.41,0.31 -0.91,0.52 -1.5,0.63 0.59,0.09 1.11,0.3 1.54,0.64 0.44,0.33 0.77,0.75 1,1.25 0.23,0.51 0.35,1.05 0.35,1.63l0 0.03c0,0.8 -0.18,1.51 -0.54,2.12 -0.35,0.61 -0.85,1.08 -1.51,1.41 -0.66,0.33 -1.42,0.5 -2.3,0.5l-4.78 0 0 -1.92zm-1.22 -12.87l2.06 0 0 14.79 -2.06 0 0 -14.79z"/>
   <path id="4" class="fil1" d="M1104.66 1242.33c-1.09,0 -2.03,-0.21 -2.8,-0.64 -0.78,-0.43 -1.37,-1.06 -1.77,-1.88 -0.41,-0.83 -0.61,-1.82 -0.61,-2.98l0 -9.44 2.07 0 0 9.51c0,1.08 0.27,1.91 0.81,2.5 0.55,0.59 1.31,0.89 2.3,0.89 1,0 1.77,-0.3 2.32,-0.89 0.54,-0.59 0.82,-1.42 0.82,-2.5l0 -9.51 2.07 0 0 9.44c0,1.16 -0.2,2.15 -0.61,2.98 -0.41,0.82 -1,1.45 -1.78,1.88 -0.78,0.43 -1.72,0.64 -2.82,0.64z"/>
   <path id="5" class="fil1" d="M1114.74 1240.21l3.34 0c1.09,0 1.94,-0.29 2.54,-0.85 0.6,-0.57 0.9,-1.37 0.9,-2.4l0 -4.35c0,-1.03 -0.3,-1.83 -0.9,-2.4 -0.6,-0.56 -1.45,-0.85 -2.54,-0.85l-3.34 0 0 -1.97 3.28 0c1.19,0 2.2,0.21 3.04,0.62 0.84,0.41 1.48,1.02 1.92,1.81 0.45,0.79 0.67,1.75 0.67,2.87l0 4.19c0,1.12 -0.22,2.08 -0.67,2.87 -0.44,0.79 -1.08,1.4 -1.93,1.81 -0.84,0.41 -1.85,0.62 -3.04,0.62l-3.27 0 0 -1.97zm-1.41 -12.82l2.07 0 0 14.79 -2.07 0 0 -14.79z"/>
   <polygon id="6" class="fil1" points="1129.08,1242.18 1127,1242.18 1127,1227.39 1129.08,1227.39 "/>
   <path id="7" class="fil1" d="M1141.28 1242.33c-1.09,0 -2.02,-0.21 -2.8,-0.64 -0.78,-0.43 -1.37,-1.06 -1.77,-1.88 -0.41,-0.83 -0.61,-1.82 -0.61,-2.98l0 -9.44 2.07 0 0 9.51c0,1.08 0.27,1.91 0.81,2.5 0.55,0.59 1.31,0.89 2.3,0.89 1,0 1.77,-0.3 2.32,-0.89 0.54,-0.59 0.82,-1.42 0.82,-2.5l0 -9.51 2.07 0 0 9.44c0,1.16 -0.2,2.15 -0.61,2.98 -0.41,0.82 -1,1.45 -1.78,1.88 -0.78,0.43 -1.72,0.64 -2.82,0.64z"/>
   <path id="8" class="fil1" d="M1152.1 1228.6l2.07 0 0 13.58 -2.07 0 0 -13.58zm-4.18 -1.21l10.43 0 0 1.97 -10.43 0 0 -1.97z"/>
   <path id="9" class="fil1" d="M1164.88 1242.33c-1.04,0 -1.95,-0.22 -2.73,-0.67 -0.79,-0.45 -1.4,-1.09 -1.83,-1.92 -0.43,-0.82 -0.64,-1.77 -0.64,-2.86l0 -4.19c0,-1.09 0.21,-2.04 0.64,-2.86 0.43,-0.83 1.04,-1.47 1.83,-1.92 0.78,-0.45 1.69,-0.67 2.73,-0.67 1.02,0 1.93,0.22 2.72,0.67 0.79,0.45 1.4,1.09 1.83,1.92 0.43,0.82 0.64,1.77 0.64,2.86l0 4.19c0,1.09 -0.21,2.04 -0.64,2.86 -0.43,0.83 -1.04,1.47 -1.83,1.92 -0.79,0.45 -1.7,0.67 -2.72,0.67zm0 -2.04c0.6,0 1.14,-0.14 1.61,-0.41 0.46,-0.28 0.82,-0.67 1.07,-1.18 0.26,-0.5 0.39,-1.08 0.39,-1.75l0 -4.33c0,-0.67 -0.13,-1.25 -0.39,-1.76 -0.25,-0.5 -0.61,-0.89 -1.07,-1.17 -0.47,-0.27 -1.01,-0.41 -1.61,-0.41 -0.62,0 -1.15,0.14 -1.62,0.41 -0.46,0.28 -0.82,0.67 -1.08,1.17 -0.25,0.51 -0.38,1.09 -0.38,1.76l0 4.33c0,0.67 0.13,1.25 0.38,1.75 0.26,0.51 0.62,0.9 1.08,1.18 0.47,0.27 1,0.41 1.62,0.41z"/>
   <polygon id="10" class="fil1" points="1184.06,1227.39 1186,1227.39 1186,1242.18 1183.98,1242.18 1183.98,1231.1 1184.08,1231.75 1180.44,1240.13 1178.99,1240.13 1175.35,1231.96 1175.45,1231.1 1175.45,1242.18 1173.43,1242.18 1173.43,1227.39 1175.37,1227.39 1179.72,1237.16 "/>
   <path id="11" class="fil1" d="M1194.56 1242.33c-1.03,0 -1.94,-0.22 -2.73,-0.67 -0.78,-0.45 -1.39,-1.09 -1.82,-1.92 -0.43,-0.82 -0.65,-1.77 -0.65,-2.86l0 -4.19c0,-1.09 0.22,-2.04 0.65,-2.86 0.43,-0.83 1.04,-1.47 1.82,-1.92 0.79,-0.45 1.7,-0.67 2.73,-0.67 1.03,0 1.94,0.22 2.73,0.67 0.78,0.45 1.39,1.09 1.82,1.92 0.43,0.82 0.65,1.77 0.65,2.86l0 4.19c0,1.09 -0.22,2.04 -0.65,2.86 -0.43,0.83 -1.04,1.47 -1.82,1.92 -0.79,0.45 -1.7,0.67 -2.73,0.67zm0 -2.04c0.61,0 1.15,-0.14 1.61,-0.41 0.47,-0.28 0.82,-0.67 1.08,-1.18 0.25,-0.5 0.38,-1.08 0.38,-1.75l0 -4.33c0,-0.67 -0.13,-1.25 -0.38,-1.76 -0.26,-0.5 -0.61,-0.89 -1.08,-1.17 -0.46,-0.27 -1,-0.41 -1.61,-0.41 -0.61,0 -1.15,0.14 -1.61,0.41 -0.47,0.28 -0.83,0.67 -1.08,1.17 -0.26,0.51 -0.38,1.09 -0.38,1.76l0 4.33c0,0.67 0.12,1.25 0.38,1.75 0.25,0.51 0.61,0.9 1.08,1.18 0.46,0.27 1,0.41 1.61,0.41z"/>
   <g>
    <path class="fil9" d="M707.55 623.75l0 22.88c0,0.63 -0.21,1.11 -0.62,1.42 -0.41,0.32 -0.95,0.48 -1.62,0.48 -0.66,0 -1.22,-0.16 -1.65,-0.49 -0.43,-0.32 -0.65,-0.79 -0.65,-1.41l0 -22.88c0,-0.61 0.22,-1.09 0.65,-1.41 0.43,-0.33 0.99,-0.49 1.65,-0.49 0.67,0 1.21,0.17 1.62,0.5 0.41,0.32 0.62,0.79 0.62,1.4z"/>
    <path class="fil10" d="M710.57 604.11l-5.31 -3.87 -5.05 3.66c-0.19,0.14 -0.36,0.26 -0.51,0.38 -0.14,0.11 -0.3,0.21 -0.48,0.27 -0.17,0.07 -0.35,0.1 -0.52,0.1 -0.4,0 -0.74,-0.18 -1.04,-0.57 -0.29,-0.38 -0.43,-0.81 -0.43,-1.3 0,-0.77 0.48,-1.52 1.43,-2.26l4.83 -3.74c0.74,-0.58 1.34,-0.87 1.81,-0.87 0.36,0 0.92,0.29 1.68,0.87l4.69 3.58c0.64,0.49 1.08,0.91 1.31,1.27 0.24,0.36 0.36,0.75 0.36,1.16 0,0.54 -0.15,0.99 -0.45,1.36 -0.29,0.37 -0.65,0.55 -1.08,0.55 -0.39,0 -0.81,-0.2 -1.24,-0.59z"/>
    <path class="fil9" d="M684.04 621.49l42.48 0c1.16,0 2.05,0.21 2.64,0.62 0.59,0.42 0.89,0.96 0.89,1.63 0,0.66 -0.3,1.21 -0.91,1.64 -0.6,0.44 -1.47,0.66 -2.62,0.66l-42.48 0c-1.14,0 -2.02,-0.22 -2.62,-0.66 -0.61,-0.43 -0.9,-0.98 -0.9,-1.64 0,-0.67 0.3,-1.21 0.91,-1.63 0.61,-0.41 1.48,-0.62 2.61,-0.62z"/>
    <path class="fil9" d="M724.59 629.05l3.87 -5.3 -3.67 -5.06c-0.13,-0.19 -0.25,-0.36 -0.37,-0.51 -0.11,-0.14 -0.21,-0.3 -0.27,-0.47 -0.07,-0.18 -0.11,-0.36 -0.11,-0.53 0,-0.39 0.19,-0.74 0.57,-1.03 0.38,-0.3 0.81,-0.44 1.31,-0.44 0.77,0 1.52,0.48 2.25,1.44l3.75 4.83c0.58,0.73 0.87,1.34 0.87,1.8 0,0.36 -0.29,0.92 -0.87,1.68l-3.59 4.7c-0.48,0.64 -0.91,1.07 -1.27,1.31 -0.36,0.23 -0.74,0.35 -1.15,0.35 -0.54,0 -0.99,-0.15 -1.36,-0.45 -0.37,-0.29 -0.55,-0.65 -0.55,-1.07 0,-0.4 0.2,-0.81 0.59,-1.25z"/>
    <path class="fil9" d="M700 643.31l5.3 3.87 5.06 -3.67c0.18,-0.13 0.35,-0.25 0.5,-0.37 0.15,-0.11 0.31,-0.21 0.48,-0.27 0.17,-0.07 0.35,-0.11 0.53,-0.11 0.39,0 0.74,0.19 1.03,0.57 0.29,0.38 0.44,0.82 0.44,1.31 0,0.77 -0.48,1.52 -1.44,2.25l-4.83 3.75c-0.74,0.58 -1.34,0.87 -1.81,0.87 -0.35,0 -0.92,-0.29 -1.68,-0.87l-4.69 -3.59c-0.64,-0.48 -1.08,-0.91 -1.31,-1.27 -0.23,-0.36 -0.35,-0.74 -0.35,-1.15 0,-0.54 0.15,-0.99 0.45,-1.36 0.29,-0.37 0.65,-0.55 1.07,-0.55 0.4,0 0.81,0.2 1.25,0.59z"/>
    <path class="fil9" d="M685.49 618.48l-3.87 5.3 3.66 5.06c0.14,0.19 0.26,0.35 0.38,0.5 0.11,0.15 0.21,0.31 0.27,0.48 0.07,0.18 0.1,0.36 0.1,0.53 0,0.39 -0.18,0.74 -0.56,1.03 -0.39,0.3 -0.82,0.44 -1.31,0.44 -0.77,0 -1.52,-0.48 -2.26,-1.44l-3.74 -4.83c-0.58,-0.73 -0.87,-1.34 -0.87,-1.8 0,-0.36 0.29,-0.92 0.87,-1.68l3.58 -4.7c0.49,-0.64 0.91,-1.07 1.27,-1.31 0.36,-0.23 0.75,-0.35 1.16,-0.35 0.54,0 0.99,0.15 1.36,0.45 0.37,0.29 0.55,0.65 0.55,1.07 0,0.4 -0.2,0.81 -0.59,1.25z"/>
    <path class="fil10" d="M705.6 562.37c9.75,0 17.13,-5.88 17.13,-17.32l0 -20.01c0,-4.37 2.5,-5.25 5.13,-5.62 0.5,-0.06 0.12,-1.81 -0.38,-1.81l-13.44 0c-0.5,0 -0.81,1.75 -0.37,1.81 3.06,0.44 5.43,1.5 5.43,5.62l0 20.39c0,8.94 -5.68,13.31 -13,13.31 -7.19,0 -12.44,-4.37 -12.44,-13.31l0 -20.39c0,-4.37 2.5,-5.25 5,-5.62 0.5,-0.06 0.13,-1.81 -0.37,-1.81l-15.69 0c-0.5,0 -0.88,1.75 -0.38,1.81 2.94,0.37 5.19,1.56 5.19,5.62l0 20.07c0,12.63 9.63,17.26 18.19,17.26z"/>
    <path class="fil9" d="M703.32 731.75c8.38,0 16,-5.94 16,-13.51 0,-4.25 -2.43,-7.12 -8.75,-10.81l-7.62 -4.57c-4.26,-2.5 -5.88,-4.12 -5.88,-6.87 0,-3.44 2.5,-6.07 7.44,-6.07 8.56,0 10.25,7.82 11.88,2.5l0.75 -2.31c0.62,-2.12 -5.19,-4.13 -10.07,-4.13 -8,0 -14.94,5.44 -14.94,12.7 0,4.18 2.38,7 8.56,10.75l7.44 4.38c3.88,2.25 6.38,3.68 6.38,7.12 0,4.07 -3.25,6.75 -8.82,6.75 -10.31,0 -12.06,-8.94 -13.69,-3.06l-0.56 2.13c-0.69,2.62 6.69,5 11.88,5z"/>
    <g>
     <path class="fil9" d="M626.82 621.77l0 -0.31c3.75,-0.75 7.81,-4.07 7.75,-9.38 0,-6.94 -6.75,-10.38 -15.01,-10.38 -2.81,0 -6.56,0.38 -10.69,0.38 -1.75,0 -4.56,-0.07 -7.19,-0.38 -0.5,-0.06 -0.81,1.75 -0.31,1.88 2.75,0.62 5.38,1.75 5.38,6l0 28.13c0,4.63 -2.88,5.19 -6.57,6.13 -0.5,0.12 -0.25,1.94 0.38,1.87 2.94,-0.31 6,-0.37 9.19,-0.37 3.94,0 7.88,0.37 10.88,0.37 10.81,0 17.37,-5.12 17.37,-12.62 0,-7.01 -5.56,-11.32 -11.18,-11.32zm-8.88 -17.19c5.25,0 10.44,2.12 10.44,8.75 0,5.63 -3.69,7.5 -8.82,7.5l-6.81 0 0 -11.25c0,-3.75 1.19,-5 5.19,-5zm3 38.26c-6.19,0 -8.19,-1.63 -8.19,-5.13l0 -14.06 6.81 0c6.19,0 11.88,2.37 11.88,10.56 0,6.57 -3.69,8.63 -10.5,8.63z"/>
     <path class="fil9" d="M785.29 645.84l19.63 0c0.56,0 0.93,-1.69 0.43,-1.75 -4.12,-0.5 -7.12,-1.44 -7.12,-4.81l0 -31.58c0,-1.5 0.87,-2 2.37,-2l2.38 0c5.69,0 8.19,0.94 8.75,4.07 0.19,1 1.75,1.06 1.94,0 0.37,-2.44 0.94,-4.32 1.81,-7.19 0.31,-1 -0.75,-1 -1.81,-0.88 -2.13,0.25 -6.94,0.38 -18.38,0.38 -11.44,0 -14.76,-0.13 -16.88,-0.38 -1.06,-0.12 -1.81,-0.12 -1.94,0.88 -0.37,3.12 -0.87,4.69 -1.37,7.19 -0.19,0.94 1.62,1.06 2.12,0 1.56,-3.13 4.13,-4.07 10.63,-4.07l2.12 0c1.5,0 2.01,0.5 2.01,2l0 31.58c0,3.37 -2.94,4.31 -7.13,4.81 -0.5,0.06 -0.13,1.75 0.44,1.75z"/>
    </g>
    <path class="fil10" d="M707.55 600.92l0 23.19c0,0.63 -0.21,1.12 -0.62,1.44 -0.41,0.32 -0.95,0.49 -1.62,0.49 -0.66,0 -1.22,-0.17 -1.65,-0.5 -0.43,-0.33 -0.65,-0.81 -0.65,-1.43l0 -23.19c0,-0.62 0.22,-1.1 0.65,-1.43 0.43,-0.33 0.99,-0.49 1.65,-0.49 0.67,0 1.21,0.17 1.62,0.5 0.41,0.33 0.62,0.8 0.62,1.42z"/>
   </g>
   <polygon class="fil1" points="467.81,1305.46 466.15,1305.46 466.15,1293.63 467.81,1293.63 "/>
   <path id="1" class="fil1" d="M473.96 1293.63l1.41 0 4.37 11.83 -1.79 0 -3.28 -9.54 -3.28 9.54 -1.79 0 4.36 -11.83zm-2.35 7.66l6.22 0 0 1.58 -6.22 0 0 -1.58z"/>
   <polygon id="2" class="fil1" points="483.19,1305.46 481.53,1305.46 481.53,1293.63 483.19,1293.63 "/>
   <polygon id="3" class="fil1" points="486.12,1293.63 487.62,1293.63 493.41,1302.78 493.21,1302.99 493.21,1293.63 494.86,1293.63 494.86,1305.45 493.34,1305.45 487.57,1296.45 487.76,1296.24 487.76,1305.45 486.12,1305.45 "/>
   <path id="4" class="fil1" d="M501.49 1299.29l3.78 0c0.36,0 0.67,-0.08 0.95,-0.25 0.27,-0.17 0.48,-0.4 0.63,-0.71 0.15,-0.31 0.22,-0.67 0.22,-1.07l0 0c0,-0.41 -0.07,-0.77 -0.22,-1.07 -0.15,-0.31 -0.36,-0.55 -0.63,-0.72 -0.28,-0.18 -0.59,-0.26 -0.95,-0.26l-3.78 0 0 -1.58 3.73 0c0.7,0 1.32,0.15 1.86,0.45 0.54,0.3 0.95,0.73 1.25,1.28 0.29,0.54 0.44,1.18 0.44,1.9l0 0c0,0.72 -0.15,1.36 -0.44,1.9 -0.3,0.55 -0.71,0.97 -1.25,1.26 -0.54,0.3 -1.16,0.45 -1.86,0.45l-3.73 0 0 -1.58zm-0.86 -5.66l1.66 0 0 11.83 -1.66 0 0 -11.83z"/>
   <path id="5" class="fil1" d="M514.76 1305.58c-0.82,0 -1.55,-0.17 -2.18,-0.54 -0.63,-0.36 -1.11,-0.87 -1.46,-1.53 -0.34,-0.65 -0.52,-1.42 -0.52,-2.29l0 -3.35c0,-0.87 0.18,-1.63 0.52,-2.29 0.35,-0.66 0.83,-1.17 1.46,-1.53 0.63,-0.36 1.36,-0.54 2.18,-0.54 0.83,0 1.55,0.18 2.18,0.54 0.63,0.36 1.12,0.87 1.46,1.53 0.35,0.66 0.52,1.42 0.52,2.29l0 3.35c0,0.87 -0.17,1.64 -0.52,2.29 -0.34,0.66 -0.83,1.17 -1.46,1.53 -0.63,0.37 -1.35,0.54 -2.18,0.54zm0 -1.63c0.49,0 0.92,-0.11 1.29,-0.33 0.37,-0.22 0.66,-0.53 0.86,-0.94 0.21,-0.4 0.31,-0.87 0.31,-1.4l0 -3.47c0,-0.53 -0.1,-1 -0.31,-1.4 -0.2,-0.41 -0.49,-0.72 -0.86,-0.94 -0.37,-0.21 -0.8,-0.33 -1.29,-0.33 -0.49,0 -0.92,0.12 -1.29,0.33 -0.37,0.22 -0.66,0.53 -0.86,0.94 -0.21,0.4 -0.31,0.87 -0.31,1.4l0 3.47c0,0.53 0.1,1 0.31,1.4 0.2,0.41 0.49,0.72 0.86,0.94 0.37,0.22 0.8,0.33 1.29,0.33z"/>
   <polygon id="6" class="fil1" points="521.6,1293.63 523.11,1293.63 528.9,1302.78 528.7,1302.99 528.7,1293.63 530.35,1293.63 530.35,1305.45 528.82,1305.45 523.05,1296.45 523.25,1296.24 523.25,1305.45 521.6,1305.45 "/>
   <path id="7" class="fil1" d="M537.19 1305.58c-0.82,0 -1.55,-0.17 -2.18,-0.54 -0.63,-0.36 -1.12,-0.87 -1.46,-1.53 -0.35,-0.65 -0.52,-1.42 -0.52,-2.29l0 -3.35c0,-0.87 0.17,-1.63 0.52,-2.29 0.34,-0.66 0.83,-1.17 1.46,-1.53 0.63,-0.36 1.36,-0.54 2.18,-0.54 0.82,0 1.55,0.18 2.18,0.54 0.63,0.36 1.12,0.87 1.46,1.53 0.35,0.66 0.52,1.42 0.52,2.29l0 3.35c0,0.87 -0.17,1.64 -0.52,2.29 -0.34,0.66 -0.83,1.17 -1.46,1.53 -0.63,0.37 -1.36,0.54 -2.18,0.54zm0 -1.63c0.49,0 0.92,-0.11 1.29,-0.33 0.37,-0.22 0.66,-0.53 0.86,-0.94 0.21,-0.4 0.31,-0.87 0.31,-1.4l0 -3.47c0,-0.53 -0.1,-1 -0.31,-1.4 -0.2,-0.41 -0.49,-0.72 -0.86,-0.94 -0.37,-0.21 -0.8,-0.33 -1.29,-0.33 -0.49,0 -0.92,0.12 -1.29,0.33 -0.37,0.22 -0.66,0.53 -0.86,0.94 -0.21,0.4 -0.31,0.87 -0.31,1.4l0 3.47c0,0.53 0.1,1 0.31,1.4 0.2,0.41 0.49,0.72 0.86,0.94 0.37,0.22 0.8,0.33 1.29,0.33z"/>
   <path id="8" class="fil1" d="M544.76 1298.88l4.03 0c0.32,0 0.6,-0.07 0.84,-0.23 0.25,-0.15 0.44,-0.36 0.57,-0.65 0.13,-0.28 0.2,-0.6 0.2,-0.96l0 0c0,-0.36 -0.07,-0.69 -0.2,-0.96 -0.13,-0.28 -0.32,-0.5 -0.57,-0.65 -0.23,-0.15 -0.52,-0.23 -0.84,-0.23l-4.03 0 0 -1.58 3.97 0c0.68,0 1.28,0.14 1.8,0.43 0.52,0.28 0.92,0.68 1.2,1.2 0.29,0.51 0.43,1.11 0.43,1.79l0 0c0,0.68 -0.14,1.28 -0.43,1.8 -0.29,0.51 -0.69,0.91 -1.21,1.2 -0.52,0.28 -1.11,0.42 -1.79,0.42l-3.97 0 0 -1.58zm-0.73 -5.26l1.66 0 0 11.84 -1.66 0 0 -11.84zm3.95 6.47l1.65 -0.37 3.03 5.74 -1.97 0 -2.71 -5.37z"/>
   <path id="9" class="fil1" d="M558.81 1305.58c-0.82,0 -1.55,-0.17 -2.18,-0.54 -0.63,-0.36 -1.11,-0.87 -1.46,-1.53 -0.34,-0.65 -0.52,-1.42 -0.52,-2.29l0 -3.35c0,-0.87 0.18,-1.63 0.52,-2.29 0.35,-0.66 0.83,-1.17 1.46,-1.53 0.63,-0.36 1.36,-0.54 2.18,-0.54 0.83,0 1.55,0.18 2.18,0.54 0.63,0.36 1.12,0.87 1.46,1.53 0.35,0.66 0.52,1.42 0.52,2.29l0 3.35c0,0.87 -0.17,1.64 -0.52,2.29 -0.34,0.66 -0.83,1.17 -1.46,1.53 -0.63,0.37 -1.35,0.54 -2.18,0.54zm0 -1.63c0.49,0 0.92,-0.11 1.29,-0.33 0.37,-0.22 0.66,-0.53 0.86,-0.94 0.21,-0.4 0.31,-0.87 0.31,-1.4l0 -3.47c0,-0.53 -0.1,-1 -0.31,-1.4 -0.2,-0.41 -0.49,-0.72 -0.86,-0.94 -0.37,-0.21 -0.8,-0.33 -1.29,-0.33 -0.49,0 -0.92,0.12 -1.29,0.33 -0.37,0.22 -0.66,0.53 -0.86,0.94 -0.21,0.4 -0.31,0.87 -0.31,1.4l0 3.47c0,0.53 0.1,1 0.31,1.4 0.2,0.41 0.49,0.72 0.86,0.94 0.37,0.22 0.8,0.33 1.29,0.33z"/>
   <path id="10" class="fil1" d="M573.75 1299.09l0 2.07c0,0.88 -0.18,1.65 -0.52,2.32 -0.34,0.67 -0.82,1.19 -1.45,1.56 -0.63,0.36 -1.35,0.54 -2.18,0.54 -0.84,0 -1.57,-0.17 -2.2,-0.51 -0.63,-0.35 -1.12,-0.83 -1.47,-1.46 -0.34,-0.63 -0.52,-1.36 -0.52,-2.19l0 -3.49c0,-0.88 0.17,-1.66 0.51,-2.32 0.35,-0.67 0.83,-1.19 1.46,-1.55 0.62,-0.37 1.35,-0.55 2.17,-0.55 0.68,0 1.31,0.14 1.88,0.43 0.57,0.29 1.05,0.7 1.44,1.24 0.38,0.53 0.64,1.14 0.78,1.84l0 0 -1.8 0 0 0c-0.1,-0.39 -0.26,-0.73 -0.5,-1.02 -0.23,-0.28 -0.51,-0.5 -0.82,-0.65 -0.31,-0.15 -0.64,-0.22 -0.98,-0.22 -0.49,0 -0.91,0.11 -1.28,0.35 -0.37,0.23 -0.66,0.56 -0.86,0.98 -0.2,0.42 -0.3,0.91 -0.3,1.47l0 3.49c0,0.51 0.11,0.95 0.31,1.34 0.21,0.38 0.5,0.68 0.88,0.89 0.37,0.21 0.81,0.32 1.3,0.32 0.49,0 0.92,-0.12 1.29,-0.34 0.37,-0.21 0.65,-0.53 0.85,-0.95 0.2,-0.42 0.3,-0.91 0.3,-1.49l0 -0.51 -2.4 0 0 -1.59 4.11 0z"/>
   <path id="11" class="fil1" d="M580.35 1305.58c-0.83,0 -1.56,-0.17 -2.19,-0.54 -0.63,-0.36 -1.11,-0.87 -1.46,-1.53 -0.34,-0.65 -0.51,-1.42 -0.51,-2.29l0 -3.35c0,-0.87 0.17,-1.63 0.51,-2.29 0.35,-0.66 0.83,-1.17 1.46,-1.53 0.63,-0.36 1.36,-0.54 2.19,-0.54 0.82,0 1.55,0.18 2.18,0.54 0.62,0.36 1.11,0.87 1.46,1.53 0.34,0.66 0.51,1.42 0.51,2.29l0 3.35c0,0.87 -0.17,1.64 -0.51,2.29 -0.35,0.66 -0.84,1.17 -1.46,1.53 -0.63,0.37 -1.36,0.54 -2.18,0.54zm0 -1.63c0.48,0 0.91,-0.11 1.29,-0.33 0.37,-0.22 0.65,-0.53 0.86,-0.94 0.2,-0.4 0.3,-0.87 0.3,-1.4l0 -3.47c0,-0.53 -0.1,-1 -0.3,-1.4 -0.21,-0.41 -0.49,-0.72 -0.86,-0.94 -0.38,-0.21 -0.81,-0.33 -1.29,-0.33 -0.49,0 -0.92,0.12 -1.3,0.33 -0.37,0.22 -0.65,0.53 -0.86,0.94 -0.2,0.4 -0.3,0.87 -0.3,1.4l0 3.47c0,0.53 0.1,1 0.3,1.4 0.21,0.41 0.49,0.72 0.86,0.94 0.38,0.22 0.81,0.33 1.3,0.33z"/>
   <rect class="fil4" x="599.6" y="1269.13" width="48.44" height="48.44" rx="10.16" ry="10.16"/>
   <path class="fil1" d="M763.79 1316.09l3.78 0c0.36,0 0.67,-0.09 0.95,-0.26 0.27,-0.16 0.47,-0.4 0.62,-0.71 0.15,-0.31 0.23,-0.67 0.23,-1.07l0 0c0,-0.41 -0.08,-0.76 -0.23,-1.07 -0.15,-0.31 -0.35,-0.55 -0.62,-0.72 -0.28,-0.17 -0.59,-0.26 -0.95,-0.26l-3.78 0 0 -1.58 3.72 0c0.71,0 1.33,0.15 1.87,0.46 0.53,0.3 0.95,0.72 1.25,1.27 0.29,0.55 0.44,1.18 0.44,1.9l0 0c0,0.73 -0.15,1.36 -0.44,1.9 -0.3,0.55 -0.72,0.97 -1.25,1.27 -0.54,0.3 -1.16,0.45 -1.87,0.45l-3.72 0 0 -1.58zm-0.86 -5.67l1.66 0 0 11.84 -1.66 0 0 -11.84z"/>
   <path id="1" class="fil1" d="M773.31 1310.42l1.66 0 0 11.84 -1.66 0 0 -11.84zm0.8 10.26l6.8 0 0 1.58 -6.8 0 0 -1.58zm0 -5.09l5.9 0 0 1.58 -5.9 0 0 -1.58zm0 -5.17l6.8 0 0 1.58 -6.8 0 0 -1.58z"/>
   <path id="2" class="fil1" d="M783.99 1315.67l4.04 0c0.32,0 0.59,-0.07 0.84,-0.23 0.24,-0.15 0.43,-0.36 0.56,-0.64 0.13,-0.28 0.2,-0.6 0.2,-0.97l0 0c0,-0.36 -0.07,-0.68 -0.2,-0.96 -0.13,-0.28 -0.32,-0.5 -0.56,-0.65 -0.24,-0.15 -0.52,-0.23 -0.84,-0.23l-4.04 0 0 -1.58 3.97 0c0.69,0 1.29,0.15 1.81,0.43 0.51,0.28 0.92,0.68 1.2,1.2 0.29,0.52 0.43,1.12 0.43,1.79l0 0c0,0.68 -0.15,1.28 -0.43,1.8 -0.29,0.51 -0.69,0.92 -1.21,1.2 -0.52,0.28 -1.12,0.42 -1.8,0.42l-3.97 0 0 -1.58zm-0.72 -5.26l1.66 0 0 11.85 -1.66 0 0 -11.85zm3.94 6.47l1.66 -0.37 3.02 5.75 -1.96 0 -2.72 -5.38z"/>
   <path id="3" class="fil1" d="M794.99 1316.09l3.78 0c0.36,0 0.67,-0.09 0.94,-0.26 0.28,-0.16 0.48,-0.4 0.63,-0.71 0.15,-0.31 0.23,-0.67 0.23,-1.07l0 0c0,-0.41 -0.08,-0.76 -0.23,-1.07 -0.15,-0.31 -0.35,-0.55 -0.63,-0.72 -0.27,-0.17 -0.58,-0.26 -0.94,-0.26l-3.78 0 0 -1.58 3.72 0c0.71,0 1.33,0.15 1.87,0.46 0.53,0.3 0.95,0.72 1.25,1.27 0.29,0.55 0.44,1.18 0.44,1.9l0 0c0,0.73 -0.15,1.36 -0.44,1.9 -0.3,0.55 -0.72,0.97 -1.25,1.27 -0.54,0.3 -1.16,0.45 -1.87,0.45l-3.72 0 0 -1.58zm-0.86 -5.67l1.66 0 0 11.84 -1.66 0 0 -11.84z"/>
   <path id="4" class="fil1" d="M808.33 1322.38c-0.87,0 -1.62,-0.17 -2.24,-0.52 -0.62,-0.34 -1.09,-0.85 -1.42,-1.5 -0.33,-0.66 -0.49,-1.46 -0.49,-2.38l0 -7.56 1.66 0 0 7.61c0,0.86 0.22,1.53 0.66,2 0.43,0.48 1.04,0.71 1.83,0.71 0.8,0 1.42,-0.23 1.85,-0.71 0.44,-0.47 0.66,-1.14 0.66,-2l0 -7.61 1.66 0 0 7.56c0,0.92 -0.16,1.72 -0.49,2.38 -0.32,0.65 -0.8,1.16 -1.42,1.5 -0.63,0.35 -1.38,0.52 -2.26,0.52z"/>
   <path id="5" class="fil1" d="M818.82 1322.38c-0.56,0 -1.11,-0.06 -1.61,-0.17 -0.52,-0.1 -0.99,-0.26 -1.43,-0.48 -0.45,-0.22 -0.86,-0.49 -1.24,-0.82l0 0 1.03 -1.27 0 0c0.45,0.39 0.95,0.69 1.49,0.88 0.54,0.2 1.13,0.29 1.76,0.29 0.86,0 1.52,-0.15 2,-0.47 0.47,-0.32 0.7,-0.77 0.7,-1.35l0 -0.01c0,-0.41 -0.1,-0.74 -0.31,-0.98 -0.22,-0.24 -0.5,-0.42 -0.84,-0.53 -0.33,-0.12 -0.77,-0.23 -1.31,-0.32 -0.02,-0.01 -0.04,-0.01 -0.05,-0.01 -0.02,0 -0.04,-0.01 -0.06,-0.01l-0.12 -0.02c-0.79,-0.14 -1.44,-0.3 -1.93,-0.47 -0.5,-0.17 -0.92,-0.48 -1.27,-0.93 -0.36,-0.45 -0.53,-1.1 -0.53,-1.93l0 -0.01c0,-0.73 0.16,-1.36 0.49,-1.88 0.33,-0.51 0.81,-0.91 1.43,-1.18 0.64,-0.27 1.39,-0.41 2.28,-0.41 0.42,0 0.84,0.05 1.24,0.14 0.42,0.09 0.82,0.23 1.22,0.41 0.4,0.18 0.79,0.41 1.17,0.69l0 0 -0.94 1.32 0 0c-0.45,-0.33 -0.9,-0.58 -1.35,-0.75 -0.45,-0.16 -0.89,-0.25 -1.34,-0.25 -0.81,0 -1.44,0.17 -1.89,0.49 -0.45,0.32 -0.67,0.78 -0.67,1.37l0 0.01c0,0.4 0.12,0.72 0.35,0.96 0.23,0.23 0.52,0.4 0.86,0.51 0.34,0.11 0.82,0.23 1.44,0.35 0.02,0.01 0.04,0.01 0.06,0.01 0.02,0 0.04,0.01 0.06,0.02 0.03,0 0.05,0.01 0.09,0.01 0.03,0 0.06,0.01 0.09,0.02 0.71,0.14 1.31,0.32 1.79,0.52 0.48,0.2 0.88,0.52 1.21,0.97 0.32,0.45 0.48,1.06 0.48,1.84l0 0.01c0,0.72 -0.17,1.34 -0.51,1.85 -0.35,0.52 -0.84,0.91 -1.49,1.17 -0.65,0.28 -1.43,0.41 -2.35,0.41z"/>
   <path id="6" class="fil1" d="M827.25 1311.39l1.66 0 0 10.87 -1.66 0 0 -10.87zm-3.35 -0.97l8.35 0 0 1.58 -8.35 0 0 -1.58z"/>
   <path id="7" class="fil1" d="M836.61 1310.42l1.42 0 4.36 11.84 -1.79 0 -3.28 -9.55 -3.28 9.55 -1.79 0 4.36 -11.84zm-2.35 7.66l6.23 0 0 1.58 -6.23 0 0 -1.58z"/>
   <path id="8" class="fil1" d="M845.48 1317.06l5.23 -6.64 2.04 0 -7.51 9.13 0.24 -2.49zm-1.3 -6.64l1.66 0 0 11.84 -1.66 0 0 -11.84zm3.27 5.52l1.31 -1.21 4.49 7.53 -2.04 0 -3.76 -6.32z"/>
   <path id="9" class="fil1" d="M858.1 1310.42l1.41 0 4.37 11.84 -1.79 0 -3.28 -9.55 -3.28 9.55 -1.79 0 4.36 -11.84zm-2.35 7.66l6.22 0 0 1.58 -6.22 0 0 -1.58z"/>
   <path id="10" class="fil1" d="M868.89 1310.42l1.42 0 4.36 11.84 -1.79 0 -3.28 -9.55 -3.28 9.55 -1.79 0 4.36 -11.84zm-2.35 7.66l6.22 0 0 1.58 -6.22 0 0 -1.58z"/>
   <polygon id="11" class="fil1" points="876.46,1310.42 877.96,1310.42 883.75,1319.57 883.55,1319.78 883.55,1310.42 885.2,1310.42 885.2,1322.25 883.68,1322.25 877.91,1313.24 878.1,1313.03 878.1,1322.25 876.46,1322.25 "/>
   <path id="12" class="fil1" d="M761.8 1348.81c-0.57,0 -1.11,-0.05 -1.62,-0.16 -0.51,-0.11 -0.98,-0.27 -1.43,-0.49 -0.44,-0.22 -0.85,-0.49 -1.24,-0.81l0 0 1.04 -1.27 0 0c0.45,0.39 0.94,0.68 1.48,0.88 0.55,0.19 1.14,0.29 1.77,0.29 0.86,0 1.52,-0.16 1.99,-0.48 0.47,-0.31 0.71,-0.76 0.71,-1.34l0 -0.01c0,-0.41 -0.1,-0.74 -0.32,-0.98 -0.22,-0.24 -0.49,-0.42 -0.83,-0.54 -0.34,-0.11 -0.78,-0.22 -1.31,-0.32 -0.02,0 -0.04,-0.01 -0.06,-0.01 -0.01,0 -0.04,0 -0.05,-0.01l-0.12 -0.02c-0.79,-0.13 -1.44,-0.29 -1.93,-0.46 -0.5,-0.17 -0.93,-0.48 -1.28,-0.93 -0.35,-0.46 -0.53,-1.1 -0.53,-1.94l0 -0.01c0,-0.73 0.17,-1.35 0.49,-1.87 0.33,-0.52 0.81,-0.92 1.44,-1.19 0.63,-0.27 1.39,-0.4 2.27,-0.4 0.42,0 0.84,0.04 1.25,0.14 0.41,0.09 0.81,0.23 1.21,0.41 0.4,0.18 0.79,0.41 1.18,0.69l0 0 -0.95 1.31 0 0c-0.45,-0.33 -0.89,-0.58 -1.34,-0.74 -0.45,-0.17 -0.9,-0.25 -1.35,-0.25 -0.8,0 -1.44,0.16 -1.88,0.48 -0.45,0.33 -0.67,0.78 -0.67,1.38l0 0c0,0.41 0.11,0.73 0.34,0.96 0.23,0.24 0.52,0.41 0.87,0.52 0.34,0.11 0.82,0.23 1.43,0.35 0.02,0 0.04,0.01 0.06,0.01 0.02,0 0.04,0.01 0.06,0.01 0.03,0.01 0.06,0.01 0.09,0.02 0.04,0 0.06,0.01 0.09,0.01 0.72,0.15 1.32,0.32 1.8,0.52 0.48,0.2 0.88,0.53 1.2,0.98 0.32,0.44 0.48,1.05 0.48,1.83l0 0.02c0,0.72 -0.16,1.34 -0.51,1.85 -0.34,0.51 -0.84,0.9 -1.48,1.17 -0.65,0.27 -1.43,0.4 -2.35,0.4z"/>
   <path id="13" class="fil1" d="M770.22 1337.83l1.66 0 0 10.86 -1.66 0 0 -10.86zm-3.34 -0.97l8.35 0 0 1.58 -8.35 0 0 -1.58z"/>
   <path id="14" class="fil1" d="M779.59 1336.86l1.41 0 4.37 11.83 -1.79 0 -3.28 -9.54 -3.28 9.54 -1.79 0 4.36 -11.83zm-2.35 7.66l6.22 0 0 1.57 -6.22 0 0 -1.57z"/>
   <polygon id="15" class="fil1" points="788.82,1348.69 787.16,1348.69 787.16,1336.86 788.82,1336.86 "/>
   <polygon id="16" class="fil1" points="791.74,1336.86 793.25,1336.86 799.04,1346.01 798.84,1346.22 798.84,1336.86 800.49,1336.86 800.49,1348.68 798.96,1348.68 793.2,1339.68 793.39,1339.46 793.39,1348.68 791.74,1348.68 "/>
   <path id="17" class="fil1" d="M807.12 1342.52l3.78 0c0.36,0 0.67,-0.08 0.95,-0.25 0.27,-0.17 0.48,-0.41 0.63,-0.71 0.15,-0.31 0.22,-0.67 0.22,-1.07l0 0c0,-0.41 -0.07,-0.77 -0.22,-1.08 -0.15,-0.3 -0.36,-0.55 -0.63,-0.71 -0.28,-0.18 -0.59,-0.26 -0.95,-0.26l-3.78 0 0 -1.58 3.73 0c0.7,0 1.32,0.15 1.86,0.45 0.54,0.3 0.95,0.73 1.25,1.27 0.29,0.55 0.44,1.19 0.44,1.91l0 0c0,0.72 -0.15,1.36 -0.44,1.9 -0.3,0.54 -0.71,0.97 -1.25,1.26 -0.54,0.3 -1.16,0.45 -1.86,0.45l-3.73 0 0 -1.58zm-0.86 -5.66l1.66 0 0 11.83 -1.66 0 0 -11.83z"/>
   <path id="18" class="fil1" d="M820.39 1348.81c-0.82,0 -1.55,-0.18 -2.18,-0.54 -0.63,-0.36 -1.11,-0.87 -1.46,-1.53 -0.34,-0.66 -0.52,-1.42 -0.52,-2.29l0 -3.35c0,-0.87 0.18,-1.63 0.52,-2.29 0.35,-0.66 0.83,-1.17 1.46,-1.53 0.63,-0.36 1.36,-0.54 2.18,-0.54 0.83,0 1.55,0.18 2.18,0.54 0.63,0.36 1.12,0.87 1.46,1.53 0.35,0.66 0.52,1.42 0.52,2.29l0 3.35c0,0.87 -0.17,1.63 -0.52,2.29 -0.34,0.66 -0.83,1.17 -1.46,1.53 -0.63,0.36 -1.35,0.54 -2.18,0.54zm0 -1.63c0.49,0 0.92,-0.11 1.29,-0.33 0.37,-0.22 0.66,-0.53 0.86,-0.94 0.21,-0.4 0.31,-0.87 0.31,-1.4l0 -3.47c0,-0.53 -0.1,-1 -0.31,-1.4 -0.2,-0.41 -0.49,-0.72 -0.86,-0.94 -0.37,-0.22 -0.8,-0.33 -1.29,-0.33 -0.49,0 -0.92,0.11 -1.29,0.33 -0.37,0.22 -0.66,0.53 -0.86,0.94 -0.21,0.4 -0.31,0.87 -0.31,1.4l0 3.47c0,0.53 0.1,1 0.31,1.4 0.2,0.41 0.49,0.72 0.86,0.94 0.37,0.22 0.8,0.33 1.29,0.33z"/>
   <polygon id="19" class="fil1" points="827.23,1336.86 828.74,1336.86 834.53,1346.01 834.33,1346.22 834.33,1336.86 835.98,1336.86 835.98,1348.68 834.45,1348.68 828.68,1339.68 828.88,1339.46 828.88,1348.68 827.23,1348.68 "/>
   <path id="20" class="fil1" d="M842.82 1348.81c-0.82,0 -1.55,-0.18 -2.18,-0.54 -0.63,-0.36 -1.12,-0.87 -1.46,-1.53 -0.35,-0.66 -0.52,-1.42 -0.52,-2.29l0 -3.35c0,-0.87 0.17,-1.63 0.52,-2.29 0.34,-0.66 0.83,-1.17 1.46,-1.53 0.63,-0.36 1.36,-0.54 2.18,-0.54 0.82,0 1.55,0.18 2.18,0.54 0.63,0.36 1.12,0.87 1.46,1.53 0.35,0.66 0.52,1.42 0.52,2.29l0 3.35c0,0.87 -0.17,1.63 -0.52,2.29 -0.34,0.66 -0.83,1.17 -1.46,1.53 -0.63,0.36 -1.36,0.54 -2.18,0.54zm0 -1.63c0.49,0 0.92,-0.11 1.29,-0.33 0.37,-0.22 0.66,-0.53 0.86,-0.94 0.21,-0.4 0.31,-0.87 0.31,-1.4l0 -3.47c0,-0.53 -0.1,-1 -0.31,-1.4 -0.2,-0.41 -0.49,-0.72 -0.86,-0.94 -0.37,-0.22 -0.8,-0.33 -1.29,-0.33 -0.49,0 -0.92,0.11 -1.29,0.33 -0.37,0.22 -0.66,0.53 -0.86,0.94 -0.21,0.4 -0.31,0.87 -0.31,1.4l0 3.47c0,0.53 0.1,1 0.31,1.4 0.2,0.41 0.49,0.72 0.86,0.94 0.37,0.22 0.8,0.33 1.29,0.33z"/>
   <path id="21" class="fil1" d="M850.39 1342.11l4.03 0c0.32,0 0.6,-0.08 0.84,-0.23 0.25,-0.15 0.44,-0.37 0.57,-0.65 0.13,-0.28 0.2,-0.6 0.2,-0.96l0 0c0,-0.36 -0.07,-0.69 -0.2,-0.96 -0.13,-0.28 -0.32,-0.5 -0.57,-0.65 -0.23,-0.15 -0.52,-0.23 -0.84,-0.23l-4.03 0 0 -1.58 3.97 0c0.68,0 1.28,0.14 1.8,0.43 0.52,0.28 0.92,0.68 1.2,1.2 0.29,0.51 0.43,1.11 0.43,1.79l0 0c0,0.68 -0.14,1.28 -0.43,1.79 -0.29,0.52 -0.69,0.92 -1.21,1.2 -0.52,0.28 -1.11,0.43 -1.79,0.43l-3.97 0 0 -1.58zm-0.73 -5.26l1.66 0 0 11.84 -1.66 0 0 -11.84zm3.95 6.47l1.65 -0.37 3.03 5.74 -1.97 0 -2.71 -5.37z"/>
   <path id="22" class="fil1" d="M864.44 1348.81c-0.82,0 -1.55,-0.18 -2.18,-0.54 -0.63,-0.36 -1.11,-0.87 -1.46,-1.53 -0.34,-0.66 -0.52,-1.42 -0.52,-2.29l0 -3.35c0,-0.87 0.18,-1.63 0.52,-2.29 0.35,-0.66 0.83,-1.17 1.46,-1.53 0.63,-0.36 1.36,-0.54 2.18,-0.54 0.82,0 1.55,0.18 2.18,0.54 0.63,0.36 1.12,0.87 1.46,1.53 0.35,0.66 0.52,1.42 0.52,2.29l0 3.35c0,0.87 -0.17,1.63 -0.52,2.29 -0.34,0.66 -0.83,1.17 -1.46,1.53 -0.63,0.36 -1.36,0.54 -2.18,0.54zm0 -1.63c0.49,0 0.92,-0.11 1.29,-0.33 0.37,-0.22 0.66,-0.53 0.86,-0.94 0.21,-0.4 0.31,-0.87 0.31,-1.4l0 -3.47c0,-0.53 -0.1,-1 -0.31,-1.4 -0.2,-0.41 -0.49,-0.72 -0.86,-0.94 -0.37,-0.22 -0.8,-0.33 -1.29,-0.33 -0.49,0 -0.92,0.11 -1.29,0.33 -0.37,0.22 -0.66,0.53 -0.86,0.94 -0.21,0.4 -0.31,0.87 -0.31,1.4l0 3.47c0,0.53 0.1,1 0.31,1.4 0.2,0.41 0.49,0.72 0.86,0.94 0.37,0.22 0.8,0.33 1.29,0.33z"/>
   <path id="23" class="fil1" d="M879.38 1342.32l0 2.07c0,0.88 -0.18,1.65 -0.52,2.32 -0.34,0.67 -0.82,1.19 -1.45,1.55 -0.63,0.37 -1.35,0.55 -2.18,0.55 -0.84,0 -1.57,-0.17 -2.2,-0.51 -0.63,-0.35 -1.12,-0.83 -1.47,-1.46 -0.34,-0.63 -0.52,-1.36 -0.52,-2.19l0 -3.49c0,-0.88 0.17,-1.66 0.51,-2.32 0.35,-0.67 0.83,-1.19 1.46,-1.55 0.62,-0.37 1.35,-0.55 2.17,-0.55 0.68,0 1.31,0.14 1.88,0.43 0.57,0.29 1.05,0.7 1.44,1.24 0.38,0.53 0.64,1.14 0.78,1.84l0 0 -1.8 0 0 0c-0.1,-0.39 -0.27,-0.73 -0.5,-1.02 -0.23,-0.28 -0.51,-0.5 -0.82,-0.65 -0.32,-0.15 -0.64,-0.22 -0.98,-0.22 -0.49,0 -0.91,0.11 -1.28,0.35 -0.37,0.23 -0.66,0.56 -0.86,0.98 -0.2,0.42 -0.3,0.91 -0.3,1.47l0 3.49c0,0.51 0.1,0.95 0.31,1.34 0.21,0.38 0.5,0.67 0.88,0.89 0.37,0.21 0.81,0.31 1.3,0.31 0.49,0 0.92,-0.11 1.29,-0.33 0.37,-0.21 0.65,-0.54 0.85,-0.95 0.2,-0.42 0.3,-0.91 0.3,-1.49l0 -0.51 -2.4 0 0 -1.59 4.11 0z"/>
   <path id="24" class="fil1" d="M885.98 1348.81c-0.83,0 -1.56,-0.18 -2.19,-0.54 -0.63,-0.36 -1.11,-0.87 -1.46,-1.53 -0.34,-0.66 -0.51,-1.42 -0.51,-2.29l0 -3.35c0,-0.87 0.17,-1.63 0.51,-2.29 0.35,-0.66 0.83,-1.17 1.46,-1.53 0.63,-0.36 1.36,-0.54 2.19,-0.54 0.82,0 1.55,0.18 2.18,0.54 0.62,0.36 1.11,0.87 1.46,1.53 0.34,0.66 0.51,1.42 0.51,2.29l0 3.35c0,0.87 -0.17,1.63 -0.51,2.29 -0.35,0.66 -0.84,1.17 -1.46,1.53 -0.63,0.36 -1.36,0.54 -2.18,0.54zm0 -1.63c0.48,0 0.91,-0.11 1.28,-0.33 0.38,-0.22 0.66,-0.53 0.87,-0.94 0.2,-0.4 0.3,-0.87 0.3,-1.4l0 -3.47c0,-0.53 -0.1,-1 -0.3,-1.4 -0.21,-0.41 -0.49,-0.72 -0.87,-0.94 -0.37,-0.22 -0.8,-0.33 -1.28,-0.33 -0.49,0 -0.92,0.11 -1.3,0.33 -0.37,0.22 -0.65,0.53 -0.86,0.94 -0.2,0.4 -0.3,0.87 -0.3,1.4l0 3.47c0,0.53 0.1,1 0.3,1.4 0.21,0.41 0.49,0.72 0.86,0.94 0.38,0.22 0.81,0.33 1.3,0.33z"/>
   <rect class="fil4" x="793.35" y="1267.57" width="60.94" height="29.69" rx="12.78" ry="6.23"/>
  </g>
 </g>
</svg>
