<?xml version="1.0" encoding="UTF-8"?>
<!DOCTYPE svg PUBLIC "-//W3C//DTD SVG 1.1//EN" "http://www.w3.org/Graphics/SVG/1.1/DTD/svg11.dtd">
<!-- Creator: CorelDRAW 2019 (64-Bit) -->
<svg xmlns="http://www.w3.org/2000/svg" xml:space="preserve" width="128px" height="128px" version="1.1" style="shape-rendering:geometricPrecision; text-rendering:geometricPrecision; image-rendering:optimizeQuality; fill-rule:evenodd; clip-rule:evenodd"
viewBox="0 0 128 128"
 xmlns:xlink="http://www.w3.org/1999/xlink"
 xmlns:xodm="http://www.corel.com/coreldraw/odm/2003">
 <defs>
  <style type="text/css">
   <![CDATA[
    .fil0 {fill:#BE9832}
   ]]>
  </style>
 </defs>
 <g id="Layer_x0020_1">
  <metadata id="CorelCorpID_0Corel-Layer"/>
  <g id="_2525726678864">
   <path class="fil0" d="M28.94 55.23c4.84,0 8.76,3.93 8.76,8.77 0,4.84 -3.92,8.77 -8.76,8.77 -4.84,0 -8.77,-3.93 -8.77,-8.77 0,-4.84 3.93,-8.77 8.77,-8.77z"/>
   <path class="fil0" d="M64 55.23c4.84,0 8.77,3.93 8.77,8.77 0,4.84 -3.93,8.77 -8.77,8.77 -4.84,0 -8.77,-3.93 -8.77,-8.77 0,-4.84 3.93,-8.77 8.77,-8.77z"/>
   <path class="fil0" d="M99.06 55.23c4.84,0 8.77,3.93 8.77,8.77 0,4.84 -3.93,8.77 -8.77,8.77 -4.84,0 -8.76,-3.93 -8.76,-8.77 0,-4.84 3.92,-8.77 8.76,-8.77z"/>
  </g>
 </g>
</svg>
