<?xml version="1.0" encoding="UTF-8"?>
<!DOCTYPE svg PUBLIC "-//W3C//DTD SVG 1.1//EN" "http://www.w3.org/Graphics/SVG/1.1/DTD/svg11.dtd">
<!-- Creator: CorelDRAW 2019 (64-Bit) -->
<svg xmlns="http://www.w3.org/2000/svg" xml:space="preserve" width="128px" height="128px" version="1.1" style="shape-rendering:geometricPrecision; text-rendering:geometricPrecision; image-rendering:optimizeQuality; fill-rule:evenodd; clip-rule:evenodd"
viewBox="0 0 128 128"
 xmlns:xlink="http://www.w3.org/1999/xlink"
 xmlns:xodm="http://www.corel.com/coreldraw/odm/2003">
 <defs>
  <style type="text/css">
   <![CDATA[
    .fil0 {fill:#332C2B}
   ]]>
  </style>
 </defs>
 <g id="Layer_x0020_1">
  <metadata id="CorelCorpID_0Corel-Layer"/>
  <path class="fil0" d="M23.25 104.45l81.86 0c1.66,0 3.33,0.26 4.49,-1.29 0.82,-1.11 0.61,-2.36 0.61,-3.63l-0.11 -59.6c0.01,-0.56 -0.04,-1.12 -0.13,-1.69 -0.59,-3.4 -2.97,-6.05 -6.01,-7.13 -2.3,-0.82 -5.71,-0.53 -8.03,-0.53l-1.09 0 0 -3.8 0 -0.04c0.02,-1.77 -1.43,-3.21 -3.2,-3.21 -1.77,0 -3.21,1.44 -3.21,3.21l0 0.04 0 3.8 -12.06 0 0 -3.8 0 -0.04c0.03,-1.77 -1.43,-3.21 -3.2,-3.21 -1.77,0 -3.21,1.44 -3.21,3.21l0 0.04 0 3.8 -5.99 0 -5.72 0 0 -3.8 0 -0.04c0.02,-1.77 -1.44,-3.21 -3.21,-3.21 -1.77,0 -3.2,1.44 -3.2,3.21l0 0.04 0 3.8 -12.4 0 0 -3.8 0 -0.04c0.02,-1.77 -1.44,-3.21 -3.2,-3.21 -1.78,0 -3.21,1.44 -3.21,3.21l0 0.04 0 3.8 -0.31 0c-2.03,0 -5.22,-0.22 -7.29,0.13 -4.55,0.79 -7.75,4.78 -7.66,9.27l0 59.31c0,5.75 1.51,5.16 5.48,5.16zm65.18 -68.51l0 3.83 0 0.04c0,1.77 1.44,3.21 3.21,3.21 1.77,0 3.2,-1.44 3.2,-3.21l0 -0.04 0 -3.83c0.89,0.74 1.54,1.79 1.75,3.02 0.47,2.74 -1.37,5.33 -4.1,5.81 -2.74,0.47 -5.34,-1.37 -5.81,-4.1 -0.32,-1.84 0.41,-3.62 1.75,-4.73zm-55.4 0l0 3.83 0 0.04c0,1.77 1.43,3.21 3.21,3.21 1.76,0 3.2,-1.44 3.2,-3.21l0 -0.04 0 -3.83c0.89,0.74 1.54,1.79 1.75,3.02 0.47,2.74 -1.37,5.33 -4.1,5.81 -2.74,0.47 -5.34,-1.37 -5.81,-4.1 -0.32,-1.84 0.41,-3.62 1.75,-4.73zm18.81 0l0 3.83 0 0.04c0,1.77 1.43,3.21 3.2,3.21 1.77,0 3.21,-1.44 3.21,-3.21l0 -0.04 0 -3.83c0.89,0.74 1.53,1.79 1.75,3.02 0.47,2.74 -1.37,5.33 -4.1,5.81 -2.74,0.47 -5.34,-1.37 -5.81,-4.1 -0.32,-1.84 0.41,-3.62 1.75,-4.73zm18.12 0l0 3.83 0 0.04c0,1.77 1.44,3.21 3.21,3.21 1.77,0 3.2,-1.44 3.2,-3.21l0 -0.04 0 -3.83c0.9,0.74 1.54,1.79 1.75,3.02 0.47,2.74 -1.36,5.33 -4.1,5.81 -2.73,0.47 -5.33,-1.37 -5.8,-4.1 -0.32,-1.84 0.4,-3.62 1.74,-4.73zm-33.72 37.6c-1.78,0 -3.21,1.44 -3.21,3.21 0,1.77 1.43,3.2 3.21,3.2 1.76,0 3.2,-1.43 3.2,-3.2 0,-1.77 -1.44,-3.21 -3.2,-3.21zm0 18.47c-1.78,0 -3.21,1.43 -3.21,3.2 0,1.77 1.43,3.21 3.21,3.21 0.11,0 0.23,-0.01 0.35,-0.02l17.76 0c0.11,0.01 0.23,0.02 0.35,0.02 0.12,0 0.24,-0.01 0.36,-0.02l17.75 0c0.12,0.01 0.24,0.02 0.36,0.02 0.12,0 0.24,-0.01 0.35,-0.02l17.76 0c0.12,0.01 0.24,0.02 0.36,0.02 1.77,0 3.2,-1.44 3.2,-3.21 0,-1.77 -1.43,-3.2 -3.2,-3.2l-0.05 0 -18.38 0 -0.04 0 -0.04 0 -18.39 0 -0.04 0 -0.04 0 -18.38 0 -0.04 0zm53.18 -18.58c-1.22,0 -2.21,0.99 -2.21,2.21 -0.04,1.47 1.57,3.9 3.02,4.68 0.91,0.5 1.64,0.65 2.57,0.2 1.13,-0.54 3.34,-2.7 3.26,-4.88 0,-1.22 -0.99,-2.21 -2.21,-2.21 -0.96,0 -1.85,0.58 -2.08,1.45 -0.09,0.33 -0.2,0.2 -0.27,-0.01 -0.31,-0.84 -1.13,-1.44 -2.08,-1.44zm2.22 -18.36c-1.77,0 -3.21,1.44 -3.21,3.21 0,1.77 1.44,3.2 3.21,3.2 1.77,0 3.2,-1.43 3.2,-3.2 0,-1.77 -1.43,-3.21 -3.2,-3.21zm-18.47 0c-1.77,0 -3.21,1.44 -3.21,3.21 0,1.77 1.44,3.2 3.21,3.2 1.77,0 3.2,-1.43 3.2,-3.2 0,-1.77 -1.43,-3.21 -3.2,-3.21zm-18.13 0c-1.77,0 -3.2,1.44 -3.2,3.21 0,1.77 1.43,3.2 3.2,3.2 1.77,0 3.21,-1.43 3.21,-3.2 0,-1.77 -1.44,-3.21 -3.21,-3.21zm-18.8 0c-1.78,0 -3.21,1.44 -3.21,3.21 0,1.77 1.43,3.2 3.21,3.2 1.76,0 3.2,-1.43 3.2,-3.2 0,-1.77 -1.44,-3.21 -3.2,-3.21zm36.93 18.47c-1.77,0 -3.21,1.44 -3.21,3.21 0,1.77 1.44,3.2 3.21,3.2 1.77,0 3.2,-1.43 3.2,-3.2 0,-1.77 -1.43,-3.21 -3.2,-3.21zm-18.47 0c-1.77,0 -3.2,1.44 -3.2,3.21 0,1.77 1.43,3.2 3.2,3.2 1.77,0 3.21,-1.43 3.21,-3.2 0,-1.77 -1.44,-3.21 -3.21,-3.21z"/>
 </g>
</svg>
