<?xml version="1.0" encoding="UTF-8"?>
<!DOCTYPE svg PUBLIC "-//W3C//DTD SVG 1.1//EN" "http://www.w3.org/Graphics/SVG/1.1/DTD/svg11.dtd">
<!-- Creator: CorelDRAW 2019 (64-Bit) -->
<svg xmlns="http://www.w3.org/2000/svg" xml:space="preserve" width="180px" height="180px" version="1.1" style="shape-rendering:geometricPrecision; text-rendering:geometricPrecision; image-rendering:optimizeQuality; fill-rule:evenodd; clip-rule:evenodd"
viewBox="0 0 180 180"
 xmlns:xlink="http://www.w3.org/1999/xlink"
 xmlns:xodm="http://www.corel.com/coreldraw/odm/2003">
 <defs>
  <style type="text/css">
   <![CDATA[
    .fil0 {fill:#FEFEFE}
   ]]>
  </style>
 </defs>
 <g id="Layer_x0020_1">
  <metadata id="CorelCorpID_0Corel-Layer"/>
  <path class="fil0" d="M8.72 44.5c-3.53,1.33 -6.04,4.74 -6.04,8.74l0 0.01 -0.2 107.59c0,0.34 -0.03,0.71 0.09,1.03 0.2,0.57 0.75,0.98 1.39,0.98 0.66,0 1.1,-0.45 1.48,-0.94 4.34,-5.59 8.87,-11.1 13.32,-16.63 2.61,-3.24 5.24,-3.97 9.28,-4.79 2.56,-0.53 5.19,-0.84 7.26,-1.18l130.81 -20.99 0 0c4.51,-0.6 8,-4.42 8.09,-9.07l0 0 3.28 -89.57c0.01,-0.35 0.04,-0.71 0.04,-1.05 0,-0.82 -0.66,-1.48 -1.47,-1.48 -0.35,0 -0.84,0.12 -1.21,0.18l-161.28 26.2c-1.54,0.25 -3.41,0.43 -4.84,0.97zm36.08 35.43c4.77,-0.78 9.26,2.45 10.04,7.22 0.78,4.77 -2.45,9.27 -7.22,10.05 -4.77,0.77 -9.27,-2.46 -10.05,-7.23 -0.78,-4.77 2.46,-9.27 7.23,-10.04zm43.18 -7.05c4.76,-0.78 9.26,2.45 10.04,7.22 0.78,4.77 -2.46,9.27 -7.23,10.05 -4.76,0.78 -9.26,-2.46 -10.04,-7.23 -0.78,-4.77 2.46,-9.26 7.23,-10.04zm43.93 -7.17c4.77,-0.78 9.26,2.45 10.04,7.22 0.78,4.77 -2.46,9.27 -7.22,10.05 -4.77,0.78 -9.27,-2.46 -10.05,-7.23 -0.78,-4.77 2.46,-9.26 7.23,-10.04zm-103.06 -6.63l128.23 -16.45c1.21,-0.25 1.79,0.51 1.84,1.3 0.35,5.34 0.02,11.95 0.07,17.44l0.26 31.86c0.04,4.64 -2.07,8.95 -7.18,9.83 -0.15,0.03 -0.31,0.05 -0.46,0.07l-120.63 17.19c-4.76,0.82 -9.29,-2.37 -10.1,-7.14 -0.1,-0.53 -0.14,-1.07 -0.13,-1.6l0 -6.87 0 -3.56 0 -33.25c-0.04,-3.61 2.17,-6.88 5.51,-8.21 0.89,-0.35 1.66,-0.49 2.59,-0.61z"/>
 </g>
</svg>
