<?xml version="1.0" encoding="UTF-8"?>
<!DOCTYPE svg PUBLIC "-//W3C//DTD SVG 1.1//EN" "http://www.w3.org/Graphics/SVG/1.1/DTD/svg11.dtd">
<!-- Creator: CorelDRAW 2019 (64-Bit) -->
<svg xmlns="http://www.w3.org/2000/svg" xml:space="preserve" width="128px" height="128px" version="1.1" style="shape-rendering:geometricPrecision; text-rendering:geometricPrecision; image-rendering:optimizeQuality; fill-rule:evenodd; clip-rule:evenodd"
viewBox="0 0 128 128"
 xmlns:xlink="http://www.w3.org/1999/xlink"
 xmlns:xodm="http://www.corel.com/coreldraw/odm/2003">
 <defs>
  <style type="text/css">
   <![CDATA[
    .fil0 {fill:#332C2B}
   ]]>
  </style>
 </defs>
 <g id="Layer_x0020_1">
  <metadata id="CorelCorpID_0Corel-Layer"/>
  <path class="fil0" d="M31.27 62.63c-0.91,0.8 -2.1,1.28 -3.4,1.28 -2.85,0 -5.16,-2.31 -5.16,-5.16 0,-1.12 0.36,-2.16 0.97,-3.01 0.54,-0.74 1.36,-1.36 2.05,-1.95l31.21 -26.76c2.01,-1.71 4.33,-4.41 7.06,-4.41 3.38,0 6.57,4.03 7.95,5.21l29.63 25.43c1.9,1.62 3.71,2.6 3.71,5.49 0,2.85 -2.32,5.16 -5.17,5.16 -1.48,0 -2.86,-0.63 -3.84,-1.72 -0.17,-0.15 -0.24,-0.21 -0.49,-0.21 -0.26,0 -0.49,0.13 -0.64,0.32 -0.2,0.26 -0.19,0.69 -0.19,1.01l0 36.72 0 0.09c-0.04,2.44 -1.77,4.47 -4.07,4.96 -0.23,0.27 -12.11,0.14 -12.19,0.06 -2.48,-0.38 -4.38,-2.52 -4.38,-5.11l0 -20.51 0 0 0 -0.13c0,-2.85 -2.31,-5.16 -5.16,-5.16 -3.44,0 -6.9,0 -10.32,0 -2.85,0 -5.16,2.31 -5.16,5.16l0 20.64c0,2.51 -1.79,4.6 -4.16,5.07 -3.39,0.56 -7.81,0.09 -11.33,0.09 -2.85,0 -5.16,-2.31 -5.16,-5.16l0 -36.53c0,-0.34 0.07,-0.85 -0.11,-1.14 -0.15,-0.23 -0.4,-0.38 -0.69,-0.38 -0.45,0 -0.65,0.38 -0.96,0.65z"/>
 </g>
</svg>
