<?xml version="1.0" encoding="UTF-8"?>
<!DOCTYPE svg PUBLIC "-//W3C//DTD SVG 1.1//EN" "http://www.w3.org/Graphics/SVG/1.1/DTD/svg11.dtd">
<!-- Creator: CorelDRAW 2019 (64-Bit) -->
<svg xmlns="http://www.w3.org/2000/svg" xml:space="preserve" width="180px" height="180px" version="1.1" style="shape-rendering:geometricPrecision; text-rendering:geometricPrecision; image-rendering:optimizeQuality; fill-rule:evenodd; clip-rule:evenodd"
viewBox="0 0 180 180"
 xmlns:xlink="http://www.w3.org/1999/xlink"
 xmlns:xodm="http://www.corel.com/coreldraw/odm/2003">
 <defs>
  <style type="text/css">
   <![CDATA[
    .fil0 {fill:#FEFEFE}
   ]]>
  </style>
 </defs>
 <g id="Layer_x0020_1">
  <metadata id="CorelCorpID_0Corel-Layer"/>
  <path class="fil0" d="M8.71 44.5c-3.52,1.33 -6.03,4.74 -6.03,8.74l0 0.01 -0.2 107.59c0,0.34 -0.03,0.71 0.09,1.03 0.2,0.57 0.75,0.98 1.39,0.98 0.66,0 1.1,-0.45 1.48,-0.94 4.34,-5.59 8.87,-11.1 13.32,-16.63 2.61,-3.24 5.24,-3.97 9.27,-4.79 2.57,-0.53 5.2,-0.84 7.27,-1.18l130.81 -20.99 0 0c4.51,-0.6 8,-4.42 8.09,-9.07l0 0 3.28 -89.57c0.01,-0.35 0.04,-0.71 0.04,-1.05 0,-0.82 -0.66,-1.48 -1.47,-1.48 -0.35,0 -0.84,0.12 -1.21,0.18l-161.28 26.2c-1.54,0.25 -3.41,0.43 -4.85,0.97zm20.87 14.58l128.23 -16.45c1.21,-0.25 1.79,0.51 1.84,1.3 0.35,5.34 0.02,11.95 0.07,17.44l0.26 31.86c0.04,4.64 -2.07,8.95 -7.18,9.83 -0.15,0.03 -0.31,0.05 -0.46,0.07l-120.63 17.19c-4.76,0.82 -9.29,-2.37 -10.1,-7.14 -0.1,-0.54 -0.14,-1.07 -0.13,-1.6l0 -6.87 0 -3.56 0 -33.25c-0.04,-3.61 2.17,-6.88 5.51,-8.21 0.89,-0.35 1.66,-0.49 2.59,-0.61zm58.28 29.38l-0.47 1.11c-1.14,-0.73 -2.58,-1.02 -4.18,-0.76 -4.17,0.68 -7.1,4.12 -7.03,8.28 0.06,4.17 3.09,6.67 7.25,5.99 1.59,-0.26 2.99,-1.01 4.09,-2.08l0.42 0.88 3.62 -0.59 -0.21 -13.4 -3.49 0.57zm33.49 -1.51l1.24 -0.2 -0.02 -1.17 -1.24 0.2 0.02 1.17zm16.38 -23.99c-0.08,-5.11 -4.1,-8.47 -9.8,-7.53 -5.56,0.9 -9.55,5.49 -9.47,10.83 0.09,5.32 4.24,8.62 9.76,7.72 4.44,-0.73 7.98,-3.79 9.16,-7.97l-6.06 0.99c-0.57,1.12 -1.75,1.93 -3.17,2.16 -1.93,0.31 -3.23,-0.51 -3.66,-2.44l13.14 -2.15c0.06,-0.55 0.1,-1.09 0.1,-1.61l0 0zm-9.73 -2.84c1.84,-0.3 3.13,0.43 3.69,2.09l-7.15 1.17c0.47,-1.81 1.69,-2.97 3.46,-3.26l0 0zm-13.46 10.25c-1.28,0.21 -2.06,-0.41 -2.08,-1.66l-0.09 -5.55 4.29 -0.7 -0.08 -4.61 -4.45 0.73 -0.08 -5.09 -1.24 0.2 -7.79 9.6 0.02 1.4 3.24 -0.53 0.1 6.58c0.06,3.87 2.48,5.83 6.39,5.19l4.19 -0.68 -0.08 -5.26 -2.34 0.38zm-19.71 -11.14l6 -0.99 -0.08 -5.08 -6 0.98 0.08 5.09zm0.27 19.59l6.09 -0.99 -0.28 -17.42 -6.09 1 0.28 17.41zm-8.75 -16.03l-3.15 10.86 -3.5 -9.77 -6.68 1.09 7.48 16.24 5.52 -0.9 6.84 -18.58 -6.51 1.06zm-21.23 2.96c-2.28,0.37 -4.22,1.55 -5.51,3.21l-0.87 -1.65 -4.27 0.69 0.28 17.42 6.09 -1 -0.15 -9.3c-0.03,-2.23 1.03,-3.71 2.93,-4.02 1.52,-0.25 2.31,0.63 2.34,2.66l0.16 9.8 6.09 -1 -0.17 -10.63c-0.07,-4.43 -2.81,-6.85 -6.92,-6.18l0 0zm-20.69 21.35l6.38 -1.04 -0.36 -22.57 -6.38 1.04 0.36 22.57zm92.19 -6.43c-0.47,0.08 -0.88,0.36 -1.14,0.73 -0.24,-0.3 -0.62,-0.44 -1.07,-0.36 -0.43,0.07 -0.82,0.32 -1.08,0.68l-0.19 -0.37 -0.9 0.15 0.05 3.66 1.29 -0.21 -0.03 -2.01c-0.01,-0.45 0.17,-0.73 0.52,-0.78 0.27,-0.05 0.41,0.13 0.42,0.5l0.03 2.14 1.25 -0.2 -0.03 -2.01c-0.01,-0.47 0.17,-0.73 0.52,-0.79 0.28,-0.05 0.42,0.12 0.43,0.5l0.03 2.14 1.29 -0.21 -0.04 -2.3c-0.01,-0.86 -0.55,-1.39 -1.35,-1.26l0 0zm-7.01 5.05c1.21,-0.19 2.08,-1.16 2.06,-2.29 -0.02,-1.14 -0.91,-1.81 -2.12,-1.61 -1.22,0.2 -2.08,1.15 -2.06,2.29 0.02,1.13 0.91,1.81 2.12,1.61zm-0.02 -1.13c-0.46,0.08 -0.81,-0.2 -0.81,-0.69 -0.01,-0.48 0.32,-0.87 0.79,-0.95 0.47,-0.08 0.81,0.21 0.81,0.69 0.01,0.48 -0.32,0.87 -0.79,0.95l0 0zm-4.39 1.85c1.04,-0.17 1.83,-0.97 1.96,-1.99l-1.26 0.21c-0.1,0.35 -0.38,0.6 -0.72,0.65 -0.45,0.08 -0.78,-0.22 -0.79,-0.69 0,-0.48 0.31,-0.87 0.76,-0.94 0.34,-0.06 0.62,0.09 0.74,0.37l1.25 -0.2c-0.16,-0.96 -0.96,-1.48 -2,-1.31 -1.2,0.2 -2.05,1.15 -2.03,2.28 0.02,1.14 0.89,1.82 2.09,1.62l0 0zm-41.2 12.45c-1.76,0.28 -3.08,-0.81 -3.11,-2.56 -0.02,-1.75 1.24,-3.26 3.01,-3.55 1.76,-0.29 3.07,0.81 3.1,2.55 0.03,1.75 -1.25,3.27 -3,3.56l0 0zm31.63 -14.97l-0.46 1.11c-1.13,-0.73 -2.58,-1.02 -4.18,-0.76 -4.17,0.68 -7.1,4.12 -7.03,8.28 0.06,4.16 3.09,6.67 7.25,5.99 1.59,-0.26 2.99,-1.01 4.09,-2.08l0.42 0.88 3.62 -0.59 -0.21 -13.4 -3.5 0.57zm-3.85 10.42c-1.76,0.29 -3.08,-0.8 -3.11,-2.55 -0.02,-1.75 1.24,-3.26 3.01,-3.55 1.76,-0.29 3.07,0.81 3.1,2.55 0.03,1.75 -1.25,3.27 -3,3.55l0 0zm-20.01 13.58l2.29 -0.37c4.72,-0.78 7.46,-3.87 7.39,-8.33l-0.28 -16.94 -6.09 0.99 0.26 16.46c0.03,1.49 -0.72,2.42 -2.16,2.66l-1.5 0.24 0.09 5.29z"/>
 </g>
</svg>
