<?xml version="1.0" encoding="UTF-8"?>
<!DOCTYPE svg PUBLIC "-//W3C//DTD SVG 1.1//EN" "http://www.w3.org/Graphics/SVG/1.1/DTD/svg11.dtd">
<!-- Creator: CorelDRAW 2019 (64-Bit) -->
<svg xmlns="http://www.w3.org/2000/svg" xml:space="preserve" width="128px" height="128px" version="1.1" style="shape-rendering:geometricPrecision; text-rendering:geometricPrecision; image-rendering:optimizeQuality; fill-rule:evenodd; clip-rule:evenodd"
viewBox="0 0 128 128"
 xmlns:xlink="http://www.w3.org/1999/xlink"
 xmlns:xodm="http://www.corel.com/coreldraw/odm/2003">
 <defs>
  <style type="text/css">
   <![CDATA[
    .fil0 {fill:#332C2B}
   ]]>
  </style>
 </defs>
 <g id="Layer_x0020_1">
  <metadata id="CorelCorpID_0Corel-Layer"/>
  <path class="fil0" d="M68.04 96.38c-0.67,1.58 -2.22,2.68 -4.04,2.68 -1.87,0 -3.47,-1.17 -4.1,-2.82 -4.48,-11.73 -8.67,-30.13 -12.41,-43.6 -0.65,-2.36 -1.02,-3.6 -1.02,-6.17 0,-9.69 7.85,-17.53 17.53,-17.53 9.68,0 17.53,7.84 17.53,17.53 0,2.53 -0.34,3.69 -0.98,6 -3.51,12.8 -8.31,33.96 -12.51,43.91zm-4.04 -58.68c4.84,0 8.77,3.93 8.77,8.77 0,4.84 -3.93,8.76 -8.77,8.76 -4.84,0 -8.77,-3.92 -8.77,-8.76 0,-4.84 3.93,-8.77 8.77,-8.77z"/>
 </g>
</svg>
