<?xml version="1.0" encoding="UTF-8"?>
<!DOCTYPE svg PUBLIC "-//W3C//DTD SVG 1.1//EN" "http://www.w3.org/Graphics/SVG/1.1/DTD/svg11.dtd">
<!-- Creator: CorelDRAW 2019 (64-Bit) -->
<svg xmlns="http://www.w3.org/2000/svg" xml:space="preserve" width="180px" height="180px" version="1.1" style="shape-rendering:geometricPrecision; text-rendering:geometricPrecision; image-rendering:optimizeQuality; fill-rule:evenodd; clip-rule:evenodd"
viewBox="0 0 180 180"
 xmlns:xlink="http://www.w3.org/1999/xlink"
 xmlns:xodm="http://www.corel.com/coreldraw/odm/2003">
 <defs>
  <style type="text/css">
   <![CDATA[
    .fil0 {fill:#FEFEFE}
   ]]>
  </style>
 </defs>
 <g id="Layer_x0020_1">
  <metadata id="CorelCorpID_0Corel-Layer"/>
  <path class="fil0" d="M8.72 44.5c-3.53,1.33 -6.04,4.74 -6.04,8.74l0 0.01 -0.2 107.59c0,0.34 -0.03,0.71 0.09,1.03 0.2,0.57 0.75,0.98 1.39,0.98 0.66,0 1.1,-0.45 1.48,-0.94 4.34,-5.59 8.87,-11.1 13.32,-16.63 2.61,-3.24 5.24,-3.97 9.28,-4.79 2.56,-0.53 5.19,-0.84 7.26,-1.18l130.81 -20.99 0 0c4.51,-0.6 8,-4.42 8.09,-9.07l0 0 3.28 -89.57c0.01,-0.35 0.04,-0.71 0.04,-1.05 0,-0.82 -0.66,-1.48 -1.47,-1.48 -0.35,0 -0.84,0.12 -1.21,0.18l-161.28 26.2c-1.54,0.25 -3.41,0.43 -4.84,0.97zm148.71 43.17c-1.47,-0.61 -2.87,-1.29 -4.39,-1.85l-22.31 -8.27 -9.22 -3.42c-2.76,-1.02 -5.4,-2.38 -8.43,-1.86 -2.77,0.48 -5.91,3.11 -8.16,4.67l-9.44 6.54c-0.72,0.49 -0.99,0.41 -1.78,0.14l-13.64 -4.8c-2.85,-1 -5.94,-2.53 -9.02,-2 -2.04,0.35 -3.19,1.22 -4.85,2.25l-15.83 9.8 -21.21 13.12c-1.06,0.66 -2.14,1.29 -3.14,1.97l-1.72 1.19c-0.58,0.41 -0.74,0.71 -1.45,0.71 -0.71,0 -1.38,-0.61 -1.38,-1.38 0,-1.46 0.05,-2.93 0.05,-4.41l0 -32.17c-0.04,-3.62 2.17,-6.89 5.51,-8.21 0.89,-0.35 1.65,-0.49 2.59,-0.61l128.23 -16.45c1.21,-0.25 1.84,0.51 1.84,1.3l0.07 17.44 0.16 18.99c0.01,1.84 0.15,3.95 0.08,5.75 -0.08,1.93 -0.92,2.25 -2.56,1.56zm-121.38 -21.66c4.76,-0.82 9.29,2.37 10.11,7.14 0.82,4.76 -2.37,9.28 -7.14,10.11 -4.76,0.82 -9.29,-2.38 -10.11,-7.14 -0.82,-4.76 2.38,-9.29 7.14,-10.11z"/>
 </g>
</svg>
