<?xml version="1.0" encoding="UTF-8"?>
<!DOCTYPE svg PUBLIC "-//W3C//DTD SVG 1.1//EN" "http://www.w3.org/Graphics/SVG/1.1/DTD/svg11.dtd">
<!-- Creator: CorelDRAW 2019 (64-Bit) -->
<svg xmlns="http://www.w3.org/2000/svg" xml:space="preserve" width="180px" height="180px" version="1.1" style="shape-rendering:geometricPrecision; text-rendering:geometricPrecision; image-rendering:optimizeQuality; fill-rule:evenodd; clip-rule:evenodd"
viewBox="0 0 180 180"
 xmlns:xlink="http://www.w3.org/1999/xlink"
 xmlns:xodm="http://www.corel.com/coreldraw/odm/2003">
 <defs>
  <style type="text/css">
   <![CDATA[
    .fil0 {fill:#FEFEFE}
   ]]>
  </style>
 </defs>
 <g id="Layer_x0020_1">
  <metadata id="CorelCorpID_0Corel-Layer"/>
  <path class="fil0" d="M8.71 44.5c-3.52,1.33 -6.03,4.74 -6.03,8.74l0 0.01 -0.2 107.59c0,0.34 -0.03,0.71 0.09,1.03 0.2,0.57 0.74,0.98 1.39,0.98 0.66,0 1.1,-0.45 1.48,-0.94 4.34,-5.59 8.87,-11.1 13.32,-16.63 2.61,-3.24 5.24,-3.97 9.27,-4.79 2.57,-0.53 5.2,-0.84 7.27,-1.18l130.81 -20.99 0 0c4.51,-0.6 8,-4.42 8.09,-9.07l0 0 3.28 -89.57c0.01,-0.35 0.04,-0.71 0.04,-1.05 0,-0.82 -0.66,-1.48 -1.47,-1.48 -0.36,0 -0.84,0.12 -1.21,0.18l-161.28 26.2c-1.54,0.25 -3.41,0.43 -4.85,0.97zm20.87 14.5l128.23 -16.45c1.21,-0.25 1.79,0.51 1.84,1.3 0.35,5.34 0.02,11.94 0.07,17.44l0.26 31.86c0.04,4.64 -2.07,8.95 -7.18,9.83 -0.15,0.03 -0.31,0.05 -0.46,0.07l-120.63 17.19c-4.76,0.82 -9.29,-2.38 -10.1,-7.14 -0.1,-0.54 -0.14,-1.07 -0.13,-1.6l0 -6.87 0 -3.56 0 -33.25c-0.04,-3.61 2.17,-6.88 5.51,-8.21 0.89,-0.35 1.65,-0.49 2.59,-0.61zm42.71 15.04c4.1,-0.71 8.02,1.57 9.56,5.25l0 0c1.34,2.83 0.98,10.49 1.07,15.34l0 0 0.01 0.08c0,0.77 -0.62,1.39 -1.39,1.39 -0.76,0 -1.38,-0.62 -1.38,-1.39l0 0c-0.95,-2.24 -2.97,-3.33 -5.98,-3.31 -4.35,0.21 -8.27,-2.85 -9.03,-7.25 -0.82,-4.76 2.38,-9.29 7.14,-10.11zm23.87 -6.05c4.11,-0.7 8.03,1.57 9.57,5.26l0 0c1.33,2.82 0.97,10.49 1.07,15.34l0 0 0 0.08c0,0.76 -0.62,1.38 -1.38,1.38 -0.77,0 -1.38,-0.62 -1.38,-1.38l0 0c-0.96,-2.25 -2.97,-3.33 -5.99,-3.31 -4.34,0.2 -8.27,-2.86 -9.02,-7.26 -0.83,-4.76 2.37,-9.29 7.13,-10.11z"/>
 </g>
</svg>
