<?xml version="1.0" encoding="UTF-8"?>
<!DOCTYPE svg PUBLIC "-//W3C//DTD SVG 1.1//EN" "http://www.w3.org/Graphics/SVG/1.1/DTD/svg11.dtd">
<!-- Creator: CorelDRAW 2019 (64-Bit) -->
<svg xmlns="http://www.w3.org/2000/svg" xml:space="preserve" width="128px" height="128px" version="1.1" style="shape-rendering:geometricPrecision; text-rendering:geometricPrecision; image-rendering:optimizeQuality; fill-rule:evenodd; clip-rule:evenodd"
viewBox="0 0 128 128"
 xmlns:xlink="http://www.w3.org/1999/xlink"
 xmlns:xodm="http://www.corel.com/coreldraw/odm/2003">
 <defs>
  <style type="text/css">
   <![CDATA[
    .fil0 {fill:#332C2B}
   ]]>
  </style>
 </defs>
 <g id="Layer_x0020_1">
  <metadata id="CorelCorpID_0Corel-Layer"/>
  <path class="fil0" d="M50.25 32.31c5.08,1.03 9.75,3.18 13.75,6.18 4,-3 8.67,-5.15 13.75,-6.18l0 -0.82 0 -0.03 0 -0.02 0 -0.01c0.01,-0.32 0.16,-0.6 0.39,-0.8l2.56 -2.65c0.2,-0.22 0.49,-0.37 0.81,-0.37l0 0.01 0.03 0 0 0c2.73,0 3.4,0 6.1,0 0.04,0 0.07,-0.01 0.11,-0.01 0.34,0 0.64,0.16 0.84,0.41l0 0 2.56 2.57 0 0.01 0 0c0.22,0.2 0.36,0.48 0.36,0.8l0 0.03 0 0.88c15.69,3.18 27.5,17.06 27.5,33.69 0,18.99 -15.39,34.39 -34.38,34.39 -7.74,0 -14.88,-2.56 -20.63,-6.88 -5.75,4.32 -12.89,6.88 -20.63,6.88 -18.99,0 -34.38,-15.4 -34.38,-34.39 0,-16.63 11.81,-30.51 27.5,-33.69l0 -0.82 0 -0.03 0 -0.02 0 -0.01c0.01,-0.32 0.16,-0.6 0.39,-0.8l2.56 -2.65c0.2,-0.22 0.49,-0.37 0.81,-0.37l0 0.01 0.03 0 0 0c2.73,0 3.4,0 6.1,0 0.04,0 0.07,-0.01 0.11,-0.01 0.34,0 0.64,0.16 0.84,0.41l0 0 2.56 2.57 0 0.01 0 0c0.22,0.2 0.36,0.48 0.36,0.8l0 0.03 0 0.88zm21.01 13.59c4.09,5.65 6.49,12.6 6.49,20.1 0,7.51 -2.4,14.45 -6.49,20.1 3.83,2.55 8.43,4.04 13.37,4.04 13.33,0 24.14,-10.81 24.14,-24.14 0,-13.33 -10.81,-24.14 -24.14,-24.14 -4.94,0 -9.54,1.49 -13.37,4.04zm-14.53 40.2c-4.08,-5.65 -6.48,-12.59 -6.48,-20.1 0,-7.5 2.4,-14.45 6.48,-20.1 -3.82,-2.55 -8.42,-4.04 -13.36,-4.04 -13.33,0 -24.14,10.81 -24.14,24.14 0,13.33 10.81,24.14 24.14,24.14 4.94,0 9.54,-1.49 13.36,-4.04zm7.27 -7.56c-2.23,-3.65 -3.51,-7.95 -3.51,-12.54 0,-4.59 1.28,-8.88 3.51,-12.54 2.23,3.66 3.51,7.95 3.51,12.54 0,4.59 -1.28,8.89 -3.51,12.54z"/>
 </g>
</svg>
